<?xml version="1.0" encoding="UTF-8" standalone="no"?>
<!-- Created with Inkscape (http://www.inkscape.org/) -->

<svg
   width="58.383781mm"
   height="24.611809mm"
   viewBox="0 0 58.383781 24.611809"
   version="1.1"
   id="svg1"
   xml:space="preserve"
   xmlns="http://www.w3.org/2000/svg"
   xmlns:svg="http://www.w3.org/2000/svg"><defs
     id="defs1" /><g
     id="layer1"
     transform="translate(-9.1338373,-135.4369)"><path
       style="fill:none;stroke:#008080;stroke-width:1;stroke-linecap:round;stroke-linejoin:round;paint-order:stroke fill markers"
       d="m 31.011857,144.59448 c -0.276092,-0.88163 -1.025748,-1.76358 -1.599016,-2.62348 -0.573267,-0.85991 -0.970133,-1.69774 -0.903984,-2.3592 0.06615,-0.66146 0.595307,-1.14652 1.609558,-0.85988 1.014251,0.28664 2.513525,1.34495 4.189241,2.22691 1.675715,0.88195 3.527761,1.58749 5.622402,2.09461 2.094642,0.50712 4.431748,0.81579 5.820815,0.94808 1.389066,0.13229 1.830029,0.0882 2.84428,-0.59532 1.014251,-0.68352 2.601719,-2.00641 4.071195,-3.15429 1.469475,-1.14787 2.820839,-2.12064 3.901247,-2.95094 1.080407,-0.8303 1.889715,-1.51802 2.735374,-1.36234 0.845658,0.15568 1.727588,1.15477 2.65364,2.27169 0.926051,1.11693 1.896168,2.35162 2.734023,3.58635 0.837854,1.23474 1.543396,2.46944 1.940271,3.30729 0.396875,0.83785 0.485069,1.27882 0.286628,1.78594 -0.198442,0.50712 -0.683506,1.08038 -1.14653,1.60955 -0.463025,0.52917 -0.903987,1.01423 -1.609553,1.47725 -0.705566,0.46303 -1.675684,0.90399 -2.271,1.65365 -0.595315,0.74967 -0.815797,1.80798 -1.124481,2.62378 -0.308685,0.81581 -0.705549,1.38906 -1.27882,1.80799 -0.573271,0.41893 -1.322911,0.68351 -2.519066,0.54018 -1.196155,-0.14332 -2.838705,-0.69451 -4.514435,-0.45197 -1.67573,0.24253 -3.384467,1.2788 -4.768026,1.97333 -1.383559,0.69454 -2.441871,1.04731 -3.467143,1.26229 -1.025271,0.21497 -2.017418,0.29214 -2.899379,-0.43548 -0.881961,-0.72762 -1.653647,-2.25997 -2.425355,-3.50573 -0.771708,-1.24575 -1.543381,-2.20483 -2.998619,-2.62376 -1.455237,-0.41893 -3.59391,-0.29767 -5.809818,-0.0827 -2.215908,0.21498 -4.508917,0.52365 -6.91224,1.25127 -2.403324,0.72761 -4.916816,1.87412 -6.400301,2.43302 -1.483486,0.5589 -1.936903,0.53016 -2.705402,0.24685 -0.768499,-0.28331 -1.852032,-0.82118 -2.615983,-1.44482 -0.763951,-0.62364 -1.208276,-1.333 -1.4616252,-2.15152 -0.2533496,-0.81852 -0.3157114,-1.74615 -0.342995,-2.72448 -0.027284,-0.97833 -0.019488,-2.0073 0.1325261,-2.81802 0.1520142,-0.81073 0.4482281,-1.40316 0.7678361,-1.74616 0.319608,-0.34299 0.662609,-0.43654 1.410974,-0.26893 0.748364,0.1676 1.902055,0.59634 3.589773,1.15372 1.687718,0.55737 3.909353,1.24335 5.71789,1.68769 1.808537,0.44433 3.20388,0.64701 4.377091,0.68599 1.17321,0.039 2.124226,-0.0858 2.962234,-0.41706 0.838008,-0.33131 1.562964,-0.86918 2.024184,-1.57879 0.46122,-0.70962 0.658682,-1.59093 0.382589,-2.47257 z"
       id="path27" /></g></svg>
