<?xml version="1.0" encoding="UTF-8" standalone="no"?>
<!-- Created with Inkscape (http://www.inkscape.org/) -->

<svg
   width="19.529257mm"
   height="48.632343mm"
   viewBox="0 0 19.529257 48.632343"
   version="1.1"
   id="svg1"
   xml:space="preserve"
   xmlns="http://www.w3.org/2000/svg"
   xmlns:svg="http://www.w3.org/2000/svg"><defs
     id="defs1" /><g
     id="layer1"
     transform="translate(-40.28838,-139.01868)"><path
       style="opacity:1;fill:none;fill-opacity:1;stroke:#000000;stroke-width:1;stroke-linecap:round;stroke-linejoin:round;paint-order:stroke fill markers"
       d="m 44.959506,145.37099 c 0.332952,-0.83471 1.045641,-2.62142 1.881005,-3.73521 0.835364,-1.1138 1.864512,-1.73372 3.102682,-1.99104 1.23817,-0.25732 2.950322,-0.13543 4.249082,0.6397 1.298759,0.77514 2.617957,2.50878 3.363152,4.82454 0.745195,2.31576 1.083469,5.44595 1.204276,8.80852 0.120807,3.36257 0.02599,6.97515 -0.02673,9.72047 -0.05272,2.74532 -0.06367,4.68451 0.120222,6.6749 0.183896,1.99039 0.564096,4.20822 0.439747,6.64427 -0.12435,2.43604 -0.763293,5.13722 -1.330036,7.13932 -0.566742,2.0021 -1.075917,3.3694 -2.184366,2.99798 -1.10845,-0.37143 -2.797987,-2.47051 -5.557602,-3.58323 -2.759615,-1.11271 -6.630148,-1.22053 -8.291309,-1.62503 -1.661161,-0.40449 -1.149131,-1.31702 -0.684752,-2.44138 0.464378,-1.12437 1.096681,-2.85383 1.875728,-6.21724 0.779047,-3.36342 1.712413,-8.38412 2.04776,-11.72825 0.335346,-3.34413 0.06267,-5.0834 -0.126641,-7.34592 -0.189313,-2.26251 -0.302729,-5.11732 -0.358951,-6.5325 -0.05622,-1.41519 -0.05622,-1.41519 0.276732,-2.2499 z"
       id="path1" /></g></svg>
