<?xml version="1.0" encoding="UTF-8" standalone="no"?>
<!-- Created with Inkscape (http://www.inkscape.org/) -->

<svg
   width="21.06687mm"
   height="26.982613mm"
   viewBox="0 0 21.06687 26.982613"
   version="1.1"
   id="svg1"
   xml:space="preserve"
   xmlns="http://www.w3.org/2000/svg"
   xmlns:svg="http://www.w3.org/2000/svg"><defs
     id="defs1" /><g
     id="layer1"
     transform="translate(-33.534237,-184.30161)"><path
       style="opacity:1;fill:none;fill-opacity:1;stroke:#000000;stroke-width:1;stroke-linecap:round;stroke-linejoin:round;paint-order:stroke fill markers"
       d="m 35.591138,196.24407 c 0.698986,-1.92059 2.097504,-5.76327 2.864904,-8.09539 0.767401,-2.33213 0.904531,-3.15603 1.55268,-3.31337 0.648149,-0.15735 1.799249,0.34833 3.067506,0.97397 1.268257,0.62565 2.652539,1.37225 4.000183,2.19973 1.347643,0.82747 2.679758,1.74717 3.849819,2.44909 1.17006,0.70192 2.205057,1.19954 2.714147,2.67864 0.50909,1.47911 0.507082,3.96175 0.393952,5.74616 -0.113129,1.78441 -0.33904,2.89633 -0.850222,4.29283 -0.511181,1.39649 -1.310568,3.09141 -2.032916,4.58594 -0.722348,1.49454 -1.369569,2.79252 -2.065696,2.99424 -0.696128,0.20171 -1.484138,-0.74486 -2.308808,-1.85306 -0.82467,-1.10821 -1.783078,-2.4967 -2.78799,-3.63037 -1.004911,-1.13367 -2.121155,-2.07606 -3.192834,-2.65299 -1.07168,-0.57694 -2.205767,-0.87608 -3.440838,-0.93547 -1.23507,-0.0594 -2.798797,0.13899 -3.190134,-0.35733 -0.391337,-0.49633 0.196485,-1.89711 0.461888,-2.52957 0.265403,-0.63245 0.265373,-0.63246 0.964359,-2.55305 z"
       id="path2" /></g></svg>
