<?xml version="1.0" encoding="UTF-8" standalone="no"?>
<!-- Created with Inkscape (http://www.inkscape.org/) -->

<svg
   width="24.014015mm"
   height="28.557835mm"
   viewBox="0 0 24.014015 28.557835"
   version="1.1"
   id="svg1"
   xml:space="preserve"
   xmlns="http://www.w3.org/2000/svg"
   xmlns:svg="http://www.w3.org/2000/svg"><defs
     id="defs1" /><g
     id="layer1"
     transform="translate(-21.977322,-203.22415)"><path
       style="opacity:1;fill:none;fill-opacity:1;stroke:#000000;stroke-width:1;stroke-linecap:round;stroke-linejoin:round;paint-order:stroke fill markers"
       d="m 28.444691,211.74963 c 0.379262,-0.65844 0.853337,-1.54338 1.374829,-2.5969 0.521491,-1.05352 1.090377,-2.27557 1.506513,-3.16578 0.416137,-0.89022 0.679509,-1.44857 0.911283,-1.80676 0.231773,-0.3582 0.431934,-0.51622 0.763796,-0.44247 0.331861,0.0738 0.79539,0.37925 1.422235,0.84807 0.626846,0.46882 1.416959,1.10091 2.259772,1.77516 0.842813,0.67425 1.738277,1.39062 2.649571,2.25978 0.911294,0.86915 1.838363,1.89103 2.675909,2.90767 0.837546,1.01665 1.585522,2.028 2.201829,2.90242 0.616307,0.87442 1.100905,1.61185 1.23786,2.31244 0.136955,0.70059 -0.07374,1.36429 -0.379264,2.16496 -0.305522,0.80068 -0.705846,1.73828 -1.169393,2.71805 -0.463548,0.97977 -0.99029,2.00165 -1.406428,2.81813 -0.416139,0.81647 -0.721649,1.42749 -1.06931,2.04907 -0.347661,0.62157 -0.737455,1.25367 -1.085115,1.8173 -0.347659,0.56363 -0.65317,1.05877 -0.942886,1.50125 -0.289716,0.44247 -0.563623,0.83226 -0.779595,1.11671 -0.215971,0.28445 -0.373992,0.46354 -0.611035,0.32658 -0.237044,-0.13696 -0.553089,-0.58996 -1.085118,-1.30635 -0.532028,-0.7164 -1.280002,-1.69614 -2.11755,-2.66537 -0.837548,-0.96924 -1.764616,-1.92791 -2.56529,-2.69698 -0.800674,-0.76906 -1.474901,-1.34848 -2.096475,-1.76989 -0.621573,-0.4214 -1.190456,-0.68477 -1.769892,-0.89021 -0.579437,-0.20543 -1.169389,-0.35292 -1.590793,-0.39506 -0.421403,-0.0421 -0.674243,0.0211 -1.016636,0.0527 -0.342394,0.0316 -0.774323,0.0316 -1.16939,-0.0158 -0.395066,-0.0474 -0.753253,-0.14222 -1.042971,-0.31605 -0.289718,-0.17383 -0.510947,-0.42666 -0.67951,-0.69531 -0.168563,-0.26865 -0.284446,-0.55309 -0.352925,-0.77433 -0.06848,-0.22124 -0.08955,-0.37926 0.215975,-0.72692 0.305524,-0.34766 0.937615,-0.88494 1.590798,-1.54866 0.653182,-0.66372 1.327411,-1.45383 1.859435,-2.18076 0.532024,-0.72692 0.921815,-1.39062 1.258942,-1.93845 0.337126,-0.54783 0.621568,-0.97976 1.000829,-1.6382 z"
       id="path3" /></g></svg>
