<?xml version="1.0" encoding="UTF-8" standalone="no"?>
<!DOCTYPE svg PUBLIC "-//W3C//DTD SVG 1.1//EN" "http://www.w3.org/Graphics/SVG/1.1/DTD/svg11.dtd">
<svg width="100%" height="100%" viewBox="0 0 113 279" version="1.1" xmlns="http://www.w3.org/2000/svg" xmlns:xlink="http://www.w3.org/1999/xlink" xml:space="preserve" xmlns:serif="http://www.serif.com/" style="fill-rule:evenodd;clip-rule:evenodd;stroke-linecap:round;stroke-linejoin:round;">
    <g transform="matrix(1,0,0,1,-228.491452,-785.501385)">
        <g transform="matrix(5.669291,0,0,5.669291,0,0)">
            <path id="C2" d="M44.774,145.763C44.922,145.321 45.217,144.436 45.512,143.625C45.806,142.813 46.101,142.076 46.544,141.475C46.986,140.875 47.576,140.411 48.219,140.032C48.862,139.653 49.557,139.358 50.21,139.2C50.863,139.042 51.474,139.021 52.128,139.095C52.781,139.168 53.476,139.337 54.119,139.569C54.761,139.8 55.351,140.095 55.825,140.422C56.299,140.749 56.658,141.107 56.995,141.76C57.332,142.413 57.648,143.361 57.901,144.467C58.154,145.574 58.343,146.838 58.512,148.292C58.68,149.746 58.828,151.389 58.902,152.927C58.975,154.465 58.975,155.898 58.944,157.215C58.912,158.532 58.849,159.733 58.807,160.871C58.765,162.008 58.744,163.083 58.691,164.084C58.638,165.085 58.554,166.012 58.47,166.77C58.385,167.529 58.301,168.119 58.333,168.645C58.364,169.172 58.512,169.636 58.701,170.278C58.891,170.921 59.123,171.743 59.312,172.849C59.502,173.955 59.65,175.346 59.586,176.768C59.523,178.19 59.249,179.644 58.975,180.898C58.701,182.151 58.427,183.205 58.08,184.132C57.732,185.059 57.311,185.86 57.047,186.386C56.784,186.913 56.679,187.166 56.426,187.177C56.173,187.187 55.773,186.955 55.214,186.534C54.656,186.113 53.94,185.502 53.128,184.943C52.317,184.385 51.411,183.879 50.568,183.489C49.726,183.1 48.946,182.826 48.208,182.615C47.471,182.404 46.776,182.257 45.996,182.13C45.217,182.004 44.353,181.899 43.605,181.856C42.857,181.814 42.225,181.835 41.782,181.772C41.34,181.709 41.087,181.561 40.939,181.382C40.792,181.203 40.75,180.992 40.887,180.571C41.024,180.15 41.34,179.518 41.708,178.569C42.077,177.621 42.498,176.357 42.836,175.156C43.173,173.955 43.426,172.817 43.678,171.416C43.931,170.015 44.184,168.35 44.443,166.771C44.702,165.192 44.968,163.698 45.197,162.519C45.427,161.339 45.62,160.475 45.613,159.544C45.605,158.613 45.397,157.615 45.218,156.482C45.039,155.35 44.89,154.084 44.797,152.995C44.704,151.906 44.683,151.388 44.656,149.893C44.628,148.397 44.627,147.301 44.627,146.754C44.627,146.206 44.627,146.206 44.774,145.763L44.774,145.763Z" style="fill:none;fill-rule:nonzero;stroke:black;stroke-width:1px;"/>
        </g>
    </g>
</svg>
