<?xml version="1.0" encoding="UTF-8" standalone="no"?>
<!DOCTYPE svg PUBLIC "-//W3C//DTD SVG 1.1//EN" "http://www.w3.org/Graphics/SVG/1.1/DTD/svg11.dtd">
<svg width="100%" height="100%" viewBox="0 0 119 154" version="1.1" xmlns="http://www.w3.org/2000/svg" xmlns:xlink="http://www.w3.org/1999/xlink" xml:space="preserve" xmlns:serif="http://www.serif.com/" style="fill-rule:evenodd;clip-rule:evenodd;stroke-linecap:round;stroke-linejoin:round;">
    <g transform="matrix(1,0,0,1,-190.677999,-1045.255119)">
        <g transform="matrix(5.669291,0,0,5.669291,0,0)">
            <path id="C3" d="M35.082,197.627C35.271,197.09 35.651,196.016 36.114,194.73C36.578,193.445 37.126,191.949 37.6,190.674C38.074,189.399 38.474,188.346 38.811,187.398C39.148,186.45 39.422,185.607 39.801,185.196C40.181,184.785 40.665,184.806 41.35,185.027C42.035,185.249 42.92,185.67 43.858,186.144C44.795,186.618 45.785,187.145 46.702,187.735C47.619,188.325 48.461,188.978 49.315,189.558C50.168,190.137 51.032,190.643 51.717,191.032C52.401,191.422 52.907,191.696 53.234,191.938C53.56,192.181 53.708,192.391 53.824,192.95C53.94,193.508 54.024,194.414 54.077,195.552C54.129,196.69 54.15,198.059 54.055,199.292C53.961,200.525 53.75,201.62 53.465,202.6C53.181,203.58 52.823,204.444 52.412,205.318C52.001,206.192 51.538,207.077 51.19,207.773C50.842,208.468 50.61,208.974 50.273,209.543C49.936,210.111 49.494,210.744 49.072,210.923C48.651,211.102 48.251,210.828 47.798,210.322C47.345,209.816 46.839,209.079 46.259,208.215C45.68,207.351 45.027,206.361 44.268,205.423C43.51,204.486 42.646,203.601 41.719,202.958C40.792,202.315 39.801,201.915 38.864,201.694C37.926,201.473 37.041,201.431 36.272,201.441C35.503,201.452 34.85,201.515 34.492,201.42C34.134,201.325 34.07,201.072 34.186,200.503C34.302,199.934 34.597,199.05 34.745,198.607C34.892,198.165 34.892,198.165 35.082,197.627L35.082,197.627Z" style="fill:none;fill-rule:nonzero;stroke:black;stroke-width:1px;"/>
        </g>
    </g>
</svg>
