<?xml version="1.0" encoding="UTF-8" standalone="no"?>
<!DOCTYPE svg PUBLIC "-//W3C//DTD SVG 1.1//EN" "http://www.w3.org/Graphics/SVG/1.1/DTD/svg11.dtd">
<svg width="100%" height="100%" viewBox="0 0 137 163" version="1.1" xmlns="http://www.w3.org/2000/svg" xmlns:xlink="http://www.w3.org/1999/xlink" xml:space="preserve" xmlns:serif="http://www.serif.com/" style="fill-rule:evenodd;clip-rule:evenodd;stroke-linecap:round;stroke-linejoin:round;">
    <g transform="matrix(1,0,0,1,-124.589452,-1152.113329)">
        <g transform="matrix(5.669291,0,0,5.669291,0,0)">
            <path id="C4" d="M28.445,211.75C28.824,211.091 29.298,210.206 29.82,209.153C30.341,208.099 30.91,206.877 31.326,205.987C31.742,205.097 32.006,204.538 32.237,204.18C32.469,203.822 32.669,203.664 33.001,203.738C33.333,203.812 33.797,204.117 34.423,204.586C35.05,205.055 35.84,205.687 36.683,206.361C37.526,207.035 38.421,207.752 39.333,208.621C40.244,209.49 41.171,210.512 42.009,211.528C42.846,212.545 43.594,213.556 44.21,214.431C44.827,215.305 45.311,216.043 45.448,216.743C45.585,217.444 45.375,218.108 45.069,218.908C44.764,219.709 44.363,220.647 43.9,221.626C43.436,222.606 42.909,223.628 42.493,224.444C42.077,225.261 41.772,225.872 41.424,226.493C41.076,227.115 40.686,227.747 40.339,228.311C39.991,228.874 39.686,229.37 39.396,229.812C39.106,230.254 38.832,230.644 38.616,230.929C38.4,231.213 38.242,231.392 38.005,231.255C37.768,231.118 37.452,230.665 36.92,229.949C36.388,229.233 35.64,228.253 34.803,227.284C33.965,226.314 33.038,225.356 32.237,224.587C31.437,223.818 30.762,223.238 30.141,222.817C29.519,222.395 28.95,222.132 28.371,221.927C27.791,221.721 27.202,221.574 26.78,221.531C26.359,221.489 26.106,221.553 25.764,221.584C25.421,221.616 24.989,221.616 24.594,221.568C24.199,221.521 23.841,221.426 23.551,221.252C23.261,221.078 23.04,220.826 22.872,220.557C22.703,220.288 22.587,220.004 22.519,219.783C22.45,219.561 22.429,219.403 22.735,219.056C23.04,218.708 23.672,218.171 24.325,217.507C24.979,216.843 25.653,216.053 26.185,215.326C26.717,214.599 27.107,213.936 27.444,213.388C27.781,212.84 28.065,212.408 28.445,211.75L28.445,211.75Z" style="fill:none;fill-rule:nonzero;stroke:black;stroke-width:1px;"/>
        </g>
    </g>
</svg>
