<?xml version="1.0" encoding="UTF-8" standalone="no"?>
<!-- Created with Inkscape (http://www.inkscape.org/) -->

<svg
   width="8.1784143mm"
   height="8.4868593mm"
   viewBox="0 0 8.1784143 8.4868593"
   version="1.1"
   id="svg1"
   xml:space="preserve"
   xmlns="http://www.w3.org/2000/svg"
   xmlns:svg="http://www.w3.org/2000/svg"><defs
     id="defs1" /><g
     id="layer1"
     transform="translate(-35.452877,-119.70748)"><path
       style="opacity:1;fill:none;fill-opacity:1;stroke:#000000;stroke-width:1;stroke-linecap:round;stroke-linejoin:round;paint-order:stroke fill markers"
       d="m 36.95713,121.22543 c -0.531348,0.58693 -0.905572,1.51443 -0.984282,2.3897 -0.07871,0.87526 0.08913,1.87252 0.525865,2.57385 0.436736,0.70133 1.183488,1.25815 2.035367,1.42878 0.85188,0.17063 1.900717,0.043 2.733963,-0.35358 0.833245,-0.39655 1.573824,-1.20713 1.779018,-2.1009 0.205193,-0.89377 -0.01419,-2.0968 -0.412133,-2.90731 -0.397941,-0.8105 -1.032396,-1.35473 -1.658499,-1.66311 -0.626103,-0.30838 -1.349951,-0.44793 -2.060904,-0.35855 -0.710954,0.0894 -1.427047,0.4042 -1.958395,0.99112 z"
       id="path13" /></g></svg>
