<?xml version="1.0" encoding="UTF-8" standalone="no"?>
<!DOCTYPE svg PUBLIC "-//W3C//DTD SVG 1.1//EN" "http://www.w3.org/Graphics/SVG/1.1/DTD/svg11.dtd">
<svg width="100%" height="100%" viewBox="0 0 79 131" version="1.1" xmlns="http://www.w3.org/2000/svg" xmlns:xlink="http://www.w3.org/1999/xlink" xml:space="preserve" xmlns:serif="http://www.serif.com/" style="fill-rule:evenodd;clip-rule:evenodd;stroke-linecap:round;stroke-linejoin:round;">
    <g transform="matrix(1,0,0,1,-803.582938,-283.481375)">
        <g transform="matrix(5.669291,0,0,5.669291,0,0)">
            <path id="Frontal-Sinus" serif:id="Frontal Sinus" d="M144.982,50.707C144.308,50.976 143.691,51.484 143.239,52.277C142.787,53.071 142.5,54.151 142.357,55.607C142.214,57.062 142.214,58.892 142.313,60.623C142.412,62.353 142.61,63.985 142.82,65.198C143.029,66.41 143.25,67.204 143.867,68.064C144.485,68.924 145.499,69.85 146.502,70.567C147.505,71.283 148.497,71.79 149.567,72.121C150.636,72.452 151.783,72.606 152.698,72.54C153.613,72.474 154.296,72.187 154.693,71.923C155.09,71.658 155.2,71.415 155.156,70.831C155.112,70.247 154.914,69.321 154.693,67.998C154.473,66.675 154.23,64.955 153.999,63.346C153.767,61.736 153.547,60.237 153.249,58.914C152.951,57.591 152.576,56.444 152.227,55.722C151.877,55 151.57,54.718 151.077,54.224C150.584,53.73 150.006,53.126 149.362,52.453C148.718,51.78 148.14,51.176 147.286,50.79C146.433,50.405 145.656,50.438 144.982,50.707L144.982,50.707Z" style="fill:none;fill-rule:nonzero;stroke:black;stroke-width:1px;"/>
        </g>
    </g>
</svg>
