<?xml version="1.0" encoding="UTF-8" standalone="no"?>
<!-- Created with Inkscape (http://www.inkscape.org/) -->

<svg
   width="13.68481mm"
   height="22.939396mm"
   viewBox="0 0 13.68481 22.939396"
   version="1.1"
   id="svg1"
   xml:space="preserve"
   xmlns="http://www.w3.org/2000/svg"
   xmlns:svg="http://www.w3.org/2000/svg"><defs
     id="defs1" /><g
     id="layer1"
     transform="translate(-141.75053,-50.073313)"><path
       style="opacity:1;fill:none;fill-opacity:1;stroke:#000000;stroke-width:1;stroke-linecap:round;stroke-linejoin:round;paint-order:stroke fill markers"
       d="m 144.99726,50.805905 c -0.74122,0.371335 -1.49094,1.164166 -1.90404,1.969357 -0.4131,0.805191 -0.65094,1.811654 -0.76221,3.182129 -0.11127,1.370475 -0.10506,3.146234 0.008,4.871295 0.11294,1.725061 0.33363,3.411728 0.61887,4.668354 0.28523,1.256627 0.6686,2.172181 1.27947,2.955888 0.61086,0.783706 1.52386,1.597843 2.44388,2.238544 0.92001,0.640701 1.86425,1.123312 2.90963,1.441786 1.04538,0.318474 2.1919,0.472813 3.14732,0.316294 0.95541,-0.15652 1.85098,-0.704165 2.08294,-1.413431 0.23196,-0.709266 0.033,-1.879699 -0.28895,-3.995159 -0.3219,-2.115461 -0.78204,-5.266787 -1.1994,-7.399228 -0.41735,-2.132442 -0.79866,-3.270139 -1.78326,-4.64021 -0.9846,-1.370071 -2.58603,-3.004461 -3.79199,-3.803056 -1.20596,-0.798595 -2.01892,-0.763898 -2.76013,-0.392563 z"
       id="path10" /></g></svg>
