<?xml version="1.0" encoding="UTF-8" standalone="no"?>
<!-- Created with Inkscape (http://www.inkscape.org/) -->

<svg
   width="23.468555mm"
   height="79.328506mm"
   viewBox="0 0 23.468555 79.328506"
   version="1.1"
   id="svg1"
   xml:space="preserve"
   xmlns="http://www.w3.org/2000/svg"
   xmlns:svg="http://www.w3.org/2000/svg"><defs
     id="defs1" /><g
     id="layer1"
     transform="translate(-145.21064,-26.496694)"><path
       style="opacity:1;fill:none;fill-opacity:1;stroke:#000000;stroke-width:1;stroke-linecap:round;stroke-linejoin:round;paint-order:stroke fill markers"
       d="m 145.71064,26.996694 c 1.55139,3.848654 3.10524,7.703389 4.36082,11.475295 1.25558,3.771906 2.22823,7.505397 3.76068,11.412352 1.53245,3.906955 3.6297,8.012196 4.99256,11.297305 1.36287,3.28511 2.01318,5.851055 2.21155,7.993702 0.19836,2.142646 -0.0119,4.046698 -0.86894,6.448854 -0.85703,2.402156 -2.6046,5.805309 -4.27729,7.982193 -1.67268,2.176885 -4.0743,4.251452 -4.58253,5.667695 -0.50824,1.416242 0.26269,3.58648 0.92848,5.222988 0.66579,1.636507 1.23471,2.78234 2.49767,3.800657 1.26295,1.018318 3.93661,2.418165 6.65291,3.897035 2.7163,1.47887 5.85644,3.23635 6.60545,3.11973 0.74901,-0.11662 -0.90668,-2.12379 -3.00561,-4.24332 -2.09894,-2.119542 -4.6558,-4.364049 -5.97664,-6.594962 -1.32084,-2.230914 -1.41006,-4.45007 -1.52348,-6.528246 -0.11342,-2.078175 -0.25071,-4.011586 -0.3884,-5.950579"
       id="path6" /></g></svg>
