<?xml version="1.0" encoding="UTF-8" standalone="no"?><!DOCTYPE svg PUBLIC "-//W3C//DTD SVG 1.1//EN" "http://www.w3.org/Graphics/SVG/1.1/DTD/svg11.dtd"><svg width="100%" height="100%" viewBox="0 0 291 946" version="1.1" xmlns="http://www.w3.org/2000/svg" xmlns:xlink="http://www.w3.org/1999/xlink" xml:space="preserve" xmlns:serif="http://www.serif.com/" style="fill-rule:evenodd;clip-rule:evenodd;stroke-linecap:round;stroke-linejoin:round;"><path id="Frontal-and-Nasal-Bones" serif:id="Frontal and Nasal Bones" d="M5.906,5.906c13.374,28.155 26.748,56.311 38.362,87.634c11.614,31.323 21.468,65.813 28.155,90.449c6.687,24.636 10.206,39.417 13.022,51.735c2.816,12.318 4.927,22.172 9.502,35.194c4.575,13.022 11.614,29.211 20.764,46.808c9.151,17.597 20.413,36.602 30.267,54.903c9.854,18.301 18.301,35.898 25.692,54.551c7.391,18.653 13.726,38.361 16.893,58.774c3.167,20.413 3.167,41.529 0.704,60.534c-2.464,19.005 -7.391,35.898 -11.966,48.92c-4.575,13.022 -8.799,22.172 -13.374,33.434c-4.575,11.262 -9.502,24.636 -16.314,34.22c-6.811,9.584 -15.506,15.378 -26.118,22.542c-10.612,7.163 -23.139,15.695 -35.036,30.063c-11.897,14.368 -23.162,34.57 -22.154,50.845c1.009,16.275 14.289,28.621 22.482,39.846c8.193,11.225 11.296,21.328 15.891,29.048c4.595,7.72 10.681,13.055 28.525,23.943c17.845,10.887 47.445,27.325 77.091,43.868c29.645,16.543 59.332,33.191 70.841,35.841c11.509,2.65 4.84,-8.697 -7.83,-23.315c-12.67,-14.618 -31.34,-32.507 -47.715,-47.434c-16.374,-14.927 -30.452,-26.893 -41.362,-37.451c-10.91,-10.558 -18.653,-19.709 -24.284,-31.323c-5.631,-11.614 -9.15,-25.692 -10.91,-43.289c-1.76,-17.597 -1.76,-38.713 -2.112,-53.555c-0.352,-14.842 -1.056,-23.409 -1.76,-31.977" style="fill:none;fill-rule:nonzero;stroke:#000;stroke-width:11.81px;"/></svg>