<?xml version="1.0" encoding="UTF-8" standalone="no"?>
<!-- Created with Inkscape (http://www.inkscape.org/) -->

<svg
   width="198.07652mm"
   height="239.11716mm"
   viewBox="0 0 198.07652 239.11716"
   version="1.1"
   id="svg1"
   xml:space="preserve"
   inkscape:version="1.4.4 (dcaf3e7, 2026-05-05)"
   sodipodi:docname="Cephalometric Silhouettes.svg"
   inkscape:export-batch-name=""
   inkscape:export-batch-path="Modified Silhouettes"
   xmlns:inkscape="http://www.inkscape.org/namespaces/inkscape"
   xmlns:sodipodi="http://sodipodi.sourceforge.net/DTD/sodipodi-0.dtd"
   xmlns="http://www.w3.org/2000/svg"
   xmlns:svg="http://www.w3.org/2000/svg"><sodipodi:namedview
     id="namedview1"
     pagecolor="#ffffff"
     bordercolor="#000000"
     borderopacity="0.25"
     inkscape:showpageshadow="2"
     inkscape:pageopacity="0.0"
     inkscape:pagecheckerboard="0"
     inkscape:deskcolor="#d1d1d1"
     inkscape:document-units="mm"
     inkscape:zoom="1"
     inkscape:cx="421.5"
     inkscape:cy="510"
     inkscape:window-width="1920"
     inkscape:window-height="1055"
     inkscape:window-x="-8"
     inkscape:window-y="-8"
     inkscape:window-maximized="1"
     inkscape:current-layer="layer1"><inkscape:page
       x="0"
       y="0"
       width="198.07652"
       height="239.11716"
       id="page2"
       margin="0"
       bleed="0" /></sodipodi:namedview><defs
     id="defs1"><inkscape:path-effect
       effect="bspline"
       id="path-effect30"
       is_visible="true"
       lpeversion="1.3"
       weight="33.333333"
       steps="2"
       helper_size="0"
       apply_no_weight="true"
       apply_with_weight="true"
       only_selected="false"
       uniform="false" /><inkscape:path-effect
       effect="bspline"
       id="path-effect28"
       is_visible="true"
       lpeversion="1.3"
       weight="33.333333"
       steps="2"
       helper_size="0"
       apply_no_weight="true"
       apply_with_weight="true"
       only_selected="false"
       uniform="false" /><inkscape:path-effect
       effect="bspline"
       id="path-effect27"
       is_visible="true"
       lpeversion="1.3"
       weight="33.333333"
       steps="2"
       helper_size="0"
       apply_no_weight="true"
       apply_with_weight="true"
       only_selected="false"
       uniform="false" /><inkscape:path-effect
       effect="bspline"
       id="path-effect26"
       is_visible="true"
       lpeversion="1.3"
       weight="33.333333"
       steps="2"
       helper_size="0"
       apply_no_weight="true"
       apply_with_weight="true"
       only_selected="false"
       uniform="false" /><inkscape:path-effect
       effect="bspline"
       id="path-effect22"
       is_visible="true"
       lpeversion="1.3"
       weight="33.333333"
       steps="2"
       helper_size="0"
       apply_no_weight="true"
       apply_with_weight="true"
       only_selected="false"
       uniform="false" /><inkscape:path-effect
       effect="bspline"
       id="path-effect20"
       is_visible="true"
       lpeversion="1.3"
       weight="33.333333"
       steps="2"
       helper_size="0"
       apply_no_weight="true"
       apply_with_weight="true"
       only_selected="false"
       uniform="false" /><inkscape:path-effect
       effect="bspline"
       id="path-effect17"
       is_visible="true"
       lpeversion="1.3"
       weight="33.333333"
       steps="2"
       helper_size="0"
       apply_no_weight="true"
       apply_with_weight="true"
       only_selected="false"
       uniform="false" /><inkscape:path-effect
       effect="bspline"
       id="path-effect15"
       is_visible="true"
       lpeversion="1.3"
       weight="33.333333"
       steps="2"
       helper_size="0"
       apply_no_weight="true"
       apply_with_weight="true"
       only_selected="false"
       uniform="false" /><inkscape:path-effect
       effect="bspline"
       id="path-effect13"
       is_visible="true"
       lpeversion="1.3"
       weight="33.333333"
       steps="2"
       helper_size="0"
       apply_no_weight="true"
       apply_with_weight="true"
       only_selected="false"
       uniform="false" /><inkscape:path-effect
       effect="bspline"
       id="path-effect12"
       is_visible="true"
       lpeversion="1.3"
       weight="33.333333"
       steps="2"
       helper_size="0"
       apply_no_weight="true"
       apply_with_weight="true"
       only_selected="false"
       uniform="false" /><inkscape:path-effect
       effect="bspline"
       id="path-effect11"
       is_visible="true"
       lpeversion="1.3"
       weight="33.333333"
       steps="2"
       helper_size="0"
       apply_no_weight="true"
       apply_with_weight="true"
       only_selected="false"
       uniform="false" /><inkscape:path-effect
       effect="bspline"
       id="path-effect10"
       is_visible="true"
       lpeversion="1.3"
       weight="33.333333"
       steps="2"
       helper_size="0"
       apply_no_weight="true"
       apply_with_weight="true"
       only_selected="false"
       uniform="false" /><inkscape:path-effect
       effect="bspline"
       id="path-effect9"
       is_visible="true"
       lpeversion="1.3"
       weight="33.333333"
       steps="2"
       helper_size="0"
       apply_no_weight="true"
       apply_with_weight="true"
       only_selected="false"
       uniform="false" /><inkscape:path-effect
       effect="bspline"
       id="path-effect8"
       is_visible="true"
       lpeversion="1.3"
       weight="33.333333"
       steps="2"
       helper_size="0"
       apply_no_weight="true"
       apply_with_weight="true"
       only_selected="false"
       uniform="false" /><inkscape:path-effect
       effect="bspline"
       id="path-effect7"
       is_visible="true"
       lpeversion="1.3"
       weight="33.333333"
       steps="2"
       helper_size="0"
       apply_no_weight="true"
       apply_with_weight="true"
       only_selected="false"
       uniform="false" /><inkscape:path-effect
       effect="bspline"
       id="path-effect6"
       is_visible="true"
       lpeversion="1.3"
       weight="33.333333"
       steps="2"
       helper_size="0"
       apply_no_weight="true"
       apply_with_weight="true"
       only_selected="false"
       uniform="false" /><inkscape:path-effect
       effect="bspline"
       id="path-effect5"
       is_visible="true"
       lpeversion="1.3"
       weight="33.333333"
       steps="2"
       helper_size="0"
       apply_no_weight="true"
       apply_with_weight="true"
       only_selected="false"
       uniform="false" /><inkscape:path-effect
       effect="bspline"
       id="path-effect4"
       is_visible="true"
       lpeversion="1.3"
       weight="33.333333"
       steps="2"
       helper_size="0"
       apply_no_weight="true"
       apply_with_weight="true"
       only_selected="false"
       uniform="false" /><inkscape:path-effect
       effect="bspline"
       id="path-effect3"
       is_visible="true"
       lpeversion="1.3"
       weight="33.333333"
       steps="2"
       helper_size="0"
       apply_no_weight="true"
       apply_with_weight="true"
       only_selected="false"
       uniform="false" /><inkscape:path-effect
       effect="bspline"
       id="path-effect2"
       is_visible="true"
       lpeversion="1.3"
       weight="33.333333"
       steps="2"
       helper_size="0"
       apply_no_weight="true"
       apply_with_weight="true"
       only_selected="false"
       uniform="false" /><inkscape:path-effect
       effect="bspline"
       id="path-effect1"
       is_visible="true"
       lpeversion="1.3"
       weight="33.333333"
       steps="2"
       helper_size="0"
       apply_no_weight="true"
       apply_with_weight="true"
       only_selected="false"
       uniform="false" /></defs><g
     inkscape:label="Layer 1"
     inkscape:groupmode="layer"
     id="layer1"
     transform="translate(1.0291667,-25.879503)"><path
       style="fill:none;stroke:#008080;stroke-width:1;stroke-linecap:round;stroke-linejoin:round;paint-order:stroke fill markers"
       d="m 31.011857,144.59448 c -0.276092,-0.88163 -1.025748,-1.76358 -1.599016,-2.62348 -0.573267,-0.85991 -0.970133,-1.69774 -0.903984,-2.3592 0.06615,-0.66146 0.595307,-1.14652 1.609558,-0.85988 1.014251,0.28664 2.513525,1.34495 4.189241,2.22691 1.675715,0.88195 3.527761,1.58749 5.622402,2.09461 2.094642,0.50712 4.431748,0.81579 5.820815,0.94808 1.389066,0.13229 1.830029,0.0882 2.84428,-0.59532 1.014251,-0.68352 2.601719,-2.00641 4.071195,-3.15429 1.469475,-1.14787 2.820839,-2.12064 3.901247,-2.95094 1.080407,-0.8303 1.889715,-1.51802 2.735374,-1.36234 0.845658,0.15568 1.727588,1.15477 2.65364,2.27169 0.926051,1.11693 1.896168,2.35162 2.734023,3.58635 0.837854,1.23474 1.543396,2.46944 1.940271,3.30729 0.396875,0.83785 0.485069,1.27882 0.286628,1.78594 -0.198442,0.50712 -0.683506,1.08038 -1.14653,1.60955 -0.463025,0.52917 -0.903987,1.01423 -1.609553,1.47725 -0.705566,0.46303 -1.675684,0.90399 -2.271,1.65365 -0.595315,0.74967 -0.815797,1.80798 -1.124481,2.62378 -0.308685,0.81581 -0.705549,1.38906 -1.27882,1.80799 -0.573271,0.41893 -1.322911,0.68351 -2.519066,0.54018 -1.196155,-0.14332 -2.838705,-0.69451 -4.514435,-0.45197 -1.67573,0.24253 -3.384467,1.2788 -4.768026,1.97333 -1.383559,0.69454 -2.441871,1.04731 -3.467143,1.26229 -1.025271,0.21497 -2.017418,0.29214 -2.899379,-0.43548 -0.881961,-0.72762 -1.653647,-2.25997 -2.425355,-3.50573 -0.771708,-1.24575 -1.543381,-2.20483 -2.998619,-2.62376 -1.455237,-0.41893 -3.59391,-0.29767 -5.809818,-0.0827 -2.215908,0.21498 -4.508917,0.52365 -6.91224,1.25127 -2.403324,0.72761 -4.916816,1.87412 -6.400301,2.43302 -1.483486,0.5589 -1.936903,0.53016 -2.705402,0.24685 -0.768499,-0.28331 -1.852032,-0.82118 -2.615983,-1.44482 -0.763951,-0.62364 -1.208276,-1.333 -1.4616252,-2.15152 -0.2533496,-0.81852 -0.3157114,-1.74615 -0.342995,-2.72448 -0.027284,-0.97833 -0.019488,-2.0073 0.1325261,-2.81802 0.1520142,-0.81073 0.4482281,-1.40316 0.7678361,-1.74616 0.319608,-0.34299 0.662609,-0.43654 1.410974,-0.26893 0.748364,0.1676 1.902055,0.59634 3.589773,1.15372 1.687718,0.55737 3.909353,1.24335 5.71789,1.68769 1.808537,0.44433 3.20388,0.64701 4.377091,0.68599 1.17321,0.039 2.124226,-0.0858 2.962234,-0.41706 0.838008,-0.33131 1.562964,-0.86918 2.024184,-1.57879 0.46122,-0.70962 0.658682,-1.59093 0.382589,-2.47257 z"
       id="path27"
       inkscape:path-effect="#path-effect28"
       inkscape:original-d="m 31.485416,144.59479 c -0.749652,-0.88194 -1.499306,-1.76389 -2.248958,-2.64583 -0.396883,-0.83787 -0.79375,-1.6757 -1.190625,-2.51355 0.529177,-0.48507 1.058333,-0.97013 1.5875,-1.4552 1.499335,1.05835 2.99861,2.11666 4.497917,3.175 1.85212,0.70557 3.704166,1.41111 5.55625,2.11666 2.337199,0.30869 4.674306,0.61736 7.011458,0.92604 0.440981,-0.0441 0.881943,-0.0882 1.322916,-0.13229 1.587532,-1.32294 3.175,-2.64583 4.7625,-3.96875 1.351451,-0.97283 2.702815,-1.9456 4.05427,-2.91844 0.80936,-0.68776 1.618667,-1.37548 2.428022,-2.06324 0.881963,0.99912 1.763891,1.99821 2.645833,2.99731 0.970158,1.23475 1.940277,2.46944 2.910417,3.70416 0.70557,1.23475 1.41111,2.46945 2.116666,3.70417 0.0882,0.44098 0.17639,0.88195 0.264584,1.32292 -0.485079,0.57327 -0.97014,1.14653 -1.455208,1.71979 -0.440982,0.48508 -0.881944,0.97014 -1.322917,1.45521 -0.970158,0.44098 -1.940277,0.88194 -2.910417,1.32291 -0.22049,1.05836 -0.440973,2.11667 -0.661458,3.175 -0.396883,0.57328 -0.79375,1.14653 -1.190625,1.7198 -0.749668,0.26458 -1.499307,0.52916 -2.248958,0.79375 -1.642656,-0.55123 -3.285207,-1.10242 -4.927865,-1.65365 -1.708805,1.0363 -3.417538,2.07257 -5.126302,3.10885 -1.058354,0.35279 -2.116667,0.70556 -3.175,1.05834 -0.992208,0.0772 -1.984357,0.15434 -2.976563,0.23151 -0.771715,-1.53241 -1.543403,-3.06476 -2.315103,-4.59714 -0.771716,-0.95913 -1.543387,-1.91821 -2.315104,-2.87734 -2.138759,0.12127 -4.277432,0.24253 -6.416146,0.3638 -2.293102,0.30869 -4.586111,0.61736 -6.879167,0.92604 -2.513592,1.14655 -5.027083,2.29306 -7.540625,3.43959 -0.453431,-0.0287 -0.906844,-0.0575 -1.360267,-0.0862 -1.083577,-0.53789 -2.16711,-1.07576 -3.250665,-1.61364 -0.444345,-0.7094 -0.888672,-1.41876 -1.333007,-2.12814 -0.062364,-0.92766 -0.1247259,-1.85529 -0.1870887,-2.78294 0.00779,-1.02901 0.015592,-2.05798 0.023387,-3.08696 0.2962296,-0.59247 0.5924467,-1.1849 0.8886707,-1.77735 0.343003,-0.0935 0.685992,-0.18709 1.028988,-0.28063 1.153736,0.42875 2.307426,0.85749 3.46114,1.28624 2.221722,0.686 4.443356,1.37198 6.665034,2.05797 1.395397,0.20268 2.790739,0.40536 4.186109,0.60804 0.951051,-0.12473 1.902067,-0.24945 2.853101,-0.37418 0.724982,-0.53789 1.449938,-1.07576 2.174907,-1.61364 0.197469,-0.88135 0.394933,-1.76266 0.592399,-2.64399 z"
       sodipodi:nodetypes="ccccccccccccccccccccccccccccccccccccccccccc"
       inkscape:label="Atlas C1" /><path
       style="opacity:1;fill:none;fill-opacity:1;stroke:#000000;stroke-width:1;stroke-linecap:round;stroke-linejoin:round;paint-order:stroke fill markers"
       d="m 44.959506,145.37099 c 0.332952,-0.83471 1.045641,-2.62142 1.881005,-3.73521 0.835364,-1.1138 1.864512,-1.73372 3.102682,-1.99104 1.23817,-0.25732 2.950322,-0.13543 4.249082,0.6397 1.298759,0.77514 2.617957,2.50878 3.363152,4.82454 0.745195,2.31576 1.083469,5.44595 1.204276,8.80852 0.120807,3.36257 0.02599,6.97515 -0.02673,9.72047 -0.05272,2.74532 -0.06367,4.68451 0.120222,6.6749 0.183896,1.99039 0.564096,4.20822 0.439747,6.64427 -0.12435,2.43604 -0.763293,5.13722 -1.330036,7.13932 -0.566742,2.0021 -1.075917,3.3694 -2.184366,2.99798 -1.10845,-0.37143 -2.797987,-2.47051 -5.557602,-3.58323 -2.759615,-1.11271 -6.630148,-1.22053 -8.291309,-1.62503 -1.661161,-0.40449 -1.149131,-1.31702 -0.684752,-2.44138 0.464378,-1.12437 1.096681,-2.85383 1.875728,-6.21724 0.779047,-3.36342 1.712413,-8.38412 2.04776,-11.72825 0.335346,-3.34413 0.06267,-5.0834 -0.126641,-7.34592 -0.189313,-2.26251 -0.302729,-5.11732 -0.358951,-6.5325 -0.05622,-1.41519 -0.05622,-1.41519 0.276732,-2.2499 z"
       id="path1"
       inkscape:path-effect="#path-effect1"
       inkscape:original-d="m 44.626554,146.2057 c 0.648705,-1.67628 0.992564,-3.61011 2.019763,-5.06354 0.931254,-0.78337 1.891009,-1.5185 3.08448,-1.858 1.499252,-0.58065 3.191359,-0.17718 4.661769,0.33186 2.17185,0.62678 3.130136,2.63505 3.571385,4.69337 0.511372,3.09647 0.870513,6.22441 1.011367,9.35859 0.0806,3.61669 -0.223711,7.22378 -0.284447,10.83715 0.05574,1.87853 -0.891803,3.81243 -0.03161,5.59412 0.785,2.13421 0.898459,4.39777 1.137788,6.63709 -0.55144,2.67506 -0.861904,5.45394 -1.890141,7.99071 -0.510745,1.37151 -1.019919,2.73881 -1.532027,4.11399 -1.70479,-2.11803 -3.394326,-4.21711 -5.10006,-6.33631 -3.813497,-0.10624 -7.68403,-0.21406 -11.402165,-0.31763 0.395814,-0.70541 0.907844,-1.61794 1.213816,-2.16324 0.8731,-1.61191 1.297098,-3.41753 1.880805,-5.14434 1.204346,-4.96482 1.568392,-10.09136 2.798434,-15.05316 -0.126947,-1.69235 -0.72658,-3.38036 -0.801023,-5.10938 -0.367111,-2.81598 -0.384484,-5.6746 -0.338137,-8.51128 z"
       inkscape:label="C2"
       sodipodi:nodetypes="sccccccccccccccccss" /><path
       style="opacity:1;fill:none;fill-opacity:1;stroke:#000000;stroke-width:1;stroke-linecap:round;stroke-linejoin:round;paint-order:stroke fill markers"
       d="m 35.591138,196.24407 c 0.698986,-1.92059 2.097504,-5.76327 2.864904,-8.09539 0.767401,-2.33213 0.904531,-3.15603 1.55268,-3.31337 0.648149,-0.15735 1.799249,0.34833 3.067506,0.97397 1.268257,0.62565 2.652539,1.37225 4.000183,2.19973 1.347643,0.82747 2.679758,1.74717 3.849819,2.44909 1.17006,0.70192 2.205057,1.19954 2.714147,2.67864 0.50909,1.47911 0.507082,3.96175 0.393952,5.74616 -0.113129,1.78441 -0.33904,2.89633 -0.850222,4.29283 -0.511181,1.39649 -1.310568,3.09141 -2.032916,4.58594 -0.722348,1.49454 -1.369569,2.79252 -2.065696,2.99424 -0.696128,0.20171 -1.484138,-0.74486 -2.308808,-1.85306 -0.82467,-1.10821 -1.783078,-2.4967 -2.78799,-3.63037 -1.004911,-1.13367 -2.121155,-2.07606 -3.192834,-2.65299 -1.07168,-0.57694 -2.205767,-0.87608 -3.440838,-0.93547 -1.23507,-0.0594 -2.798797,0.13899 -3.190134,-0.35733 -0.391337,-0.49633 0.196485,-1.89711 0.461888,-2.52957 0.265403,-0.63245 0.265373,-0.63246 0.964359,-2.55305 z"
       id="path2"
       inkscape:path-effect="#path-effect2"
       inkscape:original-d="m 34.892152,198.16466 c 1.325399,-3.86759 2.80305,-7.68147 4.194161,-11.52421 0.13713,-0.8239 0.274261,-1.6478 0.411392,-2.47171 1.159167,0.50922 2.310267,1.0149 3.477482,1.52766 1.392385,0.69572 2.813901,1.37329 4.116581,2.22026 1.267706,1.01336 2.547372,2.00903 3.994105,2.75756 1.010417,0.4858 2.045413,0.98342 3.065591,1.47391 -0.002,2.46772 -0.004,4.95036 -0.006,7.41538 -0.234719,1.10168 -0.382284,2.22951 -0.673372,3.31427 -0.666956,1.7568 -1.49478,3.4383 -2.398044,5.08449 -0.645204,1.29394 -1.292426,2.59192 -1.939771,3.89015 -0.744908,-0.8948 -1.532919,-1.84137 -2.232119,-2.68126 -0.991009,-1.34831 -1.771287,-2.85976 -2.852372,-4.13238 -1.06112,-0.90575 -1.789624,-2.30741 -3.196081,-2.69829 -1.09052,-0.4458 -2.156907,-1.0016 -3.369904,-0.88889 -1.363846,0.17303 -2.927573,0.37141 -4.194238,0.53211 0.483993,-1.15335 1.071814,-2.55413 1.602619,-3.81904 z"
       inkscape:label="C3"
       sodipodi:nodetypes="scccccccccccccccss" /><path
       style="opacity:1;fill:none;fill-opacity:1;stroke:#000000;stroke-width:1;stroke-linecap:round;stroke-linejoin:round;paint-order:stroke fill markers"
       d="m 28.444691,211.74963 c 0.379262,-0.65844 0.853337,-1.54338 1.374829,-2.5969 0.521491,-1.05352 1.090377,-2.27557 1.506513,-3.16578 0.416137,-0.89022 0.679509,-1.44857 0.911283,-1.80676 0.231773,-0.3582 0.431934,-0.51622 0.763796,-0.44247 0.331861,0.0738 0.79539,0.37925 1.422235,0.84807 0.626846,0.46882 1.416959,1.10091 2.259772,1.77516 0.842813,0.67425 1.738277,1.39062 2.649571,2.25978 0.911294,0.86915 1.838363,1.89103 2.675909,2.90767 0.837546,1.01665 1.585522,2.028 2.201829,2.90242 0.616307,0.87442 1.100905,1.61185 1.23786,2.31244 0.136955,0.70059 -0.07374,1.36429 -0.379264,2.16496 -0.305522,0.80068 -0.705846,1.73828 -1.169393,2.71805 -0.463548,0.97977 -0.99029,2.00165 -1.406428,2.81813 -0.416139,0.81647 -0.721649,1.42749 -1.06931,2.04907 -0.347661,0.62157 -0.737455,1.25367 -1.085115,1.8173 -0.347659,0.56363 -0.65317,1.05877 -0.942886,1.50125 -0.289716,0.44247 -0.563623,0.83226 -0.779595,1.11671 -0.215971,0.28445 -0.373992,0.46354 -0.611035,0.32658 -0.237044,-0.13696 -0.553089,-0.58996 -1.085118,-1.30635 -0.532028,-0.7164 -1.280002,-1.69614 -2.11755,-2.66537 -0.837548,-0.96924 -1.764616,-1.92791 -2.56529,-2.69698 -0.800674,-0.76906 -1.474901,-1.34848 -2.096475,-1.76989 -0.621573,-0.4214 -1.190456,-0.68477 -1.769892,-0.89021 -0.579437,-0.20543 -1.169389,-0.35292 -1.590793,-0.39506 -0.421403,-0.0421 -0.674243,0.0211 -1.016636,0.0527 -0.342394,0.0316 -0.774323,0.0316 -1.16939,-0.0158 -0.395066,-0.0474 -0.753253,-0.14222 -1.042971,-0.31605 -0.289718,-0.17383 -0.510947,-0.42666 -0.67951,-0.69531 -0.168563,-0.26865 -0.284446,-0.55309 -0.352925,-0.77433 -0.06848,-0.22124 -0.08955,-0.37926 0.215975,-0.72692 0.305524,-0.34766 0.937615,-0.88494 1.590798,-1.54866 0.653182,-0.66372 1.327411,-1.45383 1.859435,-2.18076 0.532024,-0.72692 0.921815,-1.39062 1.258942,-1.93845 0.337126,-0.54783 0.621568,-0.97976 1.000829,-1.6382 z"
       id="path3"
       inkscape:path-effect="#path-effect3"
       inkscape:original-d="m 28.349874,211.97614 c 0.474077,-0.88495 0.948155,-1.76989 1.422233,-2.65484 0.568904,-1.22209 1.137788,-2.44414 1.706681,-3.6662 0.263383,-0.55837 0.526754,-1.11672 0.790131,-1.67508 0.20017,-0.15803 0.400333,-0.31605 0.600498,-0.47408 0.463553,0.30553 0.927087,0.61103 1.390629,0.91655 0.790146,0.63212 1.580261,1.26421 2.370392,1.89632 0.895498,0.71639 1.790961,1.43276 2.686441,2.14915 0.927105,1.02192 1.854174,2.0438 2.78126,3.0657 0.748004,1.01139 1.495978,2.02274 2.243969,3.0341 0.484624,0.73748 0.969227,1.47491 1.45384,2.21237 -0.210706,0.66372 -0.421402,1.32742 -0.632105,1.99113 -0.400339,0.93764 -0.800664,1.87524 -1.200997,2.81286 -0.526764,1.02192 -1.053507,2.0438 -1.580261,3.06571 -0.305522,0.61104 -0.611034,1.22206 -0.916551,1.8331 -0.389805,0.63211 -0.779595,1.26421 -1.169392,1.89631 -0.305523,0.49516 -0.611034,0.9903 -0.916551,1.48545 -0.273918,0.3898 -0.547825,0.77959 -0.821735,1.16939 -0.158031,0.1791 -0.316053,0.35819 -0.474078,0.53729 -0.316061,-0.45302 -0.632105,-0.90602 -0.948158,-1.35903 -0.748004,-0.97978 -1.495978,-1.95952 -2.243968,-2.93928 -0.927106,-0.95871 -1.854174,-1.91738 -2.781261,-2.87607 -0.674256,-0.57945 -1.348488,-1.15886 -2.022731,-1.73829 -0.568905,-0.26338 -1.137788,-0.52675 -1.706682,-0.79013 -0.589976,-0.1475 -1.179928,-0.29499 -1.769893,-0.44247 -0.252846,0.0632 -0.505682,0.12642 -0.758524,0.18962 -0.431947,0 -0.863876,0 -1.295813,0 -0.3582,-0.0948 -0.716385,-0.18962 -1.074578,-0.28444 -0.22124,-0.25285 -0.442473,-0.50568 -0.663709,-0.75853 -0.115888,-0.28445 -0.231772,-0.56889 -0.347657,-0.85334 -0.02107,-0.15803 -0.04214,-0.31605 -0.06321,-0.47407 0.632117,-0.5373 1.264208,-1.07458 1.896313,-1.61187 0.674258,-0.79015 1.348489,-1.58026 2.022733,-2.37039 0.389806,-0.66372 0.779595,-1.32742 1.169393,-1.99113 0.284453,-0.43195 0.568893,-0.86388 0.853341,-1.29581 z"
       inkscape:label="C4" /><path
       style="display:inline;opacity:1;fill:none;fill-opacity:1;stroke:#000000;stroke-width:1;stroke-linecap:round;stroke-linejoin:round;paint-order:stroke fill markers"
       d="m 164.13639,166.55945 c -0.2107,-0.69531 -0.63211,-2.08594 -1.05351,-3.7189 -0.42141,-1.63295 -0.84281,-3.50816 -1.11672,-5.1095 -0.27391,-1.60134 -0.40033,-2.92874 -0.38979,-4.21403 0.0105,-1.28529 0.15802,-2.5284 0.54782,-3.4871 0.38981,-0.9587 1.0219,-1.63293 1.64347,-2.17022 0.62158,-0.53729 1.2326,-0.93762 1.07457,-1.35903 -0.15804,-0.4214 -1.08511,-0.86387 -2.08595,-1.4117 -1.00084,-0.54783 -2.0754,-1.20099 -3.13945,-1.78042 -1.06405,-0.57943 -2.11754,-1.08511 -3.0341,-1.64347 -0.91656,-0.55837 -1.69614,-1.16939 -2.35985,-1.67508 -0.66372,-0.50568 -1.21153,-0.90601 -1.6224,-1.21153 -0.41087,-0.30552 -0.68478,-0.51622 -1.14833,-0.29497 -0.46355,0.22124 -1.11671,0.8744 -1.98059,1.51705 -0.86389,0.64265 -1.93845,1.27474 -3.48134,1.97186 -1.54289,0.69712 -3.533,1.45127 -5.10374,1.84144 -1.57074,0.39018 -2.70851,0.41124 -4.28879,0.32696 -1.58028,-0.0843 -3.60297,-0.27391 -6.07874,-0.54783 -2.47577,-0.27391 -5.40446,-0.6321 -7.97504,-0.94815 -2.57058,-0.31606 -4.7829,-0.58996 -7.16385,-0.93762 -2.38095,-0.34766 -4.93039,-0.76906 -6.87939,-1.04297 -1.949,-0.27391 -3.29746,-0.40033 -4.67757,-0.54782 -1.38011,-0.1475 -2.79178,-0.31606 -3.80315,-0.44248 -1.01138,-0.12642 -1.622399,-0.2107 -1.790958,-0.0527 -0.168558,0.15803 0.105349,0.55836 0.716393,0.94816 0.611043,0.3898 1.559185,0.76906 2.728585,1.29582 1.16941,0.52676 2.56001,1.20099 3.97173,1.87524 1.41171,0.67425 2.84445,1.34848 4.15081,1.90684 1.30636,0.55836 2.48626,1.00083 3.85584,1.46437 1.36957,0.46355 2.92873,0.94816 4.60383,1.40117 1.67509,0.45301 3.46602,0.87441 5.55198,1.48545 2.08597,0.61104 4.46685,1.41169 6.21568,2.00166 1.74883,0.58997 2.86553,0.96922 4.31939,1.5908 1.45385,0.62157 3.24478,1.48543 4.77238,2.34932 1.5276,0.86389 2.79178,1.72774 4.02439,2.60216 1.23262,0.87442 2.43359,1.75935 3.79263,2.85501 1.35904,1.09566 2.87606,2.40198 4.18242,3.60299 1.30636,1.20101 2.40199,2.29664 3.28694,3.2448 0.88495,0.94816 1.55918,1.74881 1.97005,2.26503 0.41087,0.51623 0.55836,0.74799 0.71639,0.58996 0.15802,-0.15803 0.32658,-0.70584 0.55835,-1.19046 0.23178,-0.48462 0.52675,-0.90601 0.96267,-1.27719 0.43592,-0.37117 1.001,-0.68557 1.69143,-0.85552 0.69043,-0.16995 1.48008,-0.18794 2.17319,-0.24968 0.6931,-0.0617 1.28305,-0.16709 1.57804,-0.21976 0.29498,-0.0527 0.29498,-0.0527 0.0843,-0.74799 z"
       id="path4"
       inkscape:path-effect="#path-effect4"
       inkscape:original-d="m 164.34709,167.25477 c -0.42141,-1.39063 -0.84281,-2.78126 -1.26421,-4.17189 -0.42141,-1.87528 -0.84281,-3.75049 -1.26421,-5.62573 -0.12642,-1.32744 -0.25284,-2.65484 -0.37926,-3.98226 0.14749,-1.24316 0.29498,-2.48627 0.44247,-3.72941 0.63212,-0.67426 1.26421,-1.34849 1.89631,-2.02273 0.61105,-0.40034 1.22207,-0.80067 1.8331,-1.201 -0.9271,-0.44248 -1.85417,-0.88495 -2.78125,-1.32742 -1.0746,-0.65319 -2.14916,-1.30635 -3.22373,-1.95952 -1.05353,-0.5057 -2.10702,-1.01137 -3.16053,-1.51705 -0.77961,-0.61105 -1.55919,-1.22207 -2.33878,-1.8331 -0.54784,-0.40034 -1.09565,-0.80067 -1.64347,-1.201 -0.27392,-0.21071 -0.54783,-0.4214 -0.82174,-0.63211 -0.65319,0.65319 -1.30635,1.30635 -1.95952,1.95953 -1.0746,0.63211 -2.14916,1.26421 -3.22373,1.89631 -1.96217,0.89155 -3.93046,1.70329 -6.00499,2.27557 -1.13781,0.0211 -2.27558,0.0421 -3.41336,0.0632 -2.02278,-0.18963 -4.04547,-0.37926 -6.0682,-0.56889 -2.92881,-0.3582 -5.8575,-0.71638 -8.78625,-1.07458 -2.21241,-0.27391 -4.42473,-0.54782 -6.6371,-0.82173 -2.54953,-0.42141 -5.09897,-0.84281 -7.64846,-1.26421 -1.34851,-0.12642 -2.69697,-0.25284 -4.04546,-0.37926 -1.41173,-0.16857 -2.8234,-0.33712 -4.235101,-0.50569 -0.611047,-0.0843 -1.222068,-0.16856 -1.833102,-0.25284 0.273918,0.40034 0.547822,0.80067 0.821735,1.201 0.948177,0.37927 1.896318,0.75852 2.844468,1.13779 1.39066,0.67425 2.78126,1.34849 4.17189,2.02273 1.4328,0.67426 2.86554,1.34849 4.29831,2.02273 1.17995,0.44249 2.35985,0.88495 3.53978,1.32742 1.55922,0.48463 3.11838,0.96923 4.67757,1.45384 1.791,0.42141 3.58193,0.84281 5.37289,1.26421 2.38097,0.80068 4.76185,1.60133 7.14277,2.402 1.11674,0.37927 2.23344,0.75852 3.35016,1.13778 1.79099,0.8639 3.58192,1.72776 5.37288,2.59163 1.26424,0.8639 2.52842,1.72775 3.79263,2.59163 1.20102,0.88496 2.40199,1.76989 3.60299,2.65484 1.51708,1.30637 3.0341,2.61269 4.55115,3.91904 1.09567,1.09567 2.19129,2.1913 3.28694,3.28694 0.67426,0.80068 1.34849,1.60133 2.02274,2.402 0.14749,0.23178 0.29498,0.46354 0.44247,0.69532 0.16856,-0.54784 0.33712,-1.09565 0.50568,-1.64348 0.29499,-0.42141 0.58997,-0.8428 0.88495,-1.26421 0.57685,-0.32094 1.14193,-0.63534 1.71999,-0.95696 0.8028,-0.0183 1.59245,-0.0363 2.38869,-0.0544 0.58997,-0.10535 1.17992,-0.2107 1.76989,-0.31605 z"
       inkscape:label="Maxillary Bone"
       sodipodi:nodetypes="scccccccccccccccccccccccccccccccccccccccccccss" /><path
       style="opacity:1;fill:none;fill-opacity:1;stroke:#000000;stroke-width:1;stroke-linecap:round;stroke-linejoin:round;paint-order:stroke fill markers"
       d="m 79.68859,214.81168 c 0.296305,-0.23017 0.979868,-0.76114 1.582853,-0.796 0.602985,-0.0349 1.418246,0.32431 2.247624,0.59508 0.829379,0.27078 1.806646,0.50171 2.42844,1.05489 0.621795,0.55319 1.103567,1.63212 1.41025,2.44652 0.306682,0.8144 0.497129,1.50906 0.458185,2.05248 -0.03895,0.54341 -0.294548,0.99389 -0.826569,1.52117 -0.532021,0.52728 -1.517696,1.25906 -2.039937,1.16493 -0.522242,-0.0941 -1.042353,-1.05167 -2.009511,-1.30233 -0.967159,-0.25067 -2.31562,0.0932 -4.122563,-0.0661 -1.806944,-0.15935 -4.037159,-0.83961 -5.796126,-1.38803 -1.758968,-0.54843 -3.084221,-0.97688 -4.276296,-1.49871 -1.192075,-0.52182 -2.308289,-1.16118 -3.298681,-1.7938 -0.990393,-0.63263 -1.871642,-1.26826 -1.644593,-1.56618 0.227049,-0.29791 1.55866,-0.26176 3.428897,-0.17514 1.870237,0.0866 4.27546,0.22383 6.020541,0.28437 1.745082,0.0605 2.842648,0.0447 3.754459,-0.0185 0.911812,-0.0632 1.649284,-0.17379 2.018002,-0.2291 0.368719,-0.0553 0.368719,-0.0553 0.665025,-0.28549 z"
       id="path5"
       inkscape:path-effect="#path-effect5"
       inkscape:original-d="m 79.392284,215.04184 c 0.582526,-0.47331 0.909607,-1.46321 1.769893,-1.37481 0.804888,0.10352 1.427814,0.89926 2.259776,0.99557 0.895682,0.34932 2.029207,-0.081 2.741749,0.64789 0.811709,0.72701 0.925276,1.97036 1.319517,2.95508 0.158069,0.66735 0.506806,1.31861 0.54719,1.99588 0.0028,0.59199 -0.201664,1.07148 -0.76843,1.35428 -0.804627,0.59737 -1.790304,1.32915 -2.461754,1.82765 -0.373031,-0.68676 -0.893141,-1.6443 -1.367654,-2.51789 -1.459806,0.37226 -2.808267,0.71613 -4.207493,1.07295 -2.21466,-0.67551 -4.444874,-1.35577 -6.659517,-2.03127 -1.303293,-0.42135 -2.628547,-0.8498 -3.919051,-1.26702 -1.197516,-0.44509 -2.222059,-1.24449 -3.310644,-1.89631 -0.879999,-0.63473 -1.761248,-1.27036 -2.637399,-1.90231 1.330248,0.0361 2.661858,0.0723 4.004326,0.10872 2.395428,0.182 4.801439,0.30539 7.202565,0.41087 1.09066,-0.0274 2.189683,0.0574 3.274567,-0.0474 0.73745,-0.11062 1.474925,-0.22122 2.212359,-0.33186 z"
       inkscape:label="Hyoid Bone"
       sodipodi:nodetypes="sccccccccccccccccss" /><path
       style="opacity:1;fill:none;fill-opacity:1;stroke:#000000;stroke-width:1;stroke-linecap:round;stroke-linejoin:round;paint-order:stroke fill markers"
       d="m 145.71064,26.996694 c 1.55139,3.848654 3.10524,7.703389 4.36082,11.475295 1.25558,3.771906 2.22823,7.505397 3.76068,11.412352 1.53245,3.906955 3.6297,8.012196 4.99256,11.297305 1.36287,3.28511 2.01318,5.851055 2.21155,7.993702 0.19836,2.142646 -0.0119,4.046698 -0.86894,6.448854 -0.85703,2.402156 -2.6046,5.805309 -4.27729,7.982193 -1.67268,2.176885 -4.0743,4.251452 -4.58253,5.667695 -0.50824,1.416242 0.26269,3.58648 0.92848,5.222988 0.66579,1.636507 1.23471,2.78234 2.49767,3.800657 1.26295,1.018318 3.93661,2.418165 6.65291,3.897035 2.7163,1.47887 5.85644,3.23635 6.60545,3.11973 0.74901,-0.11662 -0.90668,-2.12379 -3.00561,-4.24332 -2.09894,-2.119542 -4.6558,-4.364049 -5.97664,-6.594962 -1.32084,-2.230914 -1.41006,-4.45007 -1.52348,-6.528246 -0.11342,-2.078175 -0.25071,-4.011586 -0.3884,-5.950579"
       id="path6"
       inkscape:path-effect="#path-effect6"
       inkscape:original-d="m 145.71064,26.996694 c 1.76414,3.762896 3.80332,7.421992 4.64844,11.531724 1.18072,3.660049 1.89982,7.459595 2.90527,11.151766 1.57862,4.377594 4.56614,8.028019 6.30221,12.336232 0.77516,2.411273 2.09874,4.806585 1.87725,7.407111 -0.034,1.913814 0.23099,3.870346 -0.62575,5.66663 -1.36815,3.007905 -1.66507,7.155988 -4.60645,8.970429 -1.99427,1.722696 -4.39589,3.797259 -5.94361,5.134216 0.53125,1.495531 1.30218,3.665768 2.04013,5.743178 0.59363,1.195606 1.16255,2.341439 1.64169,3.306446 2.04677,1.071625 4.72043,2.471474 7.01292,3.671754 3.14718,1.74483 6.27998,3.51543 9.42038,5.27241 -1.09475,-2.44222 -2.99946,-4.24397 -4.95433,-6.00607 -2.54134,-2.230879 -5.0982,-4.475387 -7.65057,-6.715957 -0.0893,-2.221259 -0.17854,-4.440415 -0.2677,-6.658074 -0.13767,-1.938692 -0.27496,-3.872103 -0.41265,-5.811096"
       inkscape:label="Frontal and Nasal Bones"
       sodipodi:nodetypes="cccccccccccccccc" /><path
       style="display:inline;opacity:1;fill:none;fill-opacity:1;stroke:#000000;stroke-width:1;stroke-linecap:round;stroke-linejoin:round;paint-order:stroke fill markers"
       d="m 83.542186,140.75833 c -0.859896,0.24254 -1.71979,0.48507 -2.877357,0.55122 -1.157567,0.0661 -2.612747,-0.0441 -4.023873,-0.52918 -1.411126,-0.48508 -2.778112,-1.34495 -4.045919,-2.51355 -1.267806,-1.16859 -2.43636,-2.64582 -3.351383,-4.33255 -0.915023,-1.68674 -1.576468,-3.58288 -2.050516,-5.18142 -0.474048,-1.59854 -0.760674,-2.89938 -1.080381,-3.91362 -0.319706,-1.01424 -0.672482,-1.74184 -1.146532,-2.3592 -0.474051,-0.61737 -1.069354,-1.12448 -1.708769,-1.44418 -0.639415,-0.31971 -1.32291,-0.452 -1.962323,-0.52916 -0.639414,-0.0772 -1.234718,-0.0992 -1.830036,0.0772 -0.595317,0.1764 -1.19062,0.55122 -1.675693,0.91502 -0.485073,0.36381 -0.85989,0.71658 -1.201647,1.13551 -0.341757,0.41893 -0.650431,0.90399 -0.815797,1.45521 -0.165365,0.55122 -0.187415,1.16857 -0.187415,1.74184 1e-6,0.57327 0.02205,1.10242 0.187419,1.59852 0.165368,0.4961 0.474042,0.95911 0.892971,1.44418 0.418929,0.48508 0.948085,0.99219 1.422135,1.58751 0.474049,0.59532 0.892963,1.27881 1.21267,1.92925 0.319708,0.65044 0.54019,1.26779 0.870923,2.37024 0.330734,1.10244 0.771698,2.68991 1.344969,5.12631 0.573271,2.43641 1.278812,5.72159 1.995399,9.30453 0.716586,3.58293 1.444176,7.46341 2.10564,11.22274 0.661465,3.75932 1.256766,7.39727 1.730814,10.24156 0.474049,2.84429 0.826819,4.89477 1.047307,6.54843 0.220487,1.65366 0.308679,2.9104 0.496096,4.01284 0.187416,1.10244 0.474042,2.05051 0.892972,3.03168 0.41893,0.98118 0.970135,1.9954 1.532379,2.88837 0.562244,0.89298 1.135492,1.66466 1.763887,2.51355 0.628395,0.84888 1.311887,1.7749 1.973353,2.51353 0.661465,0.73864 1.300858,1.28984 2.855312,2.06155 1.554453,0.77172 4.023847,1.76388 6.757903,3.03169 2.734057,1.26781 5.732612,2.81119 8.687154,4.29948 2.954543,1.4883 5.864902,2.92143 9.326572,4.65226 3.46167,1.73084 7.47444,3.75927 10.60536,5.34678 3.13093,1.58751 5.37984,2.73402 6.80199,3.42855 1.42214,0.69454 2.01744,0.93707 3.07579,1.3119 1.05835,0.37483 2.57967,0.88193 4.54202,1.42213 1.96235,0.5402 4.3656,1.11345 6.5815,1.59853 2.21591,0.48507 4.24434,0.88194 5.96415,1.1355 1.7198,0.25356 3.13089,0.3638 4.05694,0.47404 0.92604,0.11025 1.367,0.22049 1.9513,0.42995 0.58429,0.20947 1.31188,0.51814 2.21589,0.7276 0.904,0.20947 1.98436,0.31971 2.88836,0.28663 0.904,-0.0331 1.63159,-0.20946 2.41432,-0.57327 0.78274,-0.3638 1.62057,-0.91501 2.50253,-1.68672 0.88195,-0.77171 1.80797,-1.76388 2.45841,-2.87734 0.65044,-1.11347 1.02525,-2.34817 1.08037,-3.54983 0.0551,-1.20166 -0.20946,-2.37021 -0.52916,-3.627 -0.31971,-1.25678 -0.69453,-2.60172 -1.03629,-3.82543 -0.34176,-1.22371 -0.65043,-2.32612 -0.85989,-3.43958 -0.20947,-1.11347 -0.31971,-2.23793 -0.26458,-3.43959 0.0551,-1.20166 0.2756,-2.48045 0.48507,-3.59391 0.20946,-1.11347 0.40789,-2.06154 0.59531,-2.71198 0.18741,-0.65044 0.3638,-1.00321 0.0551,-1.19062 -0.30869,-0.1874 -1.10242,-0.20944 -1.67569,-0.3307 -0.57327,-0.12126 -0.92604,-0.34175 -1.2237,-0.51813 -0.29765,-0.17639 -0.54018,-0.30868 -0.79374,0.011 -0.25357,0.31971 -0.51815,1.0914 -0.92605,1.98437 -0.4079,0.89298 -0.95911,1.9072 -1.48828,2.87735 -0.52918,0.97015 -1.03628,1.89617 -1.6316,2.97656 -0.59532,1.0804 -1.27881,2.31509 -1.79696,3.35139 -0.51814,1.03629 -0.87091,1.87412 -1.21267,2.71198 -0.34176,0.83785 -0.67248,1.67568 -1.01424,2.51354 -0.34175,0.83785 -0.69452,1.67568 -1.05833,2.59071 -0.36381,0.91503 -0.73863,1.9072 -1.01424,2.83325 -0.2756,0.92605 -0.45199,1.78593 -0.52917,2.59071 -0.0772,0.80478 -0.0551,1.55442 0.12124,2.30408 0.17638,0.74966 0.5071,1.4993 1.08038,2.16076 0.57327,0.66146 1.38905,1.23472 2.20485,1.80798"
       id="path7"
       inkscape:path-effect="#path-effect7"
       inkscape:original-d="m 83.542186,140.75833 c -0.859895,0.24254 -1.719791,0.48507 -2.579687,0.72761 -1.455237,-0.11025 -2.910417,-0.22049 -4.365625,-0.33073 -1.367041,-0.85992 -2.734027,-1.7198 -4.101042,-2.57969 -1.168598,-1.47729 -2.337151,-2.95452 -3.505729,-4.43177 -0.661471,-1.89622 -1.322916,-3.79236 -1.984375,-5.68854 -0.286636,-1.3009 -0.573264,-2.60174 -0.859896,-3.90261 -0.352784,-0.72761 -0.705556,-1.45521 -1.058333,-2.18281 -0.595323,-0.50713 -1.190625,-1.01424 -1.785937,-1.52135 -0.68352,-0.1323 -1.367015,-0.26459 -2.050521,-0.39688 -0.595323,-0.022 -1.190625,-0.0441 -1.785938,-0.0661 -0.595323,0.37483 -1.190625,0.74965 -1.785937,1.12447 -0.374833,0.35279 -0.749652,0.70556 -1.124479,1.05834 -0.308687,0.48508 -0.61736,0.97014 -0.926042,1.45521 -0.02204,0.61737 -0.0441,1.23472 -0.06615,1.85208 0.02204,0.52918 0.0441,1.05833 0.06615,1.5875 0.308687,0.46303 0.61736,0.92604 0.926042,1.38906 0.529177,0.50713 1.058333,1.01424 1.5875,1.52136 0.418933,0.68352 0.837848,1.36701 1.256771,2.05052 0.22049,0.61737 0.440973,1.23472 0.661458,1.85208 0.440981,1.58753 0.881943,3.175 1.322917,4.7625 0.705569,3.28531 1.41111,6.57049 2.116666,9.85573 0.72762,3.88063 1.455209,7.76111 2.182813,11.64167 0.595325,3.63809 1.190625,7.27604 1.785937,10.91406 0.352785,2.05056 0.705557,4.10104 1.058333,6.15156 0.0882,1.2568 0.17639,2.51354 0.264584,3.77031 0.286639,0.94811 0.573265,1.89618 0.859896,2.84427 0.551227,1.01426 1.102431,2.02848 1.653645,3.04271 0.573276,0.77172 1.146527,1.5434 1.719792,2.31511 0.683522,0.92606 1.367015,1.85208 2.050521,2.77812 0.639424,0.55123 1.278818,1.10243 1.918229,1.65365 2.469494,0.99221 4.93889,1.98437 7.408333,2.97656 2.998671,1.54343 5.997223,3.08681 8.995833,4.63021 2.910475,1.43319 5.820834,2.86632 8.731255,4.29948 4.01292,2.02851 8.02569,4.05694 12.03854,6.08541 2.249,1.14655 4.49791,2.29306 6.74687,3.43959 0.59533,0.24254 1.19063,0.48507 1.78594,0.7276 1.52139,0.50713 3.04271,1.01424 4.56406,1.52135 2.40335,0.57328 4.8066,1.14653 7.2099,1.7198 2.02851,0.39688 4.05694,0.79375 6.08541,1.19062 1.41114,0.11025 2.82223,0.22049 4.23334,0.33073 0.44098,0.11025 0.88194,0.22049 1.32291,0.33073 0.72762,0.30869 1.45521,0.61736 2.18282,0.92604 1.0804,0.11025 2.16076,0.22049 3.24114,0.33073 0.72762,-0.17639 1.45521,-0.35278 2.18281,-0.52917 0.83787,-0.55122 1.6757,-1.10243 2.51355,-1.65364 0.92606,-0.99221 1.85208,-1.98438 2.77812,-2.97656 0.37484,-1.23475 0.74965,-2.46945 1.12448,-3.70417 -0.26459,-1.1686 -0.52917,-2.33715 -0.79375,-3.50573 -0.37483,-1.34499 -0.74965,-2.68993 -1.12448,-4.0349 -0.30869,-1.10245 -0.61736,-2.20486 -0.92604,-3.30729 -0.11024,-1.1245 -0.22049,-2.24896 -0.33073,-3.37344 0.22049,-1.27884 0.44097,-2.55763 0.66146,-3.83645 0.19844,-0.94811 0.39687,-1.89618 0.59531,-2.84427 0.17639,-0.35279 0.35278,-0.70556 0.52917,-1.05834 -0.79377,-0.022 -1.5875,-0.0441 -2.38125,-0.0661 -0.35279,-0.22049 -0.70556,-0.44098 -1.05834,-0.66146 -0.24253,-0.1323 -0.48506,-0.26458 -0.7276,-0.39688 -0.26459,0.77172 -0.52917,1.54341 -0.79375,2.31511 -0.55122,1.01425 -1.10243,2.02847 -1.65365,3.04271 -0.50712,0.92606 -1.01423,1.85208 -1.52135,2.77812 -0.68352,1.23475 -1.36701,2.46944 -2.05052,3.70417 -0.35279,0.83786 -0.70556,1.67569 -1.05833,2.51354 -0.33074,0.83786 -0.66146,1.67569 -0.99219,2.51354 -0.35279,0.83786 -0.70556,1.67569 -1.05833,2.51354 -0.37484,0.99221 -0.74966,1.98438 -1.12448,2.97656 -0.1764,0.85992 -0.35278,1.7198 -0.52917,2.57969 0.022,0.74967 0.0441,1.49931 0.0661,2.24896 0.33073,0.74967 0.66145,1.49931 0.99218,2.24896 0.81582,0.57327 1.6316,1.14653 2.4474,1.71979"
       inkscape:label="Mandibular Border" /><path
       style="opacity:1;fill:none;fill-opacity:1;stroke:#000000;stroke-width:1;stroke-linecap:round;stroke-linejoin:round;paint-order:stroke fill markers"
       d="m 155.575,202.20781 c 0.53608,1.8935 1.07215,3.78699 1.43471,5.37014 0.36256,1.58316 0.55417,2.87305 0.5952,3.97335 0.041,1.10029 -0.0678,2.03244 -0.27319,2.81063 -0.20538,0.77819 -0.50997,1.42734 -0.96165,2.13487 -0.45167,0.70753 -1.05413,1.47858 -1.74701,2.10154 -0.69287,0.62296 -1.51909,1.12505 -2.38619,1.40456 -0.8671,0.2795 -1.90058,0.38821 -2.77446,0.27246 -0.87388,-0.11575 -1.77028,-0.4764 -2.33506,-1.03557 -0.56478,-0.55918 -0.92964,-1.4033 -1.07089,-2.30468 -0.14126,-0.90138 -0.0942,-1.94211 0.078,-2.9483 0.17216,-1.00619 0.46988,-1.9903 0.83057,-3.09368 0.36069,-1.10337 0.78477,-2.32735 1.18766,-3.53606 0.40289,-1.2087 0.78551,-2.40482 1.16505,-3.38796 0.37953,-0.98313 0.75933,-1.76083 1.083,-2.33433 0.32367,-0.5735 0.59927,-0.95934 0.87488,-1.34519"
       id="path8"
       inkscape:path-effect="#path-effect8"
       inkscape:original-d="m 155.575,202.20781 c 0.58289,1.88025 1.15275,3.76417 1.60817,5.68028 0.39504,1.24243 0.45466,2.55193 0.57051,3.84059 -0.0605,0.92843 0.0613,1.8875 -0.32242,2.76159 -0.16668,0.71471 -0.45447,1.37175 -0.91364,1.94717 -0.52469,0.82513 -1.20356,1.53647 -1.80247,2.30683 -0.79393,0.46227 -1.43417,1.27039 -2.36058,1.43454 -0.98268,0.12372 -1.96825,0.68795 -2.94763,0.31006 -0.87953,-0.17734 -1.82511,-0.41575 -2.497,-1.0046 -0.34969,-0.80266 -1.06559,-1.49504 -1.04177,-2.41019 -0.10857,-1.04738 -0.23177,-2.09581 0.14054,-3.10886 0.19391,-1.01605 0.46408,-2.00849 0.89297,-2.95176 0.48308,-1.20323 0.99005,-2.39849 1.27124,-3.66902 0.32062,-1.2159 0.63613,-2.43349 1.14722,-3.58634 0.33462,-0.79286 0.54038,-1.65555 1.12861,-2.31097 0.27561,-0.38585 0.55121,-0.77169 0.82682,-1.15754"
       inkscape:label="Inner Mandibular Border" /><path
       style="opacity:1;fill:none;fill-opacity:1;stroke:#000000;stroke-width:1;stroke-linecap:round;stroke-linejoin:round;paint-order:stroke fill markers"
       d="m 144.90017,71.842047 c -1.30962,1.216077 -2.61924,2.432154 -4.09857,4.554493 -1.47933,2.122338 -3.14373,5.179127 -4.40164,8.256283 -1.2579,3.077157 -2.13236,6.217207 -2.69389,8.691327 -0.56152,2.47412 -0.81109,4.285412 -0.924,6.653181 -0.1129,2.367769 -0.0894,5.321569 0.22066,7.708819 0.31003,2.38725 0.91919,4.28241 1.63059,5.72298 0.71139,1.44057 1.55389,2.51124 2.78629,3.45623 1.2324,0.94498 3.11288,1.89381 4.60262,2.07054 1.48975,0.17674 3.25247,-0.4245 4.65521,-0.90295"
       id="path9"
       inkscape:path-effect="#path-effect9"
       inkscape:original-d="m 144.90017,71.842047 c -1.30962,1.216077 -2.61924,2.432154 -3.92886,3.648231 -1.78947,2.95214 -3.70375,5.872867 -4.95493,9.10012 -0.9838,3.109095 -2.01975,6.204171 -2.62216,9.415825 -0.45727,1.783443 -0.81458,3.57989 -0.74837,5.431417 -0.12863,2.92867 -0.10195,5.88245 0.0701,8.799 0.57659,1.86326 0.63407,3.93574 1.78903,5.5659 0.5889,1.26454 1.5,2.28122 2.5257,3.20974 1.32456,1.40623 3.20442,2.35628 5.12155,2.58415 1.64282,0.36613 3.33999,-0.4273 4.52521,-1.54348"
       inkscape:label="Orbital Rim" /><path
       style="opacity:1;fill:none;fill-opacity:1;stroke:#000000;stroke-width:1;stroke-linecap:round;stroke-linejoin:round;paint-order:stroke fill markers"
       d="m 144.99726,50.805905 c -0.74122,0.371335 -1.49094,1.164166 -1.90404,1.969357 -0.4131,0.805191 -0.65094,1.811654 -0.76221,3.182129 -0.11127,1.370475 -0.10506,3.146234 0.008,4.871295 0.11294,1.725061 0.33363,3.411728 0.61887,4.668354 0.28523,1.256627 0.6686,2.172181 1.27947,2.955888 0.61086,0.783706 1.52386,1.597843 2.44388,2.238544 0.92001,0.640701 1.86425,1.123312 2.90963,1.441786 1.04538,0.318474 2.1919,0.472813 3.14732,0.316294 0.95541,-0.15652 1.85098,-0.704165 2.08294,-1.413431 0.23196,-0.709266 0.033,-1.879699 -0.28895,-3.995159 -0.3219,-2.115461 -0.78204,-5.266787 -1.1994,-7.399228 -0.41735,-2.132442 -0.79866,-3.270139 -1.78326,-4.64021 -0.9846,-1.370071 -2.58603,-3.004461 -3.79199,-3.803056 -1.20596,-0.798595 -2.01892,-0.763898 -2.76013,-0.392563 z"
       id="path10"
       inkscape:path-effect="#path-effect10"
       inkscape:original-d="m 144.92552,50.469266 c -0.66036,0.716596 -1.85133,1.092171 -2.01331,2.129078 -0.19893,0.989944 -0.64065,1.948228 -0.69867,2.956546 0.0121,1.772955 -0.0245,3.548864 0.0186,5.319945 0.23358,1.677093 0.35064,3.377319 0.65939,5.039488 0.35071,0.839655 0.24346,1.960641 1.05421,2.517677 0.91233,0.793435 1.75774,1.683371 2.71114,2.417566 0.94423,0.482608 1.88847,0.965217 2.8327,1.447825 1.14653,0.154342 2.29305,0.30868 3.43958,0.463021 0.7592,-0.475728 2.00559,-0.449663 2.29857,-1.405599 0.0651,-1.068744 -0.45397,-2.184757 -0.55811,-3.282493 -0.45225,-3.147875 -0.86638,-6.305919 -1.37872,-9.442314 -0.38402,-1.117897 -0.70675,-2.275226 -1.12899,-3.368542 -1.70033,-1.528897 -3.18808,-3.274668 -4.79753,-4.896287 -0.81295,0.0347 -1.62591,0.06939 -2.43886,0.104089 z"
       inkscape:label="Frontal Sinus" /><path
       style="opacity:1;fill:none;fill-opacity:1;stroke:#000000;stroke-width:1;stroke-linecap:round;stroke-linejoin:round;paint-order:stroke fill markers"
       d="m 98.533364,119.40154 c -0.01559,-1.56686 -0.09354,-3.09475 -0.179293,-4.16272 -0.08575,-1.06797 -0.179293,-1.676 -0.436548,-2.019 -0.257255,-0.343 -0.678189,-0.42095 -1.06796,-0.37417 -0.389771,0.0468 -0.748352,0.21827 -1.052372,0.56127 -0.30402,0.343 -0.553465,0.85748 -0.701579,1.75396 -0.148114,0.89648 -0.194885,2.17489 -0.155907,3.68721 0.03898,1.51232 0.163701,3.25845 0.342996,5.15274 0.179295,1.89429 0.413152,3.93664 0.623628,5.72959 0.210476,1.79294 0.397561,3.33639 0.561265,4.49012 0.163705,1.15372 0.304019,1.91765 0.35079,2.57246 0.04677,0.65482 1e-6,1.20048 0.109139,1.06795 0.109138,-0.13253 0.374175,-0.94323 0.576856,-1.76175 0.202681,-0.81852 0.342994,-1.64481 0.483312,-2.86091 0.140319,-1.21609 0.280633,-2.8219 0.358586,-4.39658 0.07795,-1.57468 0.09354,-3.11813 0.124724,-4.6928 0.03118,-1.57468 0.07795,-3.1805 0.06236,-4.74737 z"
       id="path11"
       inkscape:path-effect="#path-effect11"
       inkscape:original-d="m 98.595726,119.36257 c -0.07795,-1.52789 -0.155905,-3.05578 -0.233859,-4.58367 -0.09355,-0.60805 -0.18709,-1.21608 -0.280633,-1.82412 -0.420958,-0.078 -0.841899,-0.15591 -1.262849,-0.23386 -0.358595,0.1715 -0.717174,0.343 -1.075758,0.5145 -0.249458,0.5145 -0.498904,1.02898 -0.748356,1.54348 -0.04677,1.27846 -0.09354,2.55687 -0.140316,3.83531 0.124727,1.7462 0.249451,3.49233 0.374176,5.23849 0.233865,2.04242 0.467722,4.08477 0.701582,6.12715 0.187093,1.54351 0.374179,3.08696 0.561266,4.63045 0.140319,0.76396 0.280633,1.52789 0.42095,2.29183 -0.04677,0.54569 -0.09354,1.09135 -0.140317,1.63703 0.265049,-0.81074 0.530085,-1.62144 0.795129,-2.43216 0.140319,-0.82632 0.280633,-1.65261 0.420949,-2.47892 0.140319,-1.60588 0.280633,-3.21169 0.42095,-4.81753 0.01558,-1.54352 0.03118,-3.08697 0.04677,-4.63045 0.04677,-1.60587 0.09355,-3.21169 0.140316,-4.81753 z"
       inkscape:label="Pterygomaxillary Suture" /><path
       style="opacity:1;fill:none;fill-opacity:1;stroke:#008080;stroke-width:1;stroke-linecap:round;stroke-linejoin:round;paint-order:stroke fill markers"
       d="m 157.15448,26.379502 c 0.83378,2.022122 1.67729,4.067831 2.45229,6.457786 0.77499,2.389954 1.50919,5.204373 1.9552,7.567664 0.44601,2.363291 0.625,4.37663 1.25517,7.442621 0.63017,3.065991 1.71659,7.242118 2.57123,10.480398 0.85464,3.23828 1.47687,5.536328 1.83453,7.349045 0.35766,1.812717 0.45255,3.173672 0.47633,4.703996 0.0238,1.530324 -0.0217,3.238596 -0.2158,5.013311 -0.19407,1.774715 -0.53979,3.613343 -0.89549,5.023169 -0.35569,1.409825 -0.81512,2.65719 -0.80485,3.66734 0.0103,1.01015 0.33764,2.249761 0.89723,3.639022 0.5596,1.389261 1.36596,2.98446 2.33307,4.666839 0.96711,1.68238 2.10537,3.467984 4.5936,6.644058 2.48823,3.176079 6.35549,7.785359 8.99176,11.031169 2.63628,3.24582 4.05523,5.14425 5.67726,7.20301 1.62203,2.05876 3.44387,4.2736 4.70778,5.99811 1.26391,1.72452 1.98233,2.98127 2.52111,4.11079 0.53878,1.12951 0.90999,2.15769 1.01349,3.24259 0.1035,1.08489 -0.0828,2.42482 -0.47722,3.59173 -0.3944,1.16692 -1.04658,2.31687 -1.76404,3.29034 -0.71746,0.97348 -1.53438,1.83675 -2.46211,2.58115 -0.92773,0.7444 -1.93954,1.34763 -3.77732,2.22558 -1.83779,0.87794 -4.47894,2.01738 -6.76748,2.96088 -2.28854,0.9435 -4.26236,1.70557 -5.35745,2.39836 -1.09508,0.69279 -1.38912,1.34044 -1.59485,2.3137 -0.20573,0.97327 -0.29863,2.21005 -0.29647,3.80714 0.002,1.5971 0.1006,3.53879 0.22324,5.15079 0.12265,1.61201 0.27243,2.92083 0.76819,4.77391 0.49577,1.85309 1.70561,5.34197 1.70131,6.41512 -0.004,1.07314 -0.54996,1.89427 -1.29096,2.56505 -0.741,0.67077 -1.80597,1.3527 -2.8689,1.83455 -1.06293,0.48186 -2.29554,0.83849 -2.87622,1.08219 -0.58068,0.2437 -1.00955,0.87514 -0.5448,1.3054 0.46475,0.43027 1.42047,1.22437 2.22618,2.0543 0.80572,0.82993 1.43718,1.6735 1.7974,2.43564 0.36021,0.76213 0.46288,1.59588 0.36991,2.34359 -0.093,0.74772 -0.40421,1.64253 -1.42075,3.14897 -1.01654,1.50643 -2.79024,3.77494 -3.98307,5.37942 -1.19283,1.60448 -1.81319,2.55819 -2.08819,3.51177 -0.27499,0.95358 -0.20752,2.08989 0.33119,3.67693 0.53871,1.58703 1.56208,3.73536 2.29761,5.44127 0.73554,1.70591 1.20603,3.02278 1.55378,4.28955 0.34775,1.26677 0.59383,2.5574 0.6848,3.91296 0.091,1.35556 0.0384,2.83506 -0.0422,4.02257 -0.0805,1.18751 -0.19469,2.12956 -0.5711,3.31115 -0.3764,1.18159 -1.04726,2.74172 -2.03169,4.3295 -0.98443,1.58777 -2.39995,3.39832 -3.96081,4.8105 -1.56086,1.41218 -3.44805,2.63761 -5.10111,3.54763 -1.65307,0.91002 -3.20602,1.57557 -4.76116,1.96114 -1.55515,0.38558 -3.27522,0.55528 -8.67649,0.51079 -5.40126,-0.0445 -14.516,-0.30006 -21.09177,-0.45961 -6.57576,-0.15954 -10.70401,-0.22453 -13.24455,-0.14103 -2.54053,0.0835 -3.60508,0.2988 -4.35397,0.63 -0.74889,0.33119 -1.03455,0.73284 -1.37552,1.6421 -0.34097,0.90925 -0.71728,2.31074 -1.01394,4.1535 -0.29665,1.84276 -0.5241,4.16487 -0.75456,7.71526 -0.23045,3.55039 -0.46476,8.34772 -0.5654,11.10172 -0.10063,2.754 -0.0694,3.50236 -0.0382,4.25071"
       id="path12"
       inkscape:label="Soft Tissue Profile"
       sodipodi:nodetypes="ccccccccccccccccccccccccccccccccccccccccaccccccccccccccccccccccccccccccccc"
       inkscape:path-effect="#path-effect12"
       inkscape:original-d="m 157.15448,26.379502 c 0.82184,2.027046 1.95091,3.95501 2.50231,6.068695 0.72497,2.779045 1.90117,5.478159 2.17491,8.337133 0.18975,1.981716 0.048,4.023568 0.52911,5.951763 1.04469,4.187349 2.08173,8.376321 3.25943,12.52909 0.65019,2.292645 1.15216,4.623254 1.86797,6.898897 0.40971,1.302527 0.27498,2.679491 0.28064,4.025343 0.007,1.722321 -0.0391,3.430577 -0.13744,5.159547 -0.10596,1.863461 -0.49156,3.694591 -1.02899,5.472334 -0.31047,1.027001 -1.41193,2.037893 -1.12838,3.063583 0.33324,1.205417 0.40596,2.51228 0.95884,3.630687 0.79279,1.603745 1.44833,3.275183 2.42046,4.788312 1.13343,1.764188 2.03772,3.698939 3.3822,5.305705 3.85358,4.605349 8.02436,8.959979 11.57903,13.800709 1.40437,1.91246 2.72154,3.88697 4.26067,5.70038 1.85698,2.1879 3.57531,4.48787 5.46795,6.64748 0.95471,1.08937 1.37485,2.51664 2.13398,3.733 0.58446,0.93649 0.59996,2.0931 1.10499,3.06065 0.66119,1.26673 -0.13003,2.52255 -0.52034,3.74178 -0.38834,1.21305 -1.02479,2.37192 -1.87673,3.30913 -0.80793,0.8888 -1.47757,1.89145 -2.47309,2.6134 -0.96969,0.70321 -1.97537,1.31671 -3.06943,1.82996 -2.60691,1.22295 -5.27436,2.30143 -7.92788,3.42021 -1.91021,0.80538 -4.05874,1.11492 -5.79974,2.23921 -0.71806,0.4637 -0.81277,1.20185 -0.90913,2.00245 -0.14953,1.24228 -0.29894,2.47482 -0.28063,3.73593 0.0283,1.94507 0.0447,3.89092 0.2952,5.82314 0.16622,1.28187 0.0824,2.61743 0.44138,3.85688 0.72007,2.48616 4.06077,5.23613 2.54283,7.33291 -0.52457,0.7246 -0.7325,1.77017 -1.49449,2.24896 -1.0335,0.64939 -1.93093,1.59297 -3.08612,1.97611 -1.11993,0.37144 -2.2037,1.2425 -3.3986,0.98333 -0.59552,-0.12916 -1.36889,0.26829 -0.59513,0.87623 0.98979,0.77768 2.03638,1.46241 2.89945,2.40914 0.71779,0.78736 1.179,1.75838 1.90458,2.54432 0.56591,0.61299 0.41196,1.47834 0.27287,2.21588 -0.15587,0.82663 -0.31221,1.77533 -0.84313,2.42391 -1.82534,2.22982 -3.59914,4.49825 -5.32326,6.80827 -0.67122,0.89933 -1.29416,1.85137 -1.83873,2.82679 -0.56372,1.00973 -0.29295,2.13397 0.1871,3.15128 1.00777,2.13564 2.27906,4.16587 3.04749,6.39755 0.44758,1.29986 1.14745,2.53478 1.38855,3.88649 0.22498,1.2613 0.73448,2.50171 0.72059,3.77932 -0.0161,1.48218 0.0452,2.96573 -0.15786,4.44089 -0.12291,0.89275 0.0277,1.86689 -0.32594,2.68939 -0.64946,1.51035 -0.93574,3.23585 -1.94836,4.53105 -1.34081,1.71498 -2.19181,3.96688 -4.02241,5.14494 -1.86057,1.19735 -3.53805,2.74574 -5.56881,3.61607 -1.48015,0.63434 -2.83659,1.75841 -4.44043,1.90304 -1.70437,0.15369 -3.40258,0.54504 -5.11133,0.50427 -9.1153,-0.21747 -18.2266,-0.59575 -27.34273,-0.76664 -4.03758,-0.0757 -8.15277,-0.97028 -12.11397,-0.1907 -1.13432,0.22323 -2.23465,0.26161 -3.39683,0.68697 -0.58692,0.21482 -0.74956,0.70397 -0.8954,1.25897 -0.36341,1.38305 -0.96383,2.72437 -1.11287,4.14468 -0.24365,2.32182 -0.6332,4.62805 -0.68261,6.96907 -0.10097,4.78367 -0.89942,9.55345 -0.7001,14.33419 0.0312,0.74835 0.0624,1.49671 0.0936,2.24506" /><path
       style="opacity:1;fill:none;fill-opacity:1;stroke:#000000;stroke-width:1;stroke-linecap:round;stroke-linejoin:round;paint-order:stroke fill markers"
       d="m 36.95713,121.22543 c -0.531348,0.58693 -0.905572,1.51443 -0.984282,2.3897 -0.07871,0.87526 0.08913,1.87252 0.525865,2.57385 0.436736,0.70133 1.183488,1.25815 2.035367,1.42878 0.85188,0.17063 1.900717,0.043 2.733963,-0.35358 0.833245,-0.39655 1.573824,-1.20713 1.779018,-2.1009 0.205193,-0.89377 -0.01419,-2.0968 -0.412133,-2.90731 -0.397941,-0.8105 -1.032396,-1.35473 -1.658499,-1.66311 -0.626103,-0.30838 -1.349951,-0.44793 -2.060904,-0.35855 -0.710954,0.0894 -1.427047,0.4042 -1.958395,0.99112 z"
       id="path13"
       inkscape:path-effect="#path-effect13"
       inkscape:original-d="m 36.772382,120.95333 c -0.346601,0.85903 -0.720823,1.78653 -1.039806,2.57711 -0.0374,0.99344 -0.419283,2.08321 0.474,2.81637 0.552476,0.78006 0.983331,1.76053 2.108127,1.57196 1.119124,0.26291 2.174172,0.18629 3.179811,-0.38701 0.909198,-0.38782 1.582376,-1.25998 1.961196,-2.14657 0.02038,-1.1565 -0.05302,-2.38615 -0.625683,-3.43102 -0.553859,-0.55438 -0.965965,-1.35782 -1.79192,-1.53709 -0.68778,-0.1326 -1.411628,-0.27215 -2.117442,-0.40822 -0.716095,0.31482 -1.43219,0.62964 -2.148283,0.94447 z"
       inkscape:label="External Auditory Meatus"
       sodipodi:nodetypes="cccccccccc" /><path
       id="path15"
       style="display:inline;opacity:1;fill:none;fill-opacity:1;stroke:#800080;stroke-width:1;stroke-linecap:round;stroke-linejoin:round;paint-order:stroke fill markers"
       inkscape:path-effect="#path-effect15"
       inkscape:original-d="m 157.21093,170.84901 c 0.24676,-1.13003 0.84154,-2.20365 1.97738,-2.6306 0.61122,-0.42512 1.28876,-0.59286 2.02141,-0.54677 1.02943,-0.12539 1.99181,0.24232 2.89976,0.69292 m -0.26658,14.60819 c 0.70156,-1.65618 1.20889,-3.37966 1.73057,-5.09817 -0.0673,-2.21298 -0.0948,-4.42932 -0.48234,-6.61534 -0.23372,-1.41612 -0.88309,-2.73576 -1.33593,-4.09549 -1.01245,-2.58875 -1.80991,-5.27242 -3.20097,-7.69403 -1.30006,-2.71557 -3.074,-5.16895 -4.38196,-7.8811 -0.47706,-0.5098 -0.89119,-1.2801 -1.63703,-1.33299 -1.75338,0.38199 -0.7829,2.79777 -0.81266,4.1276 0.4466,4.31181 0.79799,8.66066 1.90889,12.86234 0.46736,1.16155 0.8266,2.38425 1.47626,3.44945 0.30765,0.76787 -0.44953,1.47254 -0.2104,2.29469 -0.1174,0.87142 0.38857,1.58675 0.75996,2.33578 0.77946,1.2574 1.97969,2.15847 3.0051,3.2039 0.64147,1.15811 0.78437,2.52026 1.37394,3.68331 0.36755,0.73 1.01631,1.20044 1.80657,0.76005 z"
       d="m 157.21093,170.84901 c 0.63184,-0.84057 1.36224,-1.81225 2.00816,-2.31294 0.64592,-0.5007 1.31955,-0.68291 2.12783,-0.6607 0.80828,0.0222 1.8018,0.25961 2.76256,0.48919 m -0.23529,13.65077 c 0.5453,-0.74118 1.1223,-2.44101 1.33036,-4.39396 0.20806,-1.95295 0.0472,-4.15956 -0.25312,-5.93527 -0.30028,-1.7757 -0.7518,-3.15988 -1.50775,-5.12404 -0.75596,-1.96417 -1.82538,-4.53469 -3.08758,-7.12674 -1.2622,-2.59206 -2.72308,-5.2195 -3.72169,-6.75152 -0.99861,-1.53202 -1.62479,-2.0419 -1.9309,-1.885 -0.3061,0.1569 -0.72777,2.29858 -0.53648,5.08338 0.1913,2.78479 0.83037,7.09094 1.39366,9.80256 0.56328,2.71162 1.06117,3.87498 1.27048,4.80938 0.20931,0.9344 0.13892,1.70204 0.22511,2.47555 0.0862,0.7735 0.34509,1.56922 0.96915,2.49145 0.62407,0.92222 1.63541,2.00046 2.36498,3.14772 0.72956,1.14725 1.19306,2.38981 1.7061,3.11742 0.51303,0.7276 1.23239,1.03024 1.77768,0.28907 z"
       inkscape:label="Maxillary Central" /><path
       id="path17"
       style="opacity:1;fill:none;fill-opacity:1;stroke:#800080;stroke-width:1;stroke-linecap:round;stroke-linejoin:round;paint-order:stroke fill markers"
       inkscape:path-effect="#path-effect17"
       inkscape:original-d="m 154.69894,189.8833 c 0.36505,0.76022 1.05182,1.1331 1.88613,1.08823 0.93087,-0.0581 1.9229,-0.0749 2.67416,-0.70238 m -0.18709,-11.41239 c -0.094,1.40646 -0.47945,2.7868 -1.20731,3.99903 -0.38877,1.03522 -1.34813,1.67189 -1.95273,2.55493 -0.36052,0.90182 -1.0534,1.70408 -1.15467,2.68355 -0.13716,0.88796 -0.2279,1.77548 -0.0117,2.66016 -0.12589,0.91659 -0.63767,1.78375 -0.87114,2.69526 -0.73492,2.50866 -1.57884,4.99609 -2.12227,7.5537 -0.11497,1.29891 -0.66178,2.81395 -0.15088,3.99476 0.72373,0.10145 1.15742,-0.57207 1.58326,-1.04814 1.38827,-2.16588 2.59953,-4.43776 3.60731,-6.80535 0.77217,-1.70644 1.14221,-3.56367 1.57856,-5.3788 0.60847,-1.17942 1.54516,-2.12706 2.05213,-3.36175 0.32395,-0.9273 0.50923,-1.92206 0.71042,-2.88488 0.0182,-1.43252 0.10865,-2.87196 0.0614,-4.3005 -0.2198,-1.01904 -0.2226,-2.21503 -1.01149,-2.99339 -0.52389,-0.55769 -0.90178,0.21095 -1.11084,0.63142 z"
       d="m 154.69894,189.8833 c 0.60295,0.34788 1.27961,0.73829 2.02541,0.79703 0.74579,0.0587 1.67793,-0.1861 2.53488,-0.41118 m -0.38559,-10.7549 c -0.1985,0.6575 -0.61261,2.02918 -1.13212,3.10589 -0.51951,1.0767 -1.18044,1.94146 -1.6968,2.81194 -0.51635,0.87047 -0.91586,1.79896 -1.10353,2.67485 -0.18767,0.87589 -0.19157,1.76379 -0.33359,2.63901 -0.14201,0.87522 -0.44418,1.81013 -0.94211,3.51519 -0.49793,1.70506 -1.2074,4.23026 -1.58486,6.13696 -0.37746,1.9067 -0.43538,3.4402 -0.22904,3.86903 0.20635,0.42882 0.8179,0.024 1.67588,-1.27921 0.85798,-1.30318 2.06378,-3.57796 2.92532,-5.60049 0.86154,-2.02252 1.39272,-3.83246 2.0001,-5.29193 0.60737,-1.45947 1.28309,-2.56641 1.74336,-3.60364 0.46027,-1.03724 0.70182,-2.01814 0.82957,-3.21162 0.12775,-1.19349 0.14832,-2.63393 -0.007,-3.83835 -0.1556,-1.20442 -0.5186,-2.27869 -0.75524,-2.70318 -0.23664,-0.42448 -0.85246,-0.0744 -1.02179,0.0218 -0.16932,0.0962 -0.16937,0.0962 -0.36787,0.75374 z"
       inkscape:label="Mandibular Central" /><path
       id="path20"
       style="display:inline;opacity:1;fill:none;fill-opacity:1;stroke:#800080;stroke-width:1;stroke-linecap:round;stroke-linejoin:round;paint-order:stroke fill markers"
       inkscape:path-effect="#path-effect20"
       inkscape:original-d="m 115.5237,162.68568 c 1.19193,-0.79184 2.54848,-0.51234 3.82406,-0.0785 1.70987,0.55415 3.4405,1.04275 5.1387,1.63297 0.37482,0.34176 0.74965,0.68351 1.12448,1.02526 m -5.75469,-13.89062 c 0.64171,-1.02001 1.14494,-2.10051 1.44901,-3.26802 0.44294,-0.9246 1.10841,-2.31371 1.63079,-3.40411 0.1232,1.74657 0.25695,3.64263 0.38463,5.45257 0.0178,0.81004 0.0356,1.61767 0.0534,2.42651 0.0291,0.47963 0.0581,0.95925 0.0872,1.43888 m -9.0098,16.79138 c -0.43654,-0.91985 -0.87308,-1.8397 -1.30962,-2.75955 0.27827,-1.00262 0.20847,-2.1396 0.84191,-3.00512 0.76748,-1.28191 1.54894,-2.55527 2.3386,-3.82362 0.18946,-1.17923 0.19899,-2.36136 0.0585,-3.54592 -0.0867,-1.24946 -0.10372,-2.50904 -0.0848,-3.75931 0.23693,-1.56518 0.40766,-3.13803 0.5408,-4.71522 0.3304,-0.70362 0.49418,-1.51361 0.92809,-2.15116 0.3514,-0.26955 0.55294,-0.82133 1.03634,-0.84228 0.78759,1.16204 0.43793,2.66869 0.81267,3.98149 0.36946,1.80571 0.31836,3.65959 0.68404,5.46649 0.21348,0.7025 0.20232,2.87614 1.05451,1.52542 0.87105,-0.91523 1.59619,-1.95968 2.40663,-2.92858 0.6814,-1.52501 1.4005,-3.03537 1.82441,-4.65669 0.45181,-1.11323 0.90413,-2.22773 1.3561,-3.34136 0.19291,1.52573 0.38583,3.05149 0.57882,4.57783 -0.009,1.30845 0.2489,2.62414 0.16365,3.92302 -0.47991,2.61099 -1.10697,5.20523 -2.00697,7.69988 -0.0572,1.19386 -0.0531,2.3853 0.13898,3.56929 0.22235,1.45759 0.10154,2.93691 0.0147,4.39951 0.15983,1.48766 -0.99685,2.28797 -2.25677,2.74786 -0.94688,0.64055 -1.97116,0.48774 -2.7751,-0.2776 -0.77784,-0.59723 -1.71524,-1.1179 -2.13597,-2.03762 -1.11205,0.52743 -2.32754,0.77393 -3.55469,0.79515 -0.21822,-0.28063 -0.43669,-0.56134 -0.65475,-0.84191 z"
       d="m 115.5237,162.68568 c 1.20768,-0.0248 2.55792,-0.0525 4.04748,0.20667 1.48956,0.25918 3.20248,0.80351 4.2463,1.24653 1.04381,0.44302 1.41863,0.78478 1.79346,1.12653 m -5.75469,-13.89062 c 0.48339,-1.09021 0.96644,-2.17966 1.4292,-3.18614 0.46275,-1.00648 1.12823,-2.39559 1.45102,-2.0675 0.32278,0.32808 0.45653,2.22414 0.52929,3.53413 0.0727,1.30999 0.0905,2.11762 0.11395,2.76186 0.0234,0.64423 0.0525,1.12385 0.0816,1.60348 m -9.22807,16.33146 c -0.21827,-0.45993 -0.65481,-1.37978 -0.73273,-2.34067 -0.0779,-0.9609 0.21235,-1.997 0.73759,-3.11781 0.52523,-1.12081 1.30477,-2.39535 1.70428,-3.62364 0.39952,-1.22828 0.41902,-2.41025 0.41466,-3.6266 -0.004,-1.21635 -0.0328,-2.47567 0.0433,-3.88612 0.076,-1.41044 0.25631,-2.9822 0.50033,-4.12478 0.24403,-1.14258 0.56435,-1.88503 0.88612,-2.3723 0.32177,-0.48727 0.7132,-0.80541 0.99348,-0.29293 0.28028,0.51248 0.56152,1.89036 0.81172,3.46891 0.2502,1.57856 0.47781,3.39756 0.79076,4.59721 0.31294,1.19965 0.96982,2.14987 1.36985,1.66308 0.40003,-0.48678 1.20465,-1.46591 1.90995,-2.73061 0.70529,-1.2647 1.31397,-2.81832 1.84342,-4.14971 0.52945,-1.33139 0.98177,-2.44589 1.30421,-2.23984 0.32244,0.20605 0.51536,1.73181 0.63909,3.14788 0.12373,1.41607 0.17897,2.74022 -0.12796,4.66776 -0.30692,1.92755 -0.97998,4.5098 -1.28988,6.38252 -0.30989,1.87272 -0.26356,3.06251 -0.23797,4.38651 0.0256,1.32399 0.0305,2.80289 -0.29964,3.93905 -0.33019,1.13616 -1.18863,2.1814 -1.9922,2.58398 -0.80356,0.40258 -1.83282,0.29962 -2.62147,-0.0805 -0.78865,-0.38012 -1.53948,-1.09637 -2.465,-1.28952 -0.92552,-0.19315 -2.1356,0.0775 -2.83131,0.0684 -0.69572,-0.009 -0.91408,-0.28988 -1.02316,-0.43013 -0.10907,-0.14025 -0.10915,-0.14025 -0.32742,-0.60017 z"
       inkscape:label="Maxillary Molar"
       sodipodi:nodetypes="cccccccccccccccccccccccccccccccccccc" /><path
       id="path22"
       style="opacity:1;fill:none;fill-opacity:1;stroke:#800080;stroke-width:1;stroke-linecap:round;stroke-linejoin:round;paint-order:stroke fill markers"
       inkscape:path-effect="#path-effect22"
       inkscape:original-d="m 113.72652,177.38344 c 0.26775,0.60198 0.53882,1.20035 1.24388,1.32814 1.92225,0.78542 3.90908,1.40567 5.81872,2.22655 1.27155,0.30346 2.55688,0.75803 3.86748,0.7045 0.34787,-0.10231 0.69573,-0.20463 1.0436,-0.30694 m -16.99958,12.30789 c 0.61229,-1.13013 1.22714,-2.26497 1.84248,-3.40072 0.69165,-2.22582 0.76456,-4.57373 1.34177,-6.82581 0.3742,-1.89191 1.07609,-3.70831 1.81827,-5.47189 -0.0317,-1.83719 0.008,-3.69874 0.57296,-5.46403 0.17913,-1.22733 1.28562,-1.99252 2.42046,-2.27721 1.32008,-0.57216 2.30309,1.24334 3.12204,1.63702 0.64939,-0.37129 1.28798,-0.78265 2.06366,-0.68579 0.52118,-0.16709 0.78861,0.37236 1.15634,0.63252 0.50123,0.4744 0.86233,1.08912 1.43383,1.49152 0.67319,-0.34629 1.41473,-1.27117 1.93365,-0.31142 0.45999,0.43053 0.91211,0.86649 1.07146,1.50411 0.39779,0.55117 0.36483,1.18969 0.329,1.82879 0.0114,0.75149 -0.0191,1.49668 -0.31149,2.20239 -0.17828,1.22454 -0.96496,2.17376 -1.79488,3.04311 -1.21897,0.81918 -1.24969,2.34272 -1.66041,3.62777 -0.79326,2.91831 -1.46673,5.8808 -2.63386,8.67915 -0.56399,1.05224 -1.15154,2.14842 -1.72665,3.22141 -1.14248,0.75188 -2.28943,1.50671 -3.43006,2.25737 0.58003,-2.7181 1.16285,-5.44925 1.74426,-8.17379 -6.2e-4,-1.3886 -10e-4,-2.77969 -0.002,-4.16588 -0.18132,-1.39453 -0.26733,-2.79237 -0.15314,-4.19717 -1.00807,2.43194 -1.88626,4.91936 -3.11804,7.25198 -0.9288,1.52922 -1.87198,3.0821 -2.79464,4.60121 -0.86416,0.12009 -1.74496,0.2425 -2.61744,0.36375 -0.10332,-0.16398 -0.30996,-0.49196 -0.30996,-0.49196 0,0 -0.19881,-0.58517 -0.29776,-0.87643 z"
       d="m 113.72652,177.38344 c 0.42546,0.45428 0.85067,0.90829 2.01672,1.48918 1.16605,0.58088 3.10615,1.32327 4.71812,1.81135 1.61198,0.48809 2.93617,0.72931 3.73964,0.79283 0.80347,0.0635 1.15133,-0.0388 1.4992,-0.14111 m -16.69343,11.74283 c 0.30614,-0.56507 0.92099,-1.69991 1.45216,-3.40474 0.53116,-1.70483 0.97824,-3.97919 1.50377,-6.02584 0.52553,-2.04665 1.13889,-3.89247 1.53477,-5.70459 0.39588,-1.81211 0.58939,-3.65753 1.03778,-4.89271 0.4484,-1.23518 1.41724,-2.14668 2.18932,-2.28694 0.77209,-0.14025 2.28977,0.65553 3.03986,0.75075 0.75009,0.0952 1.44828,-0.1368 1.94846,-0.15757 0.50017,-0.0208 0.93313,0.21605 1.3683,0.57191 0.43516,0.35585 0.91571,0.85574 1.50874,1.04585 0.59303,0.19012 1.46101,0.0503 1.81773,0.27321 0.35672,0.22289 0.71493,0.72575 0.94666,1.27649 0.23174,0.55075 0.34197,1.16351 0.34511,1.83751 0.003,0.67399 -0.10079,1.4088 -0.44351,2.26826 -0.34273,0.85945 -0.96113,1.90792 -1.519,2.98128 -0.55787,1.07336 -1.13973,2.34465 -1.85736,4.39992 -0.71763,2.05528 -1.59764,4.95509 -2.31764,6.92455 -0.72001,1.96947 -1.30756,3.06565 -2.16635,3.97809 -0.8588,0.91243 -2.00575,1.66726 -2.28605,0.68354 -0.2803,-0.98372 0.30252,-3.71487 0.59289,-5.77144 0.29037,-2.05657 0.28971,-3.44766 0.26385,-4.8404 -0.0259,-1.39273 -0.0769,-2.79185 -0.62232,-2.28208 -0.5454,0.50977 -1.58504,2.92777 -2.56876,4.90022 -0.98371,1.97244 -1.92689,3.52532 -2.8203,4.34492 -0.89341,0.8196 -1.77421,0.94201 -2.26211,0.92064 -0.4879,-0.0214 -0.59122,-0.18535 -0.69454,-0.34934 -0.0993,-0.29214 -0.19881,-0.58517 -0.24828,-0.7308 -0.0495,-0.14563 -0.0493,-0.14563 0.25682,-0.71069 z"
       inkscape:label="Mandibular Molar"
       sodipodi:nodetypes="cccccccccccccccccccccccccccccccc" /><path
       id="path25"
       style="fill:none;stroke:#008080;stroke-width:1;stroke-linecap:round;stroke-linejoin:round;paint-order:stroke fill markers"
       inkscape:path-effect="#path-effect26"
       inkscape:original-d="m 126.03384,74.515631 c 1.99774,-0.232293 3.99549,-0.464588 5.99324,-0.696882 2.66794,-0.485079 5.33577,-0.97014 8.00365,-1.455208 1.56548,-0.264589 3.1309,-0.529167 4.69635,-0.79375 M 91.347395,86.915624 c 1.256771,-0.396875 2.513541,-0.79375 3.770312,-1.190625 2.623839,-0.793766 5.247573,-1.5875 7.871353,-2.38125 2.3813,-0.793766 4.7625,-1.5875 7.14375,-2.38125 2.55769,-0.948108 5.11528,-1.896181 7.67292,-2.844271 2.33766,-0.906685 4.55565,-1.766958 7.01284,-2.720004 1.15834,-0.970598 2.17568,-1.823053 3.30591,-2.7701 1.63698,-1.581071 3.27386,-3.162053 4.91084,-4.743126 1.2735,-1.616039 2.54694,-3.23201 3.82041,-4.84802 0.64745,-1.328294 1.29485,-2.656507 1.9423,-3.984799 0.26302,-2.205823 0.78905,-6.617338 0.78905,-6.617338 m -31.44983,35.309744 c -0.31181,2.619242 -0.62363,5.238482 -0.93544,7.857725 -0.34593,1.602385 -0.69183,3.20471 -1.03775,4.80706 -0.79376,1.85212 -1.5875,3.70417 -2.38125,5.55625 -1.67573,1.56549 -3.35139,3.13091 -5.027082,4.69636 -2.160807,0.94811 -4.321527,1.89618 -6.482292,2.84427 -3.70424,0.83786 -7.408333,1.67569 -11.1125,2.51354 -2.75613,0.85991 -5.512151,1.71979 -8.268229,2.57969 -2.403345,1.05835 -4.806598,2.11666 -7.209895,3.175 -2.204906,1.2127 -4.409723,2.42535 -6.614584,3.63802 -2.028512,1.78597 -4.056943,3.57187 -6.085416,5.35781 -0.639421,0.63942 -1.278819,1.27882 -1.918229,1.91823 -0.948108,-0.022 -1.896182,-0.0441 -2.844271,-0.0661 -0.639421,-0.39688 -1.278819,-0.79375 -1.918229,-1.19062 0.02204,-0.83786 0.0441,-1.67569 0.06615,-2.51354 0.683522,-1.1245 1.367014,-2.24896 2.05052,-3.37344 1.521386,-1.71983 3.042709,-3.43958 4.564063,-5.15937 1.609582,-1.67573 3.219098,-3.35139 4.828646,-5.02709 2.447446,-3.79244 4.894791,-7.58472 7.342187,-11.37708 1.168601,-1.80802 2.337152,-3.61597 3.505729,-5.42396 1.080405,-1.962364 2.160765,-3.924651 3.241146,-5.886979 0.286639,-0.374832 0.573264,-0.749653 0.859896,-1.124479 0.529177,-0.110245 1.058333,-0.220485 1.5875,-0.330729 0.639423,0.341761 1.278805,0.683499 1.918229,1.02526 -0.220491,0.87094 -0.440972,1.741841 -0.661458,2.612761 0.02204,0.859914 0.0441,1.719791 0.06615,2.579687 0.529178,0.72762 1.058334,1.455209 1.5875,2.182813 1.102453,0.308686 2.204861,0.617356 3.307292,0.926046 1.367041,-0.1764 2.734027,-0.35278 4.101042,-0.52917 1.124503,-0.639422 2.248958,-1.27882 3.373437,-1.91823 0.485079,-0.859912 0.97014,-1.719792 1.455208,-2.579688 -0.176392,-1.168598 -0.352777,-2.337152 -0.529166,-3.505729 -0.595323,-0.639421 -1.190625,-1.278819 -1.785938,-1.918229 -0.881962,-0.286636 -1.76389,-0.573265 -2.645833,-0.859896 -0.650446,-0.176392 -1.300856,-0.352775 -1.951302,-0.529167 0.529177,-0.595324 1.058322,-1.190613 1.5875,-1.785937 0.848888,-0.352785 1.697725,-0.705549 2.546614,-1.058334 0.683521,0.220491 1.367014,0.440973 2.050521,0.661459 2.006465,0.418933 4.012848,0.837848 6.019271,1.256771 2.645886,0.06615 5.291663,0.132291 7.937503,0.198437 3.26326,-0.286636 6.52639,-0.573265 9.78958,-0.859896 4.07908,-0.992206 8.15799,-1.984375 12.23698,-2.976562 2.99867,-1.014256 5.99722,-2.028473 8.99583,-3.042708 1.58754,-0.463029 3.175,-0.926042 4.7625,-1.389063 1.32295,-0.41893 2.64584,-0.837848 3.96875,-1.256771"
       d="m 126.03384,74.515631 c 1.99774,-0.232293 3.99549,-0.464588 6.32833,-0.823275 2.33285,-0.358687 5.00068,-0.843746 7.11736,-1.218575 2.11668,-0.374828 3.6821,-0.639407 5.24755,-0.90399 M 91.347395,86.915624 c 1.256771,-0.396875 2.513541,-0.79375 4.453846,-1.389071 1.940305,-0.59532 4.564039,-1.389055 7.066579,-2.182813 2.50254,-0.793758 4.88374,-1.587491 7.35321,-2.45842 2.46947,-0.87093 5.02706,-1.819002 7.47471,-2.74639 2.44765,-0.927388 4.66564,-1.787659 6.4734,-2.749482 1.80777,-0.961823 2.82511,-1.814277 4.20871,-3.078337 1.38361,-1.26406 3.02049,-2.845039 4.47573,-4.443597 1.45524,-1.598557 2.72868,-3.214527 3.68914,-4.686679 0.96046,-1.472152 1.60786,-2.800362 2.0631,-4.567421 0.45523,-1.767058 0.71824,-3.972794 0.98126,-6.178573 m -31.44983,35.309744 c -0.31181,2.619242 -0.62363,5.238482 -0.9525,7.349297 -0.32886,2.110814 -0.67477,3.713137 -1.24461,5.440368 -0.56984,1.72724 -1.36358,3.57929 -2.59832,5.28807 -1.23474,1.70879 -2.9104,3.27421 -4.82865,4.53099 -1.918249,1.25678 -4.078969,2.20485 -7.011471,3.09783 -2.932502,0.89297 -6.636595,1.7308 -9.866744,2.57968 -3.230148,0.84888 -5.986169,1.70876 -8.56588,2.66789 -2.579712,0.95912 -4.982963,2.01744 -7.287067,3.15295 -2.304103,1.13552 -4.50892,2.34817 -6.625606,3.84749 -2.116685,1.49932 -4.145116,3.28522 -5.479063,4.4979 -1.333947,1.21268 -1.973346,1.85208 -2.767105,2.16077 -0.793758,0.30869 -1.741834,0.28665 -2.535588,0.0772 -0.793755,-0.20946 -1.433155,-0.60633 -1.741834,-1.22369 -0.308679,-0.61737 -0.286629,-1.4552 0.06616,-2.43638 0.352785,-0.98117 1.036279,-2.10563 2.138726,-3.52778 1.102447,-1.42216 2.623768,-3.14191 4.189236,-4.83967 1.565467,-1.69776 3.174982,-3.37342 5.20348,-6.10749 2.028499,-2.73407 4.475843,-6.52635 6.283841,-9.32654 1.807997,-2.80019 2.976549,-4.60814 4.10104,-6.493318 1.12449,-1.885177 2.204851,-3.847464 2.88836,-5.016044 0.68351,-1.16858 0.970137,-1.5434 1.378042,-1.785936 0.407904,-0.242535 0.93706,-0.352776 1.521355,-0.237017 0.584295,0.115759 1.223677,0.457497 1.433144,1.063848 0.209466,0.60635 -0.01102,1.477251 -0.110233,2.342668 -0.09922,0.865417 -0.07717,1.725294 0.198446,2.519052 0.275614,0.793758 0.80477,1.521347 1.620579,2.039493 0.815809,0.518146 1.918216,0.826824 3.152953,0.892964 1.234738,0.0661 2.601723,-0.11024 3.847482,-0.518147 1.245758,-0.407906 2.370214,-1.047303 3.174993,-1.796964 0.804779,-0.749661 1.289839,-1.609542 1.444178,-2.623788 0.154338,-1.014247 -0.02205,-2.182801 -0.407903,-3.0868 -0.385856,-0.903999 -0.981158,-1.543397 -1.719795,-2.006421 -0.738637,-0.463024 -1.620566,-0.74965 -2.386761,-0.981162 -0.766194,-0.231512 -1.416604,-0.407895 -1.477239,-0.793753 -0.06063,-0.385858 0.468512,-0.981147 1.157544,-1.455201 0.689033,-0.474055 1.53787,-0.826819 2.304075,-0.892966 0.766205,-0.06615 1.449698,0.154335 2.794684,0.474044 1.344986,0.319709 3.351369,0.738624 5.677524,0.98116 2.326154,0.242535 4.971931,0.308679 7.926481,0.198433 2.95455,-0.110246 6.21768,-0.396872 9.88881,-1.036292 3.67114,-0.63942 7.75005,-1.631587 11.28888,-2.634809 3.53883,-1.003221 6.53738,-2.017437 8.83045,-2.756071 2.29308,-0.738634 3.88054,-1.201644 5.33576,-1.642621 1.45523,-0.440978 2.77812,-0.859893 4.10103,-1.278815"
       sodipodi:nodetypes="cccccccccccccccccccccccccccccccccccccccccccccccccccccccccccc"
       inkscape:label="Sella Turcica and Cranial Base" /><path
       style="fill:none;stroke:#008080;stroke-width:1;stroke-linecap:round;stroke-linejoin:round;paint-order:stroke fill markers"
       d="m -0.52916666,132.68854 c 1.54340276,0 3.08680556,0 5.07120456,-0.0661 1.9843991,-0.0661 4.4096976,-0.19844 7.1217071,-0.37483 2.712009,-0.17639 5.71056,-0.39687 8.356417,-0.44096 2.645856,-0.0441 4.938865,0.0882 6.790962,0.26458 1.852098,0.17639 3.263154,0.39687 4.586096,1.05834 1.322942,0.66147 2.557641,1.76388 4.321552,2.77813 1.763911,1.01424 4.056919,1.94027 5.997214,2.62378 1.940295,0.68351 3.527763,1.12447 5.093229,1.19061 1.565467,0.0661 3.108841,-0.24253 4.299473,-0.92605 1.190632,-0.68351 2.028465,-1.74183 2.513535,-3.3073 0.48507,-1.56547 0.617359,-3.638 0.749651,-5.71057"
       id="path26"
       inkscape:path-effect="#path-effect27"
       inkscape:original-d="m -0.52916666,132.68854 c 1.54340276,0 3.08680556,0 4.63020826,0 2.4253957,-0.13229 4.8506943,-0.26458 7.2760414,-0.39688 2.998671,-0.22049 5.997222,-0.44097 8.995833,-0.66145 2.293102,0.13229 4.586111,0.26458 6.879167,0.39687 1.411139,0.22049 2.822195,0.44097 4.233334,0.66146 1.234745,1.10245 2.469444,2.20486 3.704166,3.30729 2.293101,0.92606 4.58611,1.85208 6.879166,2.77813 1.587532,0.44098 3.175,0.88194 4.7625,1.32291 1.543434,-0.30868 3.086807,-0.61736 4.630209,-0.92604 0.837864,-1.05835 1.675693,-2.11667 2.513541,-3.175 0.132295,-2.07261 0.264584,-4.14514 0.396875,-6.21771"
       inkscape:label="Occipital bone"
       sodipodi:nodetypes="cccccccccccc" /><path
       style="fill:none;stroke:#008080;stroke-width:1;stroke-linecap:round;stroke-linejoin:round;paint-order:stroke fill markers"
       d="m 129.71393,80.723367 c -0.63295,2.303298 -1.26589,4.606549 -2.07101,7.159996 -0.80512,2.553448 -1.78234,5.356886 -2.71195,8.500511 -0.9296,3.143625 -1.81153,6.627236 -2.36274,9.758166 -0.55122,3.13093 -0.7717,5.909 -0.8158,8.59895 -0.0441,2.68996 0.0882,5.29165 0.21892,8.05933 0.13073,2.76768 0.25988,5.70115 0.24885,8.08244 -0.011,2.38129 -0.16225,4.21015 0.0544,5.97698 0.2167,1.76683 0.80129,3.47142 1.90374,4.49119 1.10246,1.01977 2.72264,1.35459 4.07298,0.51878 1.35034,-0.83581 2.43069,-2.84216 3.53314,-4.63364 1.10245,-1.79149 2.22688,-3.3679 3.38446,-4.83967 1.15757,-1.47178 2.34815,-2.83873 3.63802,-3.95221 1.28987,-1.11348 2.67887,-1.97334 3.92465,-2.82223 1.24577,-0.84889 2.34816,-1.6867 3.74827,-2.52457 1.40012,-0.83786 3.09779,-1.67567 4.25537,-3.03169 1.15757,-1.35602 1.77491,-3.23007 1.40007,-3.80335 -0.37483,-0.57327 -1.74179,0.1543 -2.83322,0.66143 -1.09143,0.50713 -1.90721,0.79376 -2.72301,1.08039"
       id="path30"
       inkscape:path-effect="#path-effect30"
       inkscape:original-d="m 129.71393,80.723367 c -0.63296,2.303296 -1.2659,4.606547 -1.89886,6.90989 -0.97727,2.803553 -1.95449,5.606993 -2.93174,8.410492 -0.88196,3.48375 -1.76389,6.967361 -2.64583,10.451041 -0.22049,2.77818 -0.44097,5.55625 -0.66146,8.33438 0.13229,2.60178 0.26458,5.20347 0.39688,7.8052 0.12916,2.93363 0.25831,5.8671 0.38747,8.80072 -0.15123,1.82896 -0.30244,3.65782 -0.45367,5.48678 0.58463,1.7047 1.16922,3.40929 1.75384,5.11398 1.62029,0.33485 3.24047,0.66967 4.86075,1.00451 1.08041,-2.00646 2.16075,-4.01281 3.24115,-6.01927 1.1245,-1.57651 2.24893,-3.15292 3.37343,-4.72942 1.19065,-1.36705 2.38123,-2.734 3.57188,-4.10105 1.38909,-0.85991 2.77809,-1.71977 4.16718,-2.57968 1.10246,-0.83787 2.20485,-1.67568 3.3073,-2.51355 1.69778,-0.83786 3.39545,-1.67567 5.09323,-2.51353 0.61737,-1.87418 1.23471,-3.74823 1.85208,-5.6224 -1.36704,0.72762 -2.734,1.45519 -4.10104,2.18281 -0.81582,0.28664 -1.6316,0.57327 -2.4474,0.8599"
       sodipodi:nodetypes="ccccccccccccccccccc"
       inkscape:label="Key Ridge"
       inkscape:export-filename="Full Tracing.svg"
       inkscape:export-xdpi="96"
       inkscape:export-ydpi="96" /></g></svg>
