<?xml version="1.0" encoding="UTF-8" standalone="no"?>
<!DOCTYPE svg PUBLIC "-//W3C//DTD SVG 1.1//EN" "http://www.w3.org/Graphics/SVG/1.1/DTD/svg11.dtd">
<svg width="100%" height="100%" viewBox="0 0 144 59" version="1.1" xmlns="http://www.w3.org/2000/svg" xmlns:xlink="http://www.w3.org/1999/xlink" xml:space="preserve" xmlns:serif="http://www.serif.com/" style="fill-rule:evenodd;clip-rule:evenodd;stroke-linecap:round;stroke-linejoin:round;">
    <g transform="matrix(1,0,0,1,-357.850824,-1208.841756)">
        <g transform="matrix(5.669291,0,0,5.669291,0,0)">
            <path id="Hyoid-Bone" serif:id="Hyoid Bone" d="M79.592,214.821C79.793,214.599 80.193,214.157 80.52,213.925C80.846,213.693 81.099,213.672 81.51,213.82C81.921,213.967 82.49,214.283 83.016,214.484C83.543,214.684 84.028,214.768 84.46,214.821C84.892,214.873 85.271,214.894 85.597,215.01C85.924,215.126 86.198,215.337 86.419,215.632C86.64,215.927 86.809,216.306 86.978,216.759C87.146,217.212 87.315,217.739 87.494,218.308C87.673,218.877 87.862,219.488 87.936,219.951C88.01,220.415 87.968,220.731 87.726,221.078C87.483,221.426 87.041,221.805 86.619,222.164C86.198,222.522 85.798,222.859 85.503,222.996C85.208,223.133 85.018,223.07 84.765,222.796C84.512,222.522 84.196,222.037 83.849,221.721C83.501,221.405 83.122,221.258 82.553,221.268C81.984,221.279 81.225,221.447 80.762,221.574C80.298,221.7 80.13,221.784 79.603,221.721C79.076,221.658 78.191,221.447 77.306,221.205C76.421,220.963 75.536,220.689 74.746,220.415C73.956,220.141 73.261,219.867 72.713,219.719C72.165,219.572 71.765,219.551 71.322,219.488C70.88,219.424 70.395,219.319 69.816,219.129C69.236,218.94 68.562,218.666 67.814,218.276C67.066,217.886 66.245,217.381 65.602,216.938C64.959,216.496 64.496,216.116 64.159,215.811C63.821,215.505 63.611,215.274 63.621,215.073C63.632,214.873 63.864,214.705 64.443,214.705C65.022,214.705 65.95,214.873 66.771,214.979C67.593,215.084 68.309,215.126 69.426,215.189C70.543,215.253 72.06,215.337 73.366,215.379C74.673,215.421 75.768,215.421 76.737,215.358C77.707,215.295 78.549,215.168 78.971,215.105C79.392,215.042 79.392,215.042 79.592,214.821L79.592,214.821Z" style="fill:none;fill-rule:nonzero;stroke:black;stroke-width:1px;"/>
        </g>
    </g>
</svg>
