<?xml version="1.0" encoding="UTF-8" standalone="no"?>
<!-- Created with Inkscape (http://www.inkscape.org/) -->

<svg
   width="25.055288mm"
   height="9.8513899mm"
   viewBox="0 0 25.055288 9.8513899"
   version="1.1"
   id="svg1"
   xml:space="preserve"
   xmlns="http://www.w3.org/2000/svg"
   xmlns:svg="http://www.w3.org/2000/svg"><defs
     id="defs1" /><g
     id="layer1"
     transform="translate(-63.266247,-213.51265)"><path
       style="opacity:1;fill:none;fill-opacity:1;stroke:#000000;stroke-width:1;stroke-linecap:round;stroke-linejoin:round;paint-order:stroke fill markers"
       d="m 79.68859,214.81168 c 0.296305,-0.23017 0.979868,-0.76114 1.582853,-0.796 0.602985,-0.0349 1.418246,0.32431 2.247624,0.59508 0.829379,0.27078 1.806646,0.50171 2.42844,1.05489 0.621795,0.55319 1.103567,1.63212 1.41025,2.44652 0.306682,0.8144 0.497129,1.50906 0.458185,2.05248 -0.03895,0.54341 -0.294548,0.99389 -0.826569,1.52117 -0.532021,0.52728 -1.517696,1.25906 -2.039937,1.16493 -0.522242,-0.0941 -1.042353,-1.05167 -2.009511,-1.30233 -0.967159,-0.25067 -2.31562,0.0932 -4.122563,-0.0661 -1.806944,-0.15935 -4.037159,-0.83961 -5.796126,-1.38803 -1.758968,-0.54843 -3.084221,-0.97688 -4.276296,-1.49871 -1.192075,-0.52182 -2.308289,-1.16118 -3.298681,-1.7938 -0.990393,-0.63263 -1.871642,-1.26826 -1.644593,-1.56618 0.227049,-0.29791 1.55866,-0.26176 3.428897,-0.17514 1.870237,0.0866 4.27546,0.22383 6.020541,0.28437 1.745082,0.0605 2.842648,0.0447 3.754459,-0.0185 0.911812,-0.0632 1.649284,-0.17379 2.018002,-0.2291 0.368719,-0.0553 0.368719,-0.0553 0.665025,-0.28549 z"
       id="path5" /></g></svg>
