<?xml version="1.0" encoding="UTF-8" standalone="no"?>
<!-- Created with Inkscape (http://www.inkscape.org/) -->

<svg
   width="12.640868mm"
   height="21.032663mm"
   viewBox="0 0 12.640868 21.032663"
   version="1.1"
   id="svg1"
   xml:space="preserve"
   xmlns="http://www.w3.org/2000/svg"
   xmlns:svg="http://www.w3.org/2000/svg"><defs
     id="defs1" /><g
     id="layer1"
     transform="translate(-145.4726,-199.78959)"><path
       style="opacity:1;fill:none;fill-opacity:1;stroke:#000000;stroke-width:1;stroke-linecap:round;stroke-linejoin:round;paint-order:stroke fill markers"
       d="m 155.575,202.20781 c 0.53608,1.8935 1.07215,3.78699 1.43471,5.37014 0.36256,1.58316 0.55417,2.87305 0.5952,3.97335 0.041,1.10029 -0.0678,2.03244 -0.27319,2.81063 -0.20538,0.77819 -0.50997,1.42734 -0.96165,2.13487 -0.45167,0.70753 -1.05413,1.47858 -1.74701,2.10154 -0.69287,0.62296 -1.51909,1.12505 -2.38619,1.40456 -0.8671,0.2795 -1.90058,0.38821 -2.77446,0.27246 -0.87388,-0.11575 -1.77028,-0.4764 -2.33506,-1.03557 -0.56478,-0.55918 -0.92964,-1.4033 -1.07089,-2.30468 -0.14126,-0.90138 -0.0942,-1.94211 0.078,-2.9483 0.17216,-1.00619 0.46988,-1.9903 0.83057,-3.09368 0.36069,-1.10337 0.78477,-2.32735 1.18766,-3.53606 0.40289,-1.2087 0.78551,-2.40482 1.16505,-3.38796 0.37953,-0.98313 0.75933,-1.76083 1.083,-2.33433 0.32367,-0.5735 0.59927,-0.95934 0.87488,-1.34519"
       id="path8" /></g></svg>
