<?xml version="1.0" encoding="UTF-8" standalone="no"?>
<!DOCTYPE svg PUBLIC "-//W3C//DTD SVG 1.1//EN" "http://www.w3.org/Graphics/SVG/1.1/DTD/svg11.dtd">
<svg width="100%" height="100%" viewBox="0 0 74 121" version="1.1" xmlns="http://www.w3.org/2000/svg" xmlns:xlink="http://www.w3.org/1999/xlink" xml:space="preserve" xmlns:serif="http://www.serif.com/" style="fill-rule:evenodd;clip-rule:evenodd;stroke-linecap:round;stroke-linejoin:round;">
    <g transform="matrix(1,0,0,1,-823.926412,-1132.665392)">
        <g transform="matrix(5.669291,0,0,5.669291,0,0)">
            <path id="Inner-Mandibular-Border" serif:id="Inner Mandibular Border" d="M155.575,202.208C155.884,203.222 156.192,204.236 156.512,205.383C156.832,206.529 157.162,207.808 157.372,208.866C157.581,209.925 157.67,210.763 157.703,211.523C157.736,212.284 157.714,212.968 157.603,213.629C157.493,214.29 157.295,214.93 157.041,215.481C156.788,216.032 156.479,216.495 156.082,217.024C155.685,217.554 155.2,218.149 154.649,218.667C154.098,219.185 153.48,219.626 152.72,219.946C151.959,220.266 151.055,220.464 150.272,220.486C149.49,220.508 148.828,220.354 148.299,220.177C147.77,220.001 147.373,219.803 146.998,219.384C146.623,218.965 146.271,218.325 146.061,217.598C145.852,216.87 145.785,216.054 145.863,215.161C145.94,214.268 146.16,213.298 146.502,212.229C146.844,211.16 147.307,209.991 147.704,208.8C148.101,207.61 148.431,206.397 148.795,205.284C149.159,204.17 149.556,203.156 149.975,202.34C150.394,201.524 150.835,200.907 151.276,200.29" style="fill:none;fill-rule:nonzero;stroke:black;stroke-width:1px;"/>
        </g>
    </g>
</svg>
