<?xml version="1.0" encoding="UTF-8" standalone="no"?>
<!-- Created with Inkscape (http://www.inkscape.org/) -->

<svg
   width="31.503096mm"
   height="62.614971mm"
   viewBox="0 0 31.503096 62.614971"
   version="1.1"
   id="svg1"
   xml:space="preserve"
   xmlns="http://www.w3.org/2000/svg"
   xmlns:svg="http://www.w3.org/2000/svg"><defs
     id="defs1" /><g
     id="layer1"
     transform="translate(-121.24376,-80.223367)"><path
       style="fill:none;stroke:#008080;stroke-width:1;stroke-linecap:round;stroke-linejoin:round;paint-order:stroke fill markers"
       d="m 129.71393,80.723367 c -0.63295,2.303298 -1.26589,4.606549 -2.07101,7.159996 -0.80512,2.553448 -1.78234,5.356886 -2.71195,8.500511 -0.9296,3.143625 -1.81153,6.627236 -2.36274,9.758166 -0.55122,3.13093 -0.7717,5.909 -0.8158,8.59895 -0.0441,2.68996 0.0882,5.29165 0.21892,8.05933 0.13073,2.76768 0.25988,5.70115 0.24885,8.08244 -0.011,2.38129 -0.16225,4.21015 0.0544,5.97698 0.2167,1.76683 0.80129,3.47142 1.90374,4.49119 1.10246,1.01977 2.72264,1.35459 4.07298,0.51878 1.35034,-0.83581 2.43069,-2.84216 3.53314,-4.63364 1.10245,-1.79149 2.22688,-3.3679 3.38446,-4.83967 1.15757,-1.47178 2.34815,-2.83873 3.63802,-3.95221 1.28987,-1.11348 2.67887,-1.97334 3.92465,-2.82223 1.24577,-0.84889 2.34816,-1.6867 3.74827,-2.52457 1.40012,-0.83786 3.09779,-1.67567 4.25537,-3.03169 1.15757,-1.35602 1.77491,-3.23007 1.40007,-3.80335 -0.37483,-0.57327 -1.74179,0.1543 -2.83322,0.66143 -1.09143,0.50713 -1.90721,0.79376 -2.72301,1.08039"
       id="path30" /></g></svg>
