<?xml version="1.0" encoding="UTF-8" standalone="no"?>
<!DOCTYPE svg PUBLIC "-//W3C//DTD SVG 1.1//EN" "http://www.w3.org/Graphics/SVG/1.1/DTD/svg11.dtd">
<svg width="100%" height="100%" viewBox="0 0 597 584" version="1.1" xmlns="http://www.w3.org/2000/svg" xmlns:xlink="http://www.w3.org/1999/xlink" xml:space="preserve" xmlns:serif="http://www.serif.com/" style="fill-rule:evenodd;clip-rule:evenodd;stroke-linecap:round;stroke-linejoin:round;">
    <g transform="matrix(1,0,0,1,-312.290334,-680.02605)">
        <g transform="matrix(5.669291,0,0,5.669291,0,0)">
            <path id="Mandibular-Border" serif:id="Mandibular Border" d="M83.542,140.758C82.682,141.001 81.822,141.243 80.665,141.31C79.507,141.376 78.052,141.265 76.641,140.78C75.23,140.295 73.863,139.435 72.595,138.267C71.327,137.098 70.159,135.621 69.244,133.934C68.329,132.248 67.667,130.351 67.193,128.753C66.719,127.154 66.432,125.853 66.113,124.839C65.793,123.825 65.44,123.097 64.966,122.48C64.492,121.863 63.897,121.356 63.257,121.036C62.618,120.716 61.935,120.584 61.295,120.507C60.656,120.429 60.06,120.407 59.465,120.584C58.87,120.76 58.274,121.135 57.789,121.499C57.304,121.863 56.93,122.215 56.588,122.634C56.246,123.053 55.937,123.538 55.772,124.09C55.607,124.641 55.585,125.258 55.585,125.831C55.585,126.405 55.607,126.934 55.772,127.43C55.937,127.926 56.246,128.389 56.665,128.874C57.084,129.359 57.613,129.866 58.087,130.462C58.561,131.057 58.98,131.74 59.3,132.391C59.619,133.041 59.84,133.659 60.171,134.761C60.501,135.864 60.942,137.451 61.516,139.887C62.089,142.324 62.794,145.609 63.511,149.192C64.228,152.775 64.955,156.655 65.617,160.415C66.278,164.174 66.873,167.812 67.347,170.656C67.822,173.501 68.174,175.551 68.395,177.205C68.615,178.858 68.703,180.115 68.891,181.218C69.078,182.32 69.365,183.268 69.784,184.249C70.203,185.23 70.754,186.245 71.316,187.138C71.878,188.031 72.452,188.802 73.08,189.651C73.709,190.5 74.392,191.426 75.053,192.165C75.715,192.903 76.354,193.455 77.909,194.226C79.463,194.998 81.933,195.99 84.667,197.258C87.401,198.526 90.399,200.069 93.354,201.557C96.308,203.046 99.219,204.479 102.68,206.21C106.142,207.941 110.155,209.969 113.286,211.556C116.417,213.144 118.666,214.29 120.088,214.985C121.51,215.68 122.105,215.922 123.164,216.297C124.222,216.672 125.743,217.179 127.706,217.719C129.668,218.259 132.071,218.832 134.287,219.318C136.503,219.803 138.531,220.2 140.251,220.453C141.971,220.707 143.382,220.817 144.308,220.927C145.234,221.037 145.675,221.148 146.259,221.357C146.844,221.567 147.571,221.875 148.475,222.085C149.379,222.294 150.46,222.404 151.364,222.371C152.268,222.338 152.995,222.162 153.778,221.798C154.561,221.434 155.399,220.883 156.281,220.111C157.163,219.34 158.089,218.347 158.739,217.234C159.389,216.12 159.764,214.886 159.819,213.684C159.874,212.482 159.61,211.314 159.29,210.057C158.97,208.8 158.596,207.455 158.254,206.232C157.912,205.008 157.603,203.906 157.394,202.792C157.185,201.679 157.074,200.554 157.129,199.353C157.185,198.151 157.405,196.872 157.614,195.759C157.824,194.645 158.022,193.697 158.21,193.047C158.397,192.396 158.574,192.043 158.265,191.856C157.956,191.669 157.162,191.647 156.589,191.525C156.016,191.404 155.663,191.184 155.366,191.007C155.068,190.831 154.825,190.699 154.572,191.018C154.318,191.338 154.054,192.11 153.646,193.003C153.238,193.896 152.687,194.91 152.157,195.88C151.628,196.85 151.121,197.776 150.526,198.856C149.931,199.937 149.247,201.172 148.729,202.208C148.211,203.244 147.858,204.082 147.516,204.92C147.174,205.758 146.844,206.596 146.502,207.433C146.16,208.271 145.807,209.109 145.444,210.024C145.08,210.939 144.705,211.931 144.429,212.857C144.154,213.783 143.977,214.643 143.9,215.448C143.823,216.253 143.845,217.002 144.021,217.752C144.198,218.502 144.529,219.251 145.102,219.913C145.675,220.574 146.491,221.148 147.307,221.721" style="fill:none;fill-rule:nonzero;stroke:black;stroke-width:1px;"/>
        </g>
    </g>
</svg>
