<?xml version="1.0" encoding="UTF-8" standalone="no"?>
<!-- Created with Inkscape (http://www.inkscape.org/) -->

<svg
   width="105.24219mm"
   height="102.92833mm"
   viewBox="0 0 105.24219 102.92833"
   version="1.1"
   id="svg1"
   xml:space="preserve"
   xmlns="http://www.w3.org/2000/svg"
   xmlns:svg="http://www.w3.org/2000/svg"><defs
     id="defs1" /><g
     id="layer1"
     transform="translate(-55.084545,-119.94892)"><path
       style="display:inline;opacity:1;fill:none;fill-opacity:1;stroke:#000000;stroke-width:1;stroke-linecap:round;stroke-linejoin:round;paint-order:stroke fill markers"
       d="m 83.542186,140.75833 c -0.859896,0.24254 -1.71979,0.48507 -2.877357,0.55122 -1.157567,0.0661 -2.612747,-0.0441 -4.023873,-0.52918 -1.411126,-0.48508 -2.778112,-1.34495 -4.045919,-2.51355 -1.267806,-1.16859 -2.43636,-2.64582 -3.351383,-4.33255 -0.915023,-1.68674 -1.576468,-3.58288 -2.050516,-5.18142 -0.474048,-1.59854 -0.760674,-2.89938 -1.080381,-3.91362 -0.319706,-1.01424 -0.672482,-1.74184 -1.146532,-2.3592 -0.474051,-0.61737 -1.069354,-1.12448 -1.708769,-1.44418 -0.639415,-0.31971 -1.32291,-0.452 -1.962323,-0.52916 -0.639414,-0.0772 -1.234718,-0.0992 -1.830036,0.0772 -0.595317,0.1764 -1.19062,0.55122 -1.675693,0.91502 -0.485073,0.36381 -0.85989,0.71658 -1.201647,1.13551 -0.341757,0.41893 -0.650431,0.90399 -0.815797,1.45521 -0.165365,0.55122 -0.187415,1.16857 -0.187415,1.74184 1e-6,0.57327 0.02205,1.10242 0.187419,1.59852 0.165368,0.4961 0.474042,0.95911 0.892971,1.44418 0.418929,0.48508 0.948085,0.99219 1.422135,1.58751 0.474049,0.59532 0.892963,1.27881 1.21267,1.92925 0.319708,0.65044 0.54019,1.26779 0.870923,2.37024 0.330734,1.10244 0.771698,2.68991 1.344969,5.12631 0.573271,2.43641 1.278812,5.72159 1.995399,9.30453 0.716586,3.58293 1.444176,7.46341 2.10564,11.22274 0.661465,3.75932 1.256766,7.39727 1.730814,10.24156 0.474049,2.84429 0.826819,4.89477 1.047307,6.54843 0.220487,1.65366 0.308679,2.9104 0.496096,4.01284 0.187416,1.10244 0.474042,2.05051 0.892972,3.03168 0.41893,0.98118 0.970135,1.9954 1.532379,2.88837 0.562244,0.89298 1.135492,1.66466 1.763887,2.51355 0.628395,0.84888 1.311887,1.7749 1.973353,2.51353 0.661465,0.73864 1.300858,1.28984 2.855312,2.06155 1.554453,0.77172 4.023847,1.76388 6.757903,3.03169 2.734057,1.26781 5.732612,2.81119 8.687154,4.29948 2.954543,1.4883 5.864902,2.92143 9.326572,4.65226 3.46167,1.73084 7.47444,3.75927 10.60536,5.34678 3.13093,1.58751 5.37984,2.73402 6.80199,3.42855 1.42214,0.69454 2.01744,0.93707 3.07579,1.3119 1.05835,0.37483 2.57967,0.88193 4.54202,1.42213 1.96235,0.5402 4.3656,1.11345 6.5815,1.59853 2.21591,0.48507 4.24434,0.88194 5.96415,1.1355 1.7198,0.25356 3.13089,0.3638 4.05694,0.47404 0.92604,0.11025 1.367,0.22049 1.9513,0.42995 0.58429,0.20947 1.31188,0.51814 2.21589,0.7276 0.904,0.20947 1.98436,0.31971 2.88836,0.28663 0.904,-0.0331 1.63159,-0.20946 2.41432,-0.57327 0.78274,-0.3638 1.62057,-0.91501 2.50253,-1.68672 0.88195,-0.77171 1.80797,-1.76388 2.45841,-2.87734 0.65044,-1.11347 1.02525,-2.34817 1.08037,-3.54983 0.0551,-1.20166 -0.20946,-2.37021 -0.52916,-3.627 -0.31971,-1.25678 -0.69453,-2.60172 -1.03629,-3.82543 -0.34176,-1.22371 -0.65043,-2.32612 -0.85989,-3.43958 -0.20947,-1.11347 -0.31971,-2.23793 -0.26458,-3.43959 0.0551,-1.20166 0.2756,-2.48045 0.48507,-3.59391 0.20946,-1.11347 0.40789,-2.06154 0.59531,-2.71198 0.18741,-0.65044 0.3638,-1.00321 0.0551,-1.19062 -0.30869,-0.1874 -1.10242,-0.20944 -1.67569,-0.3307 -0.57327,-0.12126 -0.92604,-0.34175 -1.2237,-0.51813 -0.29765,-0.17639 -0.54018,-0.30868 -0.79374,0.011 -0.25357,0.31971 -0.51815,1.0914 -0.92605,1.98437 -0.4079,0.89298 -0.95911,1.9072 -1.48828,2.87735 -0.52918,0.97015 -1.03628,1.89617 -1.6316,2.97656 -0.59532,1.0804 -1.27881,2.31509 -1.79696,3.35139 -0.51814,1.03629 -0.87091,1.87412 -1.21267,2.71198 -0.34176,0.83785 -0.67248,1.67568 -1.01424,2.51354 -0.34175,0.83785 -0.69452,1.67568 -1.05833,2.59071 -0.36381,0.91503 -0.73863,1.9072 -1.01424,2.83325 -0.2756,0.92605 -0.45199,1.78593 -0.52917,2.59071 -0.0772,0.80478 -0.0551,1.55442 0.12124,2.30408 0.17638,0.74966 0.5071,1.4993 1.08038,2.16076 0.57327,0.66146 1.38905,1.23472 2.20485,1.80798"
       id="path7" /></g></svg>
