<?xml version="1.0" encoding="UTF-8" standalone="no"?>
<!DOCTYPE svg PUBLIC "-//W3C//DTD SVG 1.1//EN" "http://www.w3.org/Graphics/SVG/1.1/DTD/svg11.dtd">
<svg width="100%" height="100%" viewBox="0 0 112 163" version="1.1" xmlns="http://www.w3.org/2000/svg" xmlns:xlink="http://www.w3.org/1999/xlink" xml:space="preserve" xmlns:serif="http://www.serif.com/" style="fill-rule:evenodd;clip-rule:evenodd;stroke-linecap:round;stroke-linejoin:round;">
    <g transform="matrix(1,0,0,1,-615.338582,-962.361664)">
        <g transform="matrix(5.669291,0,0,5.669291,0,0)">
            <path id="Mandibular-Molar" serif:id="Mandibular Molar" d="M113.727,177.383C113.906,177.726 114.085,178.069 114.405,178.338C114.724,178.607 115.184,178.802 115.87,179.063C116.556,179.324 117.468,179.652 118.326,179.975C119.183,180.299 119.986,180.619 120.754,180.872C121.522,181.125 122.255,181.312 122.874,181.437C123.494,181.562 124.001,181.624 124.453,181.597C124.905,181.57 125.303,181.453 125.7,181.336M109.173,193.924C109.33,193.642 109.646,193.078 109.882,192.492C110.117,191.906 110.273,191.298 110.452,190.597C110.632,189.895 110.834,189.1 111.014,188.18C111.193,187.26 111.349,186.216 111.528,185.226C111.708,184.236 111.91,183.3 112.136,182.435C112.362,181.57 112.612,180.774 112.877,180.049C113.142,179.324 113.423,178.67 113.563,177.984C113.703,177.298 113.703,176.581 113.734,175.91C113.766,175.24 113.828,174.616 113.953,173.938C114.077,173.26 114.264,172.527 114.498,171.989C114.732,171.451 115.013,171.108 115.465,170.812C115.917,170.516 116.541,170.266 117.094,170.251C117.648,170.235 118.131,170.453 118.544,170.773C118.957,171.093 119.3,171.514 119.706,171.599C120.111,171.685 120.579,171.436 121.023,171.303C121.467,171.171 121.888,171.155 122.239,171.272C122.59,171.389 122.87,171.638 123.159,171.934C123.447,172.231 123.744,172.574 123.964,172.806C124.184,173.038 124.328,173.158 124.632,173.076C124.936,172.995 125.4,172.71 125.842,172.778C126.285,172.847 126.706,173.267 127.033,173.739C127.361,174.211 127.594,174.733 127.704,175.368C127.813,176.004 127.797,176.752 127.68,177.508C127.563,178.264 127.345,179.028 127.049,179.652C126.753,180.276 126.378,180.759 125.989,181.203C125.599,181.648 125.193,182.053 124.905,182.56C124.617,183.066 124.445,183.674 124.235,184.454C124.024,185.233 123.775,186.184 123.455,187.362C123.136,188.539 122.746,189.942 122.356,191.158C121.966,192.374 121.576,193.403 121.133,194.261C120.69,195.12 120.193,195.808 119.68,196.383C119.168,196.958 118.64,197.419 118.219,197.699C117.798,197.979 117.484,198.076 117.334,197.883C117.184,197.69 117.197,197.207 117.267,196.466C117.336,195.726 117.461,194.728 117.593,193.613C117.726,192.499 117.866,191.267 117.936,190.168C118.006,189.069 118.006,188.102 117.967,187.237C117.928,186.371 117.85,185.608 117.822,184.884C117.794,184.161 117.816,183.478 117.661,183.548C117.505,183.618 117.171,184.441 116.856,185.227C116.541,186.013 116.244,186.761 115.862,187.619C115.48,188.476 115.013,189.443 114.529,190.339C114.046,191.236 113.547,192.062 113.111,192.686C112.674,193.309 112.3,193.73 111.881,194.054C111.462,194.379 110.999,194.606 110.579,194.746C110.158,194.886 109.781,194.939 109.527,194.834C109.274,194.729 109.144,194.468 109.08,194.337C109.015,194.206 109.015,194.206 109.173,193.924L109.173,193.924Z" style="fill:none;fill-rule:nonzero;stroke:rgb(128,0,128);stroke-width:1px;"/>
        </g>
    </g>
</svg>
