<?xml version="1.0" encoding="UTF-8" standalone="no"?>
<!DOCTYPE svg PUBLIC "-//W3C//DTD SVG 1.1//EN" "http://www.w3.org/Graphics/SVG/1.1/DTD/svg11.dtd">
<svg width="100%" height="100%" viewBox="0 0 62 158" version="1.1" xmlns="http://www.w3.org/2000/svg" xmlns:xlink="http://www.w3.org/1999/xlink" xml:space="preserve" xmlns:serif="http://www.serif.com/" style="fill-rule:evenodd;clip-rule:evenodd;stroke-linecap:round;stroke-linejoin:round;">
    <g transform="matrix(1,0,0,1,-855.592838,-1006.737052)">
        <g transform="matrix(5.669291,0,0,5.669291,0,0)">
            <path id="Mandibular-Central" serif:id="Mandibular Central" d="M154.699,189.883C154.917,190.176 155.135,190.468 155.42,190.651C155.705,190.834 156.055,190.908 156.391,190.936C156.726,190.963 157.045,190.944 157.388,190.904C157.731,190.865 158.098,190.807 158.413,190.698C158.729,190.589 158.994,190.429 159.259,190.269M159.099,179.001C159.01,179.356 158.947,179.855 158.838,180.346C158.729,180.837 158.573,181.32 158.332,181.874C158.09,182.427 157.763,183.051 157.357,183.628C156.952,184.204 156.468,184.734 156.032,185.389C155.595,186.044 155.206,186.824 154.972,187.541C154.738,188.258 154.66,188.913 154.652,189.466C154.644,190.02 154.707,190.472 154.605,191.064C154.504,191.657 154.239,192.39 153.974,193.192C153.709,193.995 153.444,194.868 153.179,195.757C152.914,196.646 152.649,197.55 152.423,198.353C152.197,199.156 152.01,199.857 151.869,200.504C151.729,201.151 151.635,201.744 151.557,202.344C151.479,202.944 151.417,203.552 151.417,203.997C151.417,204.441 151.479,204.722 151.62,204.854C151.76,204.987 151.978,204.971 152.236,204.823C152.493,204.675 152.789,204.394 153.202,203.817C153.615,203.241 154.145,202.368 154.582,201.604C155.019,200.84 155.362,200.185 155.775,199.327C156.188,198.47 156.671,197.41 157.03,196.482C157.388,195.554 157.622,194.759 157.825,193.995C158.028,193.231 158.199,192.499 158.425,191.898C158.651,191.298 158.932,190.83 159.158,190.495C159.384,190.16 159.555,189.957 159.774,189.599C159.992,189.24 160.257,188.726 160.491,188.04C160.725,187.354 160.927,186.496 161.037,185.756C161.146,185.015 161.161,184.391 161.177,183.682C161.192,182.973 161.208,182.178 161.177,181.562C161.146,180.946 161.068,180.509 161.005,180.174C160.943,179.839 160.896,179.605 160.816,179.36C160.736,179.114 160.623,178.857 160.512,178.666C160.401,178.475 160.292,178.35 160.179,178.251C160.066,178.151 159.949,178.077 159.822,178.077C159.696,178.077 159.559,178.151 159.433,178.294C159.306,178.436 159.189,178.646 159.099,179.001L159.099,179.001Z" style="fill:none;fill-rule:nonzero;stroke:rgb(128,0,128);stroke-width:1px;"/>
        </g>
    </g>
</svg>
