<?xml version="1.0" encoding="UTF-8" standalone="no"?>
<!-- Created with Inkscape (http://www.inkscape.org/) -->

<svg
   width="19.789307mm"
   height="28.32032mm"
   viewBox="0 0 19.789307 28.32032"
   version="1.1"
   id="svg1"
   xml:space="preserve"
   xmlns="http://www.w3.org/2000/svg"
   xmlns:svg="http://www.w3.org/2000/svg"><defs
     id="defs1" /><g
     id="layer1"
     transform="translate(-108.41018,-170.24204)"><path
       id="path22"
       style="opacity:1;fill:none;fill-opacity:1;stroke:#800080;stroke-width:1;stroke-linecap:round;stroke-linejoin:round;paint-order:stroke fill markers"
       d="m 113.72652,177.38344 c 0.42546,0.45428 0.85067,0.90829 2.01672,1.48918 1.16605,0.58088 3.10615,1.32327 4.71812,1.81135 1.61198,0.48809 2.93617,0.72931 3.73964,0.79283 0.80347,0.0635 1.15133,-0.0388 1.4992,-0.14111 m -16.69343,11.74283 c 0.30614,-0.56507 0.92099,-1.69991 1.45216,-3.40474 0.53116,-1.70483 0.97824,-3.97919 1.50377,-6.02584 0.52553,-2.04665 1.13889,-3.89247 1.53477,-5.70459 0.39588,-1.81211 0.58939,-3.65753 1.03778,-4.89271 0.4484,-1.23518 1.41724,-2.14668 2.18932,-2.28694 0.77209,-0.14025 2.28977,0.65553 3.03986,0.75075 0.75009,0.0952 1.44828,-0.1368 1.94846,-0.15757 0.50017,-0.0208 0.93313,0.21605 1.3683,0.57191 0.43516,0.35585 0.91571,0.85574 1.50874,1.04585 0.59303,0.19012 1.46101,0.0503 1.81773,0.27321 0.35672,0.22289 0.71493,0.72575 0.94666,1.27649 0.23174,0.55075 0.34197,1.16351 0.34511,1.83751 0.003,0.67399 -0.10079,1.4088 -0.44351,2.26826 -0.34273,0.85945 -0.96113,1.90792 -1.519,2.98128 -0.55787,1.07336 -1.13973,2.34465 -1.85736,4.39992 -0.71763,2.05528 -1.59764,4.95509 -2.31764,6.92455 -0.72001,1.96947 -1.30756,3.06565 -2.16635,3.97809 -0.8588,0.91243 -2.00575,1.66726 -2.28605,0.68354 -0.2803,-0.98372 0.30252,-3.71487 0.59289,-5.77144 0.29037,-2.05657 0.28971,-3.44766 0.26385,-4.8404 -0.0259,-1.39273 -0.0769,-2.79185 -0.62232,-2.28208 -0.5454,0.50977 -1.58504,2.92777 -2.56876,4.90022 -0.98371,1.97244 -1.92689,3.52532 -2.8203,4.34492 -0.89341,0.8196 -1.77421,0.94201 -2.26211,0.92064 -0.4879,-0.0214 -0.59122,-0.18535 -0.69454,-0.34934 -0.0993,-0.29214 -0.19881,-0.58517 -0.24828,-0.7308 -0.0495,-0.14563 -0.0493,-0.14563 0.25682,-0.71069 z" /></g></svg>
