<?xml version="1.0" encoding="UTF-8" standalone="no"?>
<!-- Created with Inkscape (http://www.inkscape.org/) -->

<svg
   width="10.405494mm"
   height="26.899124mm"
   viewBox="0 0 10.405494 26.899124"
   version="1.1"
   id="svg1"
   xml:space="preserve"
   xmlns="http://www.w3.org/2000/svg"
   xmlns:svg="http://www.w3.org/2000/svg"><defs
     id="defs1" /><g
     id="layer1"
     transform="translate(-151.22374,-178.03238)"><path
       id="path17"
       style="opacity:1;fill:none;fill-opacity:1;stroke:#800080;stroke-width:1;stroke-linecap:round;stroke-linejoin:round;paint-order:stroke fill markers"
       d="m 154.69894,189.8833 c 0.60295,0.34788 1.27961,0.73829 2.02541,0.79703 0.74579,0.0587 1.67793,-0.1861 2.53488,-0.41118 m -0.38559,-10.7549 c -0.1985,0.6575 -0.61261,2.02918 -1.13212,3.10589 -0.51951,1.0767 -1.18044,1.94146 -1.6968,2.81194 -0.51635,0.87047 -0.91586,1.79896 -1.10353,2.67485 -0.18767,0.87589 -0.19157,1.76379 -0.33359,2.63901 -0.14201,0.87522 -0.44418,1.81013 -0.94211,3.51519 -0.49793,1.70506 -1.2074,4.23026 -1.58486,6.13696 -0.37746,1.9067 -0.43538,3.4402 -0.22904,3.86903 0.20635,0.42882 0.8179,0.024 1.67588,-1.27921 0.85798,-1.30318 2.06378,-3.57796 2.92532,-5.60049 0.86154,-2.02252 1.39272,-3.83246 2.0001,-5.29193 0.60737,-1.45947 1.28309,-2.56641 1.74336,-3.60364 0.46027,-1.03724 0.70182,-2.01814 0.82957,-3.21162 0.12775,-1.19349 0.14832,-2.63393 -0.007,-3.83835 -0.1556,-1.20442 -0.5186,-2.27869 -0.75524,-2.70318 -0.23664,-0.42448 -0.85246,-0.0744 -1.02179,0.0218 -0.16932,0.0962 -0.16937,0.0962 -0.36787,0.75374 z" /></g></svg>
