<?xml version="1.0" encoding="UTF-8" standalone="no"?>
<!-- Created with Inkscape (http://www.inkscape.org/) -->

<svg
   width="15.059299mm"
   height="27.871933mm"
   viewBox="0 0 15.059299 27.871933"
   version="1.1"
   id="svg1"
   xml:space="preserve"
   xmlns="http://www.w3.org/2000/svg"
   xmlns:svg="http://www.w3.org/2000/svg"><defs
     id="defs1" /><g
     id="layer1"
     transform="translate(-112.9878,-145.57481)"><path
       id="path20"
       style="display:inline;opacity:1;fill:none;fill-opacity:1;stroke:#800080;stroke-width:1;stroke-linecap:round;stroke-linejoin:round;paint-order:stroke fill markers"
       d="m 115.5237,162.68568 c 1.20768,-0.0248 2.55792,-0.0525 4.04748,0.20667 1.48956,0.25918 3.20248,0.80351 4.2463,1.24653 1.04381,0.44302 1.41863,0.78478 1.79346,1.12653 m -5.75469,-13.89062 c 0.48339,-1.09021 0.96644,-2.17966 1.4292,-3.18614 0.46275,-1.00648 1.12823,-2.39559 1.45102,-2.0675 0.32278,0.32808 0.45653,2.22414 0.52929,3.53413 0.0727,1.30999 0.0905,2.11762 0.11395,2.76186 0.0234,0.64423 0.0525,1.12385 0.0816,1.60348 m -9.22807,16.33146 c -0.21827,-0.45993 -0.65481,-1.37978 -0.73273,-2.34067 -0.0779,-0.9609 0.21235,-1.997 0.73759,-3.11781 0.52523,-1.12081 1.30477,-2.39535 1.70428,-3.62364 0.39952,-1.22828 0.41902,-2.41025 0.41466,-3.6266 -0.004,-1.21635 -0.0328,-2.47567 0.0433,-3.88612 0.076,-1.41044 0.25631,-2.9822 0.50033,-4.12478 0.24403,-1.14258 0.56435,-1.88503 0.88612,-2.3723 0.32177,-0.48727 0.7132,-0.80541 0.99348,-0.29293 0.28028,0.51248 0.56152,1.89036 0.81172,3.46891 0.2502,1.57856 0.47781,3.39756 0.79076,4.59721 0.31294,1.19965 0.96982,2.14987 1.36985,1.66308 0.40003,-0.48678 1.20465,-1.46591 1.90995,-2.73061 0.70529,-1.2647 1.31397,-2.81832 1.84342,-4.14971 0.52945,-1.33139 0.98177,-2.44589 1.30421,-2.23984 0.32244,0.20605 0.51536,1.73181 0.63909,3.14788 0.12373,1.41607 0.17897,2.74022 -0.12796,4.66776 -0.30692,1.92755 -0.97998,4.5098 -1.28988,6.38252 -0.30989,1.87272 -0.26356,3.06251 -0.23797,4.38651 0.0256,1.32399 0.0305,2.80289 -0.29964,3.93905 -0.33019,1.13616 -1.18863,2.1814 -1.9922,2.58398 -0.80356,0.40258 -1.83282,0.29962 -2.62147,-0.0805 -0.78865,-0.38012 -1.53948,-1.09637 -2.465,-1.28952 -0.92552,-0.19315 -2.1356,0.0775 -2.83131,0.0684 -0.69572,-0.009 -0.91408,-0.28988 -1.02316,-0.43013 -0.10907,-0.14025 -0.10915,-0.14025 -0.32742,-0.60017 z" /></g></svg>
