<?xml version="1.0" encoding="UTF-8" standalone="no"?>
<!DOCTYPE svg PUBLIC "-//W3C//DTD SVG 1.1//EN" "http://www.w3.org/Graphics/SVG/1.1/DTD/svg11.dtd">
<svg width="100%" height="100%" viewBox="0 0 74 192" version="1.1" xmlns="http://www.w3.org/2000/svg" xmlns:xlink="http://www.w3.org/1999/xlink" xml:space="preserve" xmlns:serif="http://www.serif.com/" style="fill-rule:evenodd;clip-rule:evenodd;stroke-linecap:round;stroke-linejoin:round;">
    <g transform="matrix(1,0,0,1,-867.721808,-849.224787)">
        <g transform="matrix(5.669291,0,0,5.669291,0,0)">
            <path id="Maxillary-Central" serif:id="Maxillary Central" d="M157.211,170.849C157.379,170.356 157.547,169.863 157.776,169.476C158.004,169.088 158.294,168.806 158.707,168.529C159.121,168.252 159.659,167.981 160.211,167.834C160.762,167.688 161.327,167.667 161.769,167.685C162.212,167.702 162.531,167.757 162.901,167.877C163.271,167.996 163.69,168.18 164.109,168.365M163.847,182.665C164.108,182.287 164.373,181.601 164.661,180.751C164.95,179.901 165.262,178.888 165.394,177.703C165.527,176.518 165.48,175.162 165.386,173.961C165.293,172.761 165.152,171.716 164.934,170.773C164.716,169.83 164.42,168.988 164.108,168.13C163.796,167.273 163.469,166.4 163.071,165.34C162.673,164.279 162.206,163.032 161.621,161.723C161.036,160.413 160.335,159.041 159.586,157.685C158.838,156.328 158.043,154.987 157.466,153.974C156.889,152.961 156.531,152.275 156.219,151.776C155.907,151.277 155.642,150.965 155.4,150.739C155.159,150.513 154.94,150.373 154.707,150.318C154.473,150.263 154.223,150.295 154.013,150.482C153.802,150.669 153.631,151.012 153.576,151.565C153.522,152.119 153.584,152.883 153.717,154.247C153.849,155.611 154.052,157.575 154.239,159.189C154.426,160.803 154.597,162.066 154.816,163.321C155.034,164.576 155.299,165.823 155.611,166.914C155.923,168.006 156.281,168.941 156.531,169.518C156.78,170.095 156.92,170.313 157.022,170.531C157.123,170.75 157.185,170.968 157.154,171.233C157.123,171.498 156.998,171.81 156.944,172.254C156.889,172.698 156.905,173.275 157.053,173.844C157.201,174.413 157.482,174.975 157.829,175.497C158.175,176.019 158.589,176.503 158.943,176.873C159.298,177.243 159.594,177.5 159.871,177.758C160.148,178.015 160.405,178.272 160.619,178.596C160.834,178.919 161.005,179.309 161.153,179.714C161.301,180.12 161.426,180.541 161.543,180.923C161.66,181.305 161.769,181.648 161.929,181.967C162.089,182.287 162.299,182.583 162.498,182.782C162.697,182.981 162.884,183.082 163.106,183.097C163.328,183.113 163.585,183.043 163.847,182.665L163.847,182.665Z" style="fill:none;fill-rule:nonzero;stroke:rgb(128,0,128);stroke-width:1px;"/>
        </g>
    </g>
</svg>
