<?xml version="1.0" encoding="UTF-8" standalone="no"?>
<!DOCTYPE svg PUBLIC "-//W3C//DTD SVG 1.1//EN" "http://www.w3.org/Graphics/SVG/1.1/DTD/svg11.dtd">
<svg width="100%" height="100%" viewBox="0 0 87 161" version="1.1" xmlns="http://www.w3.org/2000/svg" xmlns:xlink="http://www.w3.org/1999/xlink" xml:space="preserve" xmlns:serif="http://www.serif.com/" style="fill-rule:evenodd;clip-rule:evenodd;stroke-linecap:round;stroke-linejoin:round;">
    <g transform="matrix(1,0,0,1,-639.98938,-826.160678)">
        <g transform="matrix(5.669291,0,0,5.669291,0,0)">
            <path id="Maxillary-Molar" serif:id="Maxillary Molar" d="M115.524,162.686C116.009,162.487 116.494,162.289 117.034,162.245C117.574,162.201 118.17,162.311 118.726,162.449C119.283,162.586 119.801,162.752 120.49,162.967C121.179,163.182 122.039,163.446 122.734,163.667C123.428,163.887 123.957,164.064 124.409,164.323C124.861,164.582 125.236,164.924 125.611,165.265M119.856,151.375C120.165,150.824 120.474,150.272 120.755,149.605C121.036,148.938 121.289,148.156 121.504,147.593C121.719,147.031 121.896,146.689 122.083,146.474C122.271,146.259 122.469,146.171 122.634,146.259C122.8,146.348 122.932,146.612 123.004,146.993C123.075,147.373 123.086,147.869 123.13,148.387C123.175,148.905 123.252,149.445 123.279,149.942C123.307,150.438 123.285,150.89 123.274,151.298C123.263,151.705 123.263,152.069 123.247,152.389C123.23,152.709 123.197,152.984 123.23,153.249C123.263,153.513 123.363,153.767 123.462,154.021M114.234,170.352C114.016,169.892 113.579,168.972 113.439,168.115C113.298,167.257 113.454,166.462 113.782,165.651C114.109,164.841 114.608,164.014 115.06,163.274C115.512,162.533 115.918,161.878 116.151,161.255C116.385,160.631 116.448,160.039 116.448,159.314C116.448,158.589 116.385,157.731 116.346,156.835C116.307,155.938 116.292,155.003 116.338,154.138C116.385,153.272 116.494,152.477 116.588,151.667C116.681,150.856 116.759,150.03 116.931,149.281C117.102,148.533 117.367,147.862 117.648,147.371C117.929,146.88 118.225,146.568 118.42,146.405C118.615,146.241 118.708,146.225 118.825,146.342C118.942,146.459 119.082,146.709 119.184,147.161C119.285,147.613 119.347,148.268 119.456,149.078C119.566,149.889 119.721,150.856 119.823,151.674C119.924,152.493 119.971,153.163 120.057,153.904C120.143,154.644 120.267,155.455 120.393,156.112C120.519,156.769 120.645,157.273 120.863,157.367C121.082,157.46 121.392,157.144 121.89,156.557C122.388,155.97 123.074,155.112 123.627,154.208C124.18,153.304 124.601,152.352 124.898,151.596C125.194,150.84 125.365,150.279 125.537,149.78C125.708,149.281 125.88,148.845 126.032,148.517C126.184,148.19 126.316,147.971 126.433,147.781C126.55,147.59 126.652,147.426 126.819,147.629C126.987,147.831 127.221,148.4 127.353,149.137C127.486,149.874 127.517,150.778 127.564,151.698C127.61,152.618 127.673,153.553 127.634,154.379C127.595,155.206 127.454,155.923 127.291,156.679C127.127,157.435 126.94,158.23 126.761,158.924C126.581,159.618 126.41,160.21 126.231,160.771C126.051,161.333 125.864,161.863 125.763,162.44C125.661,163.017 125.646,163.64 125.693,164.474C125.739,165.308 125.849,166.353 125.887,167.343C125.926,168.333 125.895,169.268 125.833,170.032C125.771,170.796 125.677,171.389 125.412,171.833C125.147,172.277 124.71,172.574 124.258,172.823C123.806,173.073 123.338,173.275 122.964,173.408C122.59,173.54 122.309,173.603 121.99,173.525C121.67,173.447 121.312,173.228 120.93,172.971C120.548,172.714 120.142,172.418 119.799,172.137C119.456,171.856 119.176,171.591 118.996,171.381C118.817,171.17 118.739,171.015 118.482,171.022C118.225,171.03 117.788,171.202 117.344,171.326C116.899,171.451 116.447,171.529 116.073,171.576C115.699,171.623 115.403,171.638 115.146,171.506C114.888,171.373 114.67,171.093 114.561,170.952C114.452,170.812 114.452,170.812 114.234,170.352L114.234,170.352Z" style="fill:none;fill-rule:nonzero;stroke:rgb(128,0,128);stroke-width:1px;"/>
        </g>
    </g>
</svg>
