<?xml version="1.0" encoding="UTF-8" standalone="no"?>
<!-- Created with Inkscape (http://www.inkscape.org/) -->

<svg
   width="12.180335mm"
   height="32.663357mm"
   viewBox="0 0 12.180335 32.663357"
   version="1.1"
   id="svg1"
   xml:space="preserve"
   xmlns="http://www.w3.org/2000/svg"
   xmlns:svg="http://www.w3.org/2000/svg"><defs
     id="defs1" /><g
     id="layer1"
     transform="translate(-153.61885,-150.27464)"><path
       id="path15"
       style="display:inline;opacity:1;fill:none;fill-opacity:1;stroke:#800080;stroke-width:1;stroke-linecap:round;stroke-linejoin:round;paint-order:stroke fill markers"
       d="m 157.21093,170.84901 c 0.63184,-0.84057 1.36224,-1.81225 2.00816,-2.31294 0.64592,-0.5007 1.31955,-0.68291 2.12783,-0.6607 0.80828,0.0222 1.8018,0.25961 2.76256,0.48919 m -0.23529,13.65077 c 0.5453,-0.74118 1.1223,-2.44101 1.33036,-4.39396 0.20806,-1.95295 0.0472,-4.15956 -0.25312,-5.93527 -0.30028,-1.7757 -0.7518,-3.15988 -1.50775,-5.12404 -0.75596,-1.96417 -1.82538,-4.53469 -3.08758,-7.12674 -1.2622,-2.59206 -2.72308,-5.2195 -3.72169,-6.75152 -0.99861,-1.53202 -1.62479,-2.0419 -1.9309,-1.885 -0.3061,0.1569 -0.72777,2.29858 -0.53648,5.08338 0.1913,2.78479 0.83037,7.09094 1.39366,9.80256 0.56328,2.71162 1.06117,3.87498 1.27048,4.80938 0.20931,0.9344 0.13892,1.70204 0.22511,2.47555 0.0862,0.7735 0.34509,1.56922 0.96915,2.49145 0.62407,0.92222 1.63541,2.00046 2.36498,3.14772 0.72956,1.14725 1.19306,2.38981 1.7061,3.11742 0.51303,0.7276 1.23239,1.03024 1.77768,0.28907 z" /></g></svg>
