<?xml version="1.0" encoding="UTF-8" standalone="no"?>
<!-- Created with Inkscape (http://www.inkscape.org/) -->

<svg
   width="55.901039mm"
   height="10.952798mm"
   viewBox="0 0 55.901039 10.952798"
   version="1.1"
   id="svg1"
   xml:space="preserve"
   xmlns="http://www.w3.org/2000/svg"
   xmlns:svg="http://www.w3.org/2000/svg"><defs
     id="defs1" /><g
     id="layer1"
     transform="translate(1.0291667,-129.27817)"><path
       style="fill:none;stroke:#008080;stroke-width:1;stroke-linecap:round;stroke-linejoin:round;paint-order:stroke fill markers"
       d="m -0.52916666,132.68854 c 1.54340276,0 3.08680556,0 5.07120456,-0.0661 1.9843991,-0.0661 4.4096976,-0.19844 7.1217071,-0.37483 2.712009,-0.17639 5.71056,-0.39687 8.356417,-0.44096 2.645856,-0.0441 4.938865,0.0882 6.790962,0.26458 1.852098,0.17639 3.263154,0.39687 4.586096,1.05834 1.322942,0.66147 2.557641,1.76388 4.321552,2.77813 1.763911,1.01424 4.056919,1.94027 5.997214,2.62378 1.940295,0.68351 3.527763,1.12447 5.093229,1.19061 1.565467,0.0661 3.108841,-0.24253 4.299473,-0.92605 1.190632,-0.68351 2.028465,-1.74183 2.513535,-3.3073 0.48507,-1.56547 0.617359,-3.638 0.749651,-5.71057"
       id="path26" /></g></svg>
