<?xml version="1.0" encoding="UTF-8" standalone="no"?>
<!DOCTYPE svg PUBLIC "-//W3C//DTD SVG 1.1//EN" "http://www.w3.org/Graphics/SVG/1.1/DTD/svg11.dtd">
<svg width="100%" height="100%" viewBox="0 0 86 277" version="1.1" xmlns="http://www.w3.org/2000/svg" xmlns:xlink="http://www.w3.org/1999/xlink" xml:space="preserve" xmlns:serif="http://www.serif.com/" style="fill-rule:evenodd;clip-rule:evenodd;stroke-linecap:round;stroke-linejoin:round;">
    <g transform="matrix(1,0,0,1,-748.888621,-404.458849)">
        <g transform="matrix(5.669291,0,0,5.669291,0,0)">
            <path id="Orbital-Rim" serif:id="Orbital Rim" d="M144.9,71.842C143.591,73.058 142.281,74.274 141.143,75.677C140.005,77.081 139.038,78.671 138.243,80.09C137.448,81.508 136.824,82.756 136.185,84.424C135.546,86.092 134.891,88.181 134.314,90.333C133.737,92.484 133.238,94.698 132.958,96.647C132.677,98.596 132.615,100.28 132.599,102.119C132.583,103.959 132.615,105.955 132.817,107.716C133.02,109.478 133.394,111.006 133.862,112.253C134.33,113.5 134.891,114.467 135.592,115.371C136.294,116.276 137.136,117.118 138.009,117.772C138.882,118.427 139.786,118.895 140.628,119.191C141.47,119.487 142.25,119.612 142.858,119.628C143.466,119.643 143.902,119.55 144.292,119.441C144.682,119.331 145.025,119.207 145.415,118.973C145.804,118.739 146.241,118.396 146.677,118.053" style="fill:none;fill-rule:nonzero;stroke:black;stroke-width:1px;"/>
        </g>
    </g>
</svg>
