<?xml version="1.0" encoding="UTF-8" standalone="no"?>
<!-- Created with Inkscape (http://www.inkscape.org/) -->

<svg
   width="14.957779mm"
   height="48.146996mm"
   viewBox="0 0 14.957779 48.146996"
   version="1.1"
   id="svg1"
   xml:space="preserve"
   xmlns="http://www.w3.org/2000/svg"
   xmlns:svg="http://www.w3.org/2000/svg"><defs
     id="defs1" /><g
     id="layer1"
     transform="translate(-132.21966,-71.342047)"><path
       style="opacity:1;fill:none;fill-opacity:1;stroke:#000000;stroke-width:1;stroke-linecap:round;stroke-linejoin:round;paint-order:stroke fill markers"
       d="m 144.90017,71.842047 c -1.30962,1.216077 -2.61924,2.432154 -4.09857,4.554493 -1.47933,2.122338 -3.14373,5.179127 -4.40164,8.256283 -1.2579,3.077157 -2.13236,6.217207 -2.69389,8.691327 -0.56152,2.47412 -0.81109,4.285412 -0.924,6.653181 -0.1129,2.367769 -0.0894,5.321569 0.22066,7.708819 0.31003,2.38725 0.91919,4.28241 1.63059,5.72298 0.71139,1.44057 1.55389,2.51124 2.78629,3.45623 1.2324,0.94498 3.11288,1.89381 4.60262,2.07054 1.48975,0.17674 3.25247,-0.4245 4.65521,-0.90295"
       id="path9" /></g></svg>
