<?xml version="1.0" encoding="UTF-8" standalone="no"?>
<!DOCTYPE svg PUBLIC "-//W3C//DTD SVG 1.1//EN" "http://www.w3.org/Graphics/SVG/1.1/DTD/svg11.dtd">
<svg width="100%" height="100%" viewBox="0 0 27 148" version="1.1" xmlns="http://www.w3.org/2000/svg" xmlns:xlink="http://www.w3.org/1999/xlink" xml:space="preserve" xmlns:serif="http://www.serif.com/" style="fill-rule:evenodd;clip-rule:evenodd;stroke-linecap:round;stroke-linejoin:round;">
    <g transform="matrix(1,0,0,1,-535.331873,-636.850177)">
        <g transform="matrix(5.669291,0,0,5.669291,0,0)">
            <path id="Pterygomaxillary-Suture" serif:id="Pterygomaxillary Suture" d="M98.533,119.402C98.518,117.835 98.44,116.307 98.354,115.239C98.268,114.171 98.175,113.563 97.918,113.22C97.66,112.877 97.239,112.799 96.85,112.846C96.46,112.892 96.101,113.064 95.797,113.407C95.493,113.75 95.244,114.264 95.096,115.161C94.947,116.057 94.901,117.336 94.94,118.848C94.979,120.36 95.103,122.107 95.283,124.001C95.462,125.895 95.696,127.937 95.906,129.73C96.117,131.523 96.304,133.067 96.468,134.221C96.631,135.374 96.772,136.138 96.818,136.793C96.865,137.448 96.818,137.993 96.928,137.861C97.037,137.728 97.302,136.918 97.504,136.099C97.707,135.281 97.847,134.454 97.988,133.238C98.128,132.022 98.268,130.416 98.346,128.842C98.424,127.267 98.44,125.724 98.471,124.149C98.502,122.574 98.549,120.968 98.533,119.402L98.533,119.402Z" style="fill:none;fill-rule:nonzero;stroke:black;stroke-width:1px;"/>
        </g>
    </g>
</svg>
