<?xml version="1.0" encoding="UTF-8" standalone="no"?>
<!-- Created with Inkscape (http://www.inkscape.org/) -->

<svg
   width="4.6101894mm"
   height="26.042484mm"
   viewBox="0 0 4.6101894 26.042484"
   version="1.1"
   id="svg1"
   xml:space="preserve"
   xmlns="http://www.w3.org/2000/svg"
   xmlns:svg="http://www.w3.org/2000/svg"><defs
     id="defs1" /><g
     id="layer1"
     transform="translate(-94.426277,-112.33438)"><path
       style="opacity:1;fill:none;fill-opacity:1;stroke:#000000;stroke-width:1;stroke-linecap:round;stroke-linejoin:round;paint-order:stroke fill markers"
       d="m 98.533364,119.40154 c -0.01559,-1.56686 -0.09354,-3.09475 -0.179293,-4.16272 -0.08575,-1.06797 -0.179293,-1.676 -0.436548,-2.019 -0.257255,-0.343 -0.678189,-0.42095 -1.06796,-0.37417 -0.389771,0.0468 -0.748352,0.21827 -1.052372,0.56127 -0.30402,0.343 -0.553465,0.85748 -0.701579,1.75396 -0.148114,0.89648 -0.194885,2.17489 -0.155907,3.68721 0.03898,1.51232 0.163701,3.25845 0.342996,5.15274 0.179295,1.89429 0.413152,3.93664 0.623628,5.72959 0.210476,1.79294 0.397561,3.33639 0.561265,4.49012 0.163705,1.15372 0.304019,1.91765 0.35079,2.57246 0.04677,0.65482 1e-6,1.20048 0.109139,1.06795 0.109138,-0.13253 0.374175,-0.94323 0.576856,-1.76175 0.202681,-0.81852 0.342994,-1.64481 0.483312,-2.86091 0.140319,-1.21609 0.280633,-2.8219 0.358586,-4.39658 0.07795,-1.57468 0.09354,-3.11813 0.124724,-4.6928 0.03118,-1.57468 0.07795,-3.1805 0.06236,-4.74737 z"
       id="path11" /></g></svg>
