<?xml version="1.0" encoding="UTF-8" standalone="no"?>
<!-- Created with Inkscape (http://www.inkscape.org/) -->

<svg
   width="99.311867mm"
   height="81.159149mm"
   viewBox="0 0 99.311867 81.159149"
   version="1.1"
   id="svg1"
   xml:space="preserve"
   xmlns="http://www.w3.org/2000/svg"
   xmlns:svg="http://www.w3.org/2000/svg"><defs
     id="defs1" /><g
     id="layer1"
     transform="translate(-45.915213,-51.934841)"><path
       id="path25"
       style="fill:none;stroke:#008080;stroke-width:1;stroke-linecap:round;stroke-linejoin:round;paint-order:stroke fill markers"
       d="m 126.03384,74.515631 c 1.99774,-0.232293 3.99549,-0.464588 6.32833,-0.823275 2.33285,-0.358687 5.00068,-0.843746 7.11736,-1.218575 2.11668,-0.374828 3.6821,-0.639407 5.24755,-0.90399 M 91.347395,86.915624 c 1.256771,-0.396875 2.513541,-0.79375 4.453846,-1.389071 1.940305,-0.59532 4.564039,-1.389055 7.066579,-2.182813 2.50254,-0.793758 4.88374,-1.587491 7.35321,-2.45842 2.46947,-0.87093 5.02706,-1.819002 7.47471,-2.74639 2.44765,-0.927388 4.66564,-1.787659 6.4734,-2.749482 1.80777,-0.961823 2.82511,-1.814277 4.20871,-3.078337 1.38361,-1.26406 3.02049,-2.845039 4.47573,-4.443597 1.45524,-1.598557 2.72868,-3.214527 3.68914,-4.686679 0.96046,-1.472152 1.60786,-2.800362 2.0631,-4.567421 0.45523,-1.767058 0.71824,-3.972794 0.98126,-6.178573 m -31.44983,35.309744 c -0.31181,2.619242 -0.62363,5.238482 -0.9525,7.349297 -0.32886,2.110814 -0.67477,3.713137 -1.24461,5.440368 -0.56984,1.72724 -1.36358,3.57929 -2.59832,5.28807 -1.23474,1.70879 -2.9104,3.27421 -4.82865,4.53099 -1.918249,1.25678 -4.078969,2.20485 -7.011471,3.09783 -2.932502,0.89297 -6.636595,1.7308 -9.866744,2.57968 -3.230148,0.84888 -5.986169,1.70876 -8.56588,2.66789 -2.579712,0.95912 -4.982963,2.01744 -7.287067,3.15295 -2.304103,1.13552 -4.50892,2.34817 -6.625606,3.84749 -2.116685,1.49932 -4.145116,3.28522 -5.479063,4.4979 -1.333947,1.21268 -1.973346,1.85208 -2.767105,2.16077 -0.793758,0.30869 -1.741834,0.28665 -2.535588,0.0772 -0.793755,-0.20946 -1.433155,-0.60633 -1.741834,-1.22369 -0.308679,-0.61737 -0.286629,-1.4552 0.06616,-2.43638 0.352785,-0.98117 1.036279,-2.10563 2.138726,-3.52778 1.102447,-1.42216 2.623768,-3.14191 4.189236,-4.83967 1.565467,-1.69776 3.174982,-3.37342 5.20348,-6.10749 2.028499,-2.73407 4.475843,-6.52635 6.283841,-9.32654 1.807997,-2.80019 2.976549,-4.60814 4.10104,-6.493318 1.12449,-1.885177 2.204851,-3.847464 2.88836,-5.016044 0.68351,-1.16858 0.970137,-1.5434 1.378042,-1.785936 0.407904,-0.242535 0.93706,-0.352776 1.521355,-0.237017 0.584295,0.115759 1.223677,0.457497 1.433144,1.063848 0.209466,0.60635 -0.01102,1.477251 -0.110233,2.342668 -0.09922,0.865417 -0.07717,1.725294 0.198446,2.519052 0.275614,0.793758 0.80477,1.521347 1.620579,2.039493 0.815809,0.518146 1.918216,0.826824 3.152953,0.892964 1.234738,0.0661 2.601723,-0.11024 3.847482,-0.518147 1.245758,-0.407906 2.370214,-1.047303 3.174993,-1.796964 0.804779,-0.749661 1.289839,-1.609542 1.444178,-2.623788 0.154338,-1.014247 -0.02205,-2.182801 -0.407903,-3.0868 -0.385856,-0.903999 -0.981158,-1.543397 -1.719795,-2.006421 -0.738637,-0.463024 -1.620566,-0.74965 -2.386761,-0.981162 -0.766194,-0.231512 -1.416604,-0.407895 -1.477239,-0.793753 -0.06063,-0.385858 0.468512,-0.981147 1.157544,-1.455201 0.689033,-0.474055 1.53787,-0.826819 2.304075,-0.892966 0.766205,-0.06615 1.449698,0.154335 2.794684,0.474044 1.344986,0.319709 3.351369,0.738624 5.677524,0.98116 2.326154,0.242535 4.971931,0.308679 7.926481,0.198433 2.95455,-0.110246 6.21768,-0.396872 9.88881,-1.036292 3.67114,-0.63942 7.75005,-1.631587 11.28888,-2.634809 3.53883,-1.003221 6.53738,-2.017437 8.83045,-2.756071 2.29308,-0.738634 3.88054,-1.201644 5.33576,-1.642621 1.45523,-0.440978 2.77812,-0.859893 4.10103,-1.278815" /></g></svg>
