<?xml version="1.0" encoding="UTF-8" standalone="no"?>
<!-- Created with Inkscape (http://www.inkscape.org/) -->

<svg
   width="193.69037mm"
   height="133.43947mm"
   viewBox="0 0 193.69037 133.43947"
   version="1.1"
   id="svg1"
   xmlns:inkscape="http://www.inkscape.org/namespaces/inkscape"
   xmlns:sodipodi="http://sodipodi.sourceforge.net/DTD/sodipodi-0.dtd"
   xmlns="http://www.w3.org/2000/svg"
   xmlns:svg="http://www.w3.org/2000/svg">
  <sodipodi:namedview
     id="namedview1"
     pagecolor="#ffffff"
     bordercolor="#000000"
     borderopacity="0.25"
     inkscape:showpageshadow="2"
     inkscape:pageopacity="0.0"
     inkscape:pagecheckerboard="0"
     inkscape:deskcolor="#d1d1d1"
     inkscape:document-units="mm">
    <inkscape:page
       x="0"
       y="0"
       width="193.69037"
       height="133.43947"
       id="page2"
       margin="0"
       bleed="0" />
  </sodipodi:namedview>
  <defs
     id="defs1">
    <inkscape:path-effect
       effect="bspline"
       id="path-effect7"
       is_visible="true"
       lpeversion="1.3"
       weight="33.333333"
       steps="2"
       helper_size="0"
       apply_no_weight="true"
       apply_with_weight="true"
       only_selected="false"
       uniform="false" />
  </defs>
  <g
     inkscape:label="Layer 1"
     inkscape:groupmode="layer"
     id="layer1"
     transform="translate(-8.7565052,-107.59192)">
    <path
       style="fill:none;fill-opacity:0.992157;stroke:#000000;stroke-width:1;stroke-linecap:round;stroke-linejoin:round;stroke-dasharray:none;stroke-opacity:1;paint-order:stroke fill markers"
       d="m 203.61702,95.577127 c -2.89628,0 -5.79255,0 -8.05985,0.14628 -2.26731,0.146279 -3.90558,0.438828 -5.85108,1.316502 -1.9455,0.877674 -4.19811,2.340408 -6.9774,3.847071 -2.77929,1.50667 -6.08507,3.05716 -9.65426,4.32978 -3.56919,1.27262 -7.40156,2.26728 -11.86304,2.96941 -4.46149,0.70213 -9.55182,1.1117 -13.15024,1.59442 -3.59843,0.48272 -5.70477,1.03856 -8.22076,1.85772 -2.51598,0.81916 -5.44146,1.90158 -8.35239,2.95479 -2.91093,1.0532 -5.80715,2.07711 -8.9375,3.04255 -3.13036,0.96543 -6.49465,1.87233 -10.04921,2.67685 -3.55456,0.80453 -7.29916,1.50664 -10.78058,2.17952 -3.481415,0.67288 -6.699436,1.31649 -9.288551,2.17953 -2.589115,0.86305 -4.54918,1.94547 -5.807165,2.88165 -1.257986,0.93618 -1.813822,1.72605 -2.018609,2.92554 -0.204788,1.19948 -0.05851,2.80849 0.102391,4.30053 0.160906,1.49203 0.336435,2.86701 0.29255,4.11037 -0.04389,1.24336 -0.307178,2.35504 -0.936176,3.53989 -0.628998,1.18485 -1.623662,2.44281 -2.910911,3.59841 -1.287249,1.15559 -2.867006,2.20876 -4.30053,2.94015 -1.433525,0.73138 -2.720731,1.14095 -4.06649,1.28722 -1.345759,0.14628 -2.749985,0.0293 -4.007975,-0.36569 -1.257989,-0.39495 -2.36967,-1.06781 -3.144941,-1.85771 -0.775272,-0.78991 -1.21409,-1.6968 -1.418878,-2.55985 -0.204789,-0.86304 -0.175536,-1.68217 0.160906,-2.45744 0.336443,-0.77528 0.980043,-1.50664 1.81383,-2.35506 0.833788,-0.84841 1.857707,-1.81382 2.706117,-2.76462 0.84841,-0.95081 1.521269,-1.88696 1.667541,-2.80851 0.146272,-0.92156 -0.234037,-1.82845 -0.877664,-2.34042 -0.643627,-0.51197 -1.550523,-0.62899 -2.574471,-0.3218 -1.023947,0.30719 -2.164879,1.03855 -3.510641,2.51597 -1.345761,1.47742 -2.896263,3.70078 -4.622345,6.20213 -1.726082,2.50136 -3.627641,5.28056 -5.77793,8.49868 -2.15029,3.21812 -4.549181,6.87497 -7.079792,10.97076 -2.530612,4.09579 -5.192791,8.63027 -7.240678,12.15556 -2.047887,3.52529 -3.481371,6.0412 -5.397616,9.3032 -1.916245,3.26201 -4.315134,7.26991 -6.421534,10.70744 -2.106401,3.43753 -3.920197,6.3045 -5.573137,8.98138 -1.65294,2.67689 -3.144931,5.16354 -4.271269,7.10903 -1.126339,1.9455 -1.886958,3.34972 -2.647605,4.66623 -0.760648,1.3165 -1.521267,2.54519 -2.16489,4.08112 -0.643624,1.53592 -1.17021,3.37897 -1.374996,4.79786 -0.204786,1.41889 -0.08777,2.41356 0.190163,3.21809 0.277929,0.80452 0.716751,1.41887 1.462772,1.84307 0.746021,0.42421 1.799193,0.65825 2.998674,0.48271 1.199482,-0.17554 2.545198,-0.76063 4.315168,-1.93087 1.76997,-1.17023 3.964073,-2.92551 6.831128,-5.1782 2.867056,-2.25268 6.406881,-5.00263 10.722092,-7.95745 4.315211,-2.95482 9.405535,-6.11433 13.852381,-8.6303 4.446846,-2.51598 8.249961,-4.38828 11.877655,-5.93882 3.627695,-1.55055 7.079754,-2.77925 10.531915,-3.81782 3.45216,-1.03857 6.904221,-1.88696 10.297871,-2.5891 3.393651,-0.70213 6.72869,-1.25797 10.122341,-2.12101 3.39365,-0.86305 6.845719,-2.03324 9.946809,-3.32049 3.10109,-1.28724 5.85103,-2.69147 8.20611,-4.08111 2.35507,-1.38964 4.31514,-2.76461 6.31915,-4.40293 2.00401,-1.63832 4.05184,-3.53987 5.89494,-5.26595 1.8431,-1.72608 3.48137,-3.27658 4.98803,-4.87102 1.50666,-1.59443 2.88163,-3.23269 4.49069,-6.09976 1.60907,-2.86706 3.45211,-6.96272 4.57845,-10.89759 1.12633,-3.93488 1.5359,-7.70874 1.91622,-11.13165 0.38032,-3.4229 0.73138,-6.49465 0.83377,-9.31782 0.10239,-2.82316 -0.0439,-5.39757 -0.11702,-7.63562 -0.0731,-2.23805 -0.0731,-4.13961 0.24868,-6.11436 0.32181,-1.97476 0.96542,-4.02259 1.60904,-6.07046"
       id="path7"
       inkscape:path-effect="#path-effect7"
       inkscape:original-d="m 203.61702,95.577127 c -2.89628,0 -5.79255,0 -8.68883,0 -1.63833,0.292558 -3.2766,0.585105 -4.91489,0.87766 -2.25271,1.462794 -4.50532,2.925532 -6.75798,4.388293 -3.30592,1.55057 -6.6117,3.10107 -9.91756,4.6516 -3.83252,0.9947 -7.66489,1.98936 -11.49734,2.98404 -5.09052,0.40958 -10.18085,0.81915 -15.27127,1.22873 -2.10643,0.55586 -4.21277,1.1117 -6.31915,1.66755 -2.92559,1.08247 -5.85107,2.16489 -8.7766,3.24734 -2.89633,1.02396 -5.79255,2.04787 -8.68883,3.07181 -3.36443,0.90693 -6.72872,1.81383 -10.09308,2.72074 -3.74476,0.70214 -7.48936,1.40426 -11.23404,2.10638 -3.218154,0.64364 -6.436176,1.28724 -9.65426,1.93086 -1.960145,1.08247 -3.920212,2.16489 -5.88032,3.24734 -0.55586,0.78991 -1.1117,1.57978 -1.667552,2.36968 0.14628,1.60907 0.292552,3.21808 0.43883,4.82713 0.175535,1.37502 0.351065,2.75 0.526595,4.125 -0.263303,1.11172 -0.526595,2.2234 -0.789893,3.3351 -0.994701,1.258 -1.989362,2.51596 -2.984042,3.77394 -1.579819,1.05321 -3.159575,2.10638 -4.739362,3.15957 -1.287259,0.40959 -2.574467,0.81915 -3.861702,1.22872 -1.404284,-0.11702 -2.80851,-0.23404 -4.212767,-0.35106 -1.111724,-0.67288 -2.223403,-1.34574 -3.335105,-2.01861 -0.438838,-0.90694 -0.87766,-1.81383 -1.31649,-2.72075 0.02925,-0.81917 0.05851,-1.6383 0.08776,-2.45745 0.643631,-0.7314 1.287235,-1.46276 1.930852,-2.19415 1.023956,-0.96544 2.047873,-1.93085 3.071808,-2.89627 0.672885,-0.93619 1.345745,-1.87234 2.018617,-2.80851 -0.380325,-0.90694 -0.760637,-1.81383 -1.140957,-2.72075 -0.906934,-0.11702 -1.81383,-0.23404 -2.720745,-0.35106 -1.140979,0.7314 -2.281915,1.46276 -3.422872,2.19415 -1.550562,2.22345 -3.101063,4.44681 -4.651595,6.67021 -1.901634,2.77931 -3.803192,5.55851 -5.704787,8.33776 -2.398985,3.65699 -4.797872,7.31384 -7.196809,10.97075 -2.662288,4.53467 -5.324467,9.06915 -7.986702,13.60372 -1.433539,2.51601 -2.867023,5.03192 -4.300532,7.54787 -2.398983,4.00806 -4.797872,8.01596 -7.196807,12.02394 -1.813867,2.86708 -3.627661,5.73405 -5.441491,8.60107 -1.492051,2.48675 -2.984042,4.9734 -4.476063,7.4601 -0.760654,1.40429 -1.521277,2.80851 -2.281915,4.21277 -0.760654,1.22875 -1.521277,2.45744 -2.281915,3.68617 -0.526606,1.84312 -1.053192,3.68617 -1.579787,5.52925 0.117023,0.9947 0.234042,1.98937 0.351064,2.98405 0.438838,0.61437 0.877659,1.22872 1.316489,1.84308 1.053212,0.23405 2.106383,0.46809 3.159574,0.70213 1.345772,-0.58512 2.69149,-1.17021 4.037234,-1.75532 2.194193,-1.75536 4.388298,-3.51064 6.582447,-5.26596 3.539964,-2.75005 7.079787,-5.5 10.619682,-8.25 5.090525,-3.15964 10.180849,-6.31915 15.271276,-9.47872 3.803266,-1.87238 7.606382,-3.74468 11.409574,-5.61702 3.452196,-1.22875 6.904255,-2.45745 10.356382,-3.68617 3.452196,-0.84842 6.904257,-1.69681 10.356384,-2.54522 3.335173,-0.55586 6.670212,-1.1117 10.005319,-1.66755 3.452196,-1.17023 6.904263,-2.34042 10.356383,-3.51064 2.75006,-1.40428 5.5,-2.80851 8.25,-4.21276 1.96015,-1.37503 3.92022,-2.75 5.88032,-4.125 2.04792,-1.90164 4.09575,-3.80319 6.14362,-5.70479 1.63833,-1.55056 3.2766,-3.10106 4.91489,-4.65159 1.37503,-1.63834 2.75,-3.2766 4.125,-4.9149 1.84313,-4.09583 3.68617,-8.19149 5.52926,-12.28723 0.40958,-3.77401 0.81915,-7.54787 1.22872,-11.32181 0.35107,-3.07187 0.70213,-6.14362 1.05319,-9.21543 -0.14628,-2.57452 -0.29255,-5.14893 -0.43883,-7.7234 0,-1.90163 0,-3.80319 0,-5.70479 0.64363,-2.04791 1.28724,-4.09574 1.93086,-6.14361"
       transform="translate(-1.670137,12.514805)" />
  </g>
</svg>
