<?xml version="1.0" encoding="UTF-8" standalone="no"?>
<!-- Created with Inkscape (http://www.inkscape.org/) -->

<svg
   width="94.257729mm"
   height="239.11714mm"
   viewBox="0 0 94.257729 239.11714"
   version="1.1"
   id="svg1"
   xml:space="preserve"
   xmlns="http://www.w3.org/2000/svg"
   xmlns:svg="http://www.w3.org/2000/svg"><defs
     id="defs1" /><g
     id="layer1"
     transform="translate(-102.78962,-25.879502)"><path
       style="opacity:1;fill:none;fill-opacity:1;stroke:#008080;stroke-width:1;stroke-linecap:round;stroke-linejoin:round;paint-order:stroke fill markers"
       d="m 157.15448,26.379502 c 0.83378,2.022122 1.67729,4.067831 2.45229,6.457786 0.77499,2.389954 1.50919,5.204373 1.9552,7.567664 0.44601,2.363291 0.625,4.37663 1.25517,7.442621 0.63017,3.065991 1.71659,7.242118 2.57123,10.480398 0.85464,3.23828 1.47687,5.536328 1.83453,7.349045 0.35766,1.812717 0.45255,3.173672 0.47633,4.703996 0.0238,1.530324 -0.0217,3.238596 -0.2158,5.013311 -0.19407,1.774715 -0.53979,3.613343 -0.89549,5.023169 -0.35569,1.409825 -0.81512,2.65719 -0.80485,3.66734 0.0103,1.01015 0.33764,2.249761 0.89723,3.639022 0.5596,1.389261 1.36596,2.98446 2.33307,4.666839 0.96711,1.68238 2.10537,3.467984 4.5936,6.644058 2.48823,3.176079 6.35549,7.785359 8.99176,11.031169 2.63628,3.24582 4.05523,5.14425 5.67726,7.20301 1.62203,2.05876 3.44387,4.2736 4.70778,5.99811 1.26391,1.72452 1.98233,2.98127 2.52111,4.11079 0.53878,1.12951 0.90999,2.15769 1.01349,3.24259 0.1035,1.08489 -0.0828,2.42482 -0.47722,3.59173 -0.3944,1.16692 -1.04658,2.31687 -1.76404,3.29034 -0.71746,0.97348 -1.53438,1.83675 -2.46211,2.58115 -0.92773,0.7444 -1.93954,1.34763 -3.77732,2.22558 -1.83779,0.87794 -4.47894,2.01738 -6.76748,2.96088 -2.28854,0.9435 -4.26236,1.70557 -5.35745,2.39836 -1.09508,0.69279 -1.38912,1.34044 -1.59485,2.3137 -0.20573,0.97327 -0.29863,2.21005 -0.29647,3.80714 0.002,1.5971 0.1006,3.53879 0.22324,5.15079 0.12265,1.61201 0.27243,2.92083 0.76819,4.77391 0.49577,1.85309 1.70561,5.34197 1.70131,6.41512 -0.004,1.07314 -0.54996,1.89427 -1.29096,2.56505 -0.741,0.67077 -1.80597,1.3527 -2.8689,1.83455 -1.06293,0.48186 -2.29554,0.83849 -2.87622,1.08219 -0.58068,0.2437 -1.00955,0.87514 -0.5448,1.3054 0.46475,0.43027 1.42047,1.22437 2.22618,2.0543 0.80572,0.82993 1.43718,1.6735 1.7974,2.43564 0.36021,0.76213 0.46288,1.59588 0.36991,2.34359 -0.093,0.74772 -0.40421,1.64253 -1.42075,3.14897 -1.01654,1.50643 -2.79024,3.77494 -3.98307,5.37942 -1.19283,1.60448 -1.81319,2.55819 -2.08819,3.51177 -0.27499,0.95358 -0.20752,2.08989 0.33119,3.67693 0.53871,1.58703 1.56208,3.73536 2.29761,5.44127 0.73554,1.70591 1.20603,3.02278 1.55378,4.28955 0.34775,1.26677 0.59383,2.5574 0.6848,3.91296 0.091,1.35556 0.0384,2.83506 -0.0422,4.02257 -0.0805,1.18751 -0.19469,2.12956 -0.5711,3.31115 -0.3764,1.18159 -1.04726,2.74172 -2.03169,4.3295 -0.98443,1.58777 -2.39995,3.39832 -3.96081,4.8105 -1.56086,1.41218 -3.44805,2.63761 -5.10111,3.54763 -1.65307,0.91002 -3.20602,1.57557 -4.76116,1.96114 -1.55515,0.38558 -3.27522,0.55528 -8.67649,0.51079 -5.40126,-0.0445 -14.516,-0.30006 -21.09177,-0.45961 -6.57576,-0.15954 -10.70401,-0.22453 -13.24455,-0.14103 -2.54053,0.0835 -3.60508,0.2988 -4.35397,0.63 -0.74889,0.33119 -1.03455,0.73284 -1.37552,1.6421 -0.34097,0.90925 -0.71728,2.31074 -1.01394,4.1535 -0.29665,1.84276 -0.5241,4.16487 -0.75456,7.71526 -0.23045,3.55039 -0.46476,8.34772 -0.5654,11.10172 -0.10063,2.754 -0.0694,3.50236 -0.0382,4.25071"
       id="path12" /></g></svg>
