<?xml version="1.0" encoding="UTF-8" standalone="no"?>
<!DOCTYPE svg PUBLIC "-//W3C//DTD SVG 1.1//EN" "http://www.w3.org/Graphics/SVG/1.1/DTD/svg11.dtd">
<svg width="100%" height="100%" viewBox="0 0 536 1356" version="1.1" xmlns="http://www.w3.org/2000/svg" xmlns:xlink="http://www.w3.org/1999/xlink" xml:space="preserve" xmlns:serif="http://www.serif.com/" style="fill-rule:evenodd;clip-rule:evenodd;stroke-linecap:round;stroke-linejoin:round;">
    <g transform="matrix(1,0,0,1,-582.692625,-146.718437)">
        <g transform="matrix(5.669291,0,0,5.669291,0,0)">
            <path id="Soft-Tissue-Profile" serif:id="Soft Tissue Profile" d="M157.154,26.38C157.965,28.313 158.776,30.246 159.555,32.647C160.335,35.048 161.083,37.917 161.535,40.302C161.988,42.687 162.144,44.589 162.549,46.85C162.954,49.111 163.609,51.73 164.186,53.944C164.763,56.158 165.262,57.966 165.698,59.51C166.135,61.053 166.509,62.332 166.836,63.563C167.164,64.795 167.444,65.98 167.6,67.648C167.756,69.316 167.787,71.468 167.741,73.12C167.694,74.773 167.569,75.927 167.366,77.127C167.164,78.328 166.883,79.575 166.54,80.651C166.197,81.727 165.792,82.631 165.745,83.707C165.698,84.782 166.01,86.03 166.462,87.292C166.914,88.555 167.507,89.834 168.473,91.533C169.44,93.233 170.781,95.353 172.059,97.146C173.338,98.939 174.554,100.404 176.004,102.15C177.454,103.897 179.137,105.923 180.478,107.514C181.819,109.104 182.817,110.258 183.815,111.536C184.812,112.814 185.81,114.218 187.104,115.855C188.398,117.492 189.988,119.363 191.22,120.859C192.452,122.356 193.325,123.479 194.104,124.71C194.884,125.942 195.57,127.283 196.053,128.468C196.537,129.652 196.817,130.681 196.786,131.726C196.755,132.771 196.412,133.831 195.96,134.813C195.508,135.795 194.946,136.699 194.385,137.495C193.824,138.29 193.263,138.976 192.561,139.615C191.859,140.254 191.017,140.847 189.708,141.548C188.398,142.25 186.621,143.06 184.734,143.871C182.848,144.682 180.852,145.493 179.231,146.132C177.609,146.771 176.362,147.239 175.614,147.597C174.865,147.956 174.616,148.205 174.413,148.938C174.211,149.671 174.055,150.887 173.992,152.29C173.93,153.693 173.961,155.284 174.07,157.061C174.179,158.838 174.367,160.803 174.604,162.262C174.842,163.721 175.13,164.675 175.462,165.681C175.793,166.688 176.168,167.746 176.466,168.551C176.764,169.355 176.984,169.907 176.896,170.524C176.808,171.141 176.411,171.825 175.672,172.519C174.934,173.214 173.853,173.919 172.916,174.427C171.979,174.934 171.185,175.242 170.419,175.507C169.653,175.772 168.503,176.115 168.535,176.306C168.567,176.496 169.941,177.494 170.696,178.177C171.451,178.861 172.079,179.587 172.569,180.237C173.059,180.887 173.412,181.46 173.578,182.066C173.743,182.673 173.721,183.312 173.588,183.975C173.454,184.639 173.209,185.326 172.556,186.324C171.903,187.323 170.843,188.632 169.853,189.903C168.863,191.173 167.943,192.405 167.273,193.348C166.603,194.292 166.182,194.946 165.893,195.5C165.605,196.053 165.449,196.505 165.41,196.934C165.371,197.363 165.449,197.768 165.73,198.47C166.01,199.171 166.494,200.169 167.039,201.3C167.585,202.43 168.193,203.693 168.739,204.971C169.284,206.25 169.768,207.544 170.142,208.846C170.516,210.147 170.781,211.457 170.913,212.634C171.046,213.811 171.046,214.856 170.976,216.056C170.906,217.257 170.765,218.613 170.36,220.071C169.955,221.529 169.284,223.088 168.279,224.725C167.273,226.362 165.932,228.077 164.358,229.527C162.783,230.977 160.974,232.161 159.306,233.081C157.638,234.001 156.11,234.656 154.559,235.069C153.008,235.482 151.433,235.654 148.58,235.685C145.727,235.716 141.595,235.607 137.214,235.482C132.833,235.358 128.203,235.217 124.703,235.124C121.202,235.03 118.833,234.983 116.603,234.944C114.374,234.905 112.285,234.874 110.757,234.898C109.229,234.921 108.262,234.999 107.553,235.194C106.843,235.389 106.391,235.701 105.947,236.652C105.503,237.603 105.066,239.193 104.739,240.869C104.411,242.545 104.193,244.307 104.061,246.084C103.928,247.861 103.881,249.654 103.819,251.463C103.756,253.271 103.679,255.095 103.577,256.896C103.476,258.697 103.351,260.474 103.304,261.737C103.258,263 103.289,263.748 103.32,264.497" style="fill:none;fill-rule:nonzero;stroke:rgb(0,128,128);stroke-width:1px;"/>
        </g>
    </g>
</svg>
