<?xml version="1.0" encoding="UTF-8" standalone="no"?>
<!-- Created with Inkscape (http://www.inkscape.org/) -->

<svg
   width="194.16745mm"
   height="133.86612mm"
   viewBox="0 0 194.16745 133.86612"
   version="1.1"
   id="svg1"
   xmlns:inkscape="http://www.inkscape.org/namespaces/inkscape"
   xmlns:sodipodi="http://sodipodi.sourceforge.net/DTD/sodipodi-0.dtd"
   xmlns="http://www.w3.org/2000/svg"
   xmlns:svg="http://www.w3.org/2000/svg">
  <sodipodi:namedview
     id="namedview1"
     pagecolor="#ffffff"
     bordercolor="#000000"
     borderopacity="0.25"
     inkscape:showpageshadow="2"
     inkscape:pageopacity="0.0"
     inkscape:pagecheckerboard="0"
     inkscape:deskcolor="#d1d1d1"
     inkscape:document-units="mm">
    <inkscape:page
       x="0"
       y="-2.2823343e-20"
       width="194.16745"
       height="133.8661"
       id="page2"
       margin="0"
       bleed="0" />
  </sodipodi:namedview>
  <defs
     id="defs1" />
  <g
     inkscape:label="Layer 1"
     inkscape:groupmode="layer"
     id="layer1"
     transform="translate(-10.18722,-94.744867)">
    <path
       style="fill:#1d1d1d;stroke:none;stroke-width:0.5;stroke-dasharray:none;stroke-opacity:1"
       d="m 204.35467,95.157213 c -4.19555,-0.358488 -8.95922,-0.861654 -13.05468,0.369867 -3.95211,1.188433 -7.15501,4.11764 -10.77398,6.00838 -4.21248,2.20081 -8.88341,3.59357 -13.44026,4.88248 -7.41531,2.09744 -15.26934,1.48284 -22.78123,3.35692 -10.84189,2.70484 -21.0237,7.64449 -32.04441,10.15813 -7.85464,1.79151 -18.417073,1.74323 -25.367935,5.98616 -6.404398,3.90937 -2.283487,7.88424 -2.807282,13.46446 -0.428098,4.5606 -5.54726,8.5437 -9.472551,10.09984 -3.29939,1.30802 -11.617287,-0.78178 -9.857091,-5.82724 1.186192,-3.40013 5.665993,-4.60088 6.82775,-8.10546 1.223704,-3.69143 -3.775419,-4.91067 -6.146208,-3.19959 -3.851118,2.77947 -6.632002,7.87719 -9.252746,11.75753 -5.289217,7.83132 -10.346792,15.76838 -15.006579,23.99444 -2.638978,4.65867 -5.211507,10.64348 -8.852994,14.58772 -1.543973,1.67232 -5.053419,0.53931 -7.188015,0.83245 -4.867934,0.66851 -9.045634,4.15344 -10.710001,8.75562 -1.238855,3.42561 -1.306953,6.82959 -0.02673,10.26637 0.589093,1.58143 2.293551,3.21586 2.297194,4.93566 0.0028,1.31412 -1.072469,2.68823 -1.658177,3.8078 -2.145406,4.10097 -9.012627,15.13725 -1.237392,17.14034 5.023997,1.29431 10.116646,-4.64834 13.657552,-7.42559 10.392787,-8.15134 20.957623,-15.48936 32.976768,-21.06996 14.718082,-6.83374 30.910548,-7.20218 45.742127,-13.43515 8.15821,-3.4285 15.07297,-9.14406 21.26677,-15.3686 3.6486,-3.66673 7.49953,-7.84021 9.656,-12.60318 3.66416,-8.09305 4.38981,-19.97889 5.10338,-28.7901 0.40061,-4.94704 -1.95439,-12.726 0.52792,-17.24392 0.77932,-1.41841 3.24171,-1.72503 4.67252,-2.04785 4.44765,-1.00349 9.02177,-1.15096 13.54766,-1.52082 7.37495,-0.60269 14.93785,-3.36898 21.4903,-6.72311 3.13668,-1.60562 5.78079,-4.067834 9.13041,-5.247387 4.21632,-1.48474 8.42211,0.01798 12.68141,-0.619954 l 0.1005,-1.176256 M 88.913046,189.95418 c 1.021586,-6.6606 9.109963,-9.3947 14.059364,-12.1282 7.92001,-4.37415 17.01447,-11.90637 23.00021,-18.67079 6.28101,-7.09809 9.42662,-21.20929 8.22947,-30.49773 -0.47616,-3.69438 -2.99987,-7.63466 -2.91195,-11.29029 0.0614,-2.55361 7.88515,-4.65634 10.03754,-5.08363 -1.20808,14.1387 0.1208,29.77777 -4.46295,43.4579 -1.86952,5.57955 -6.29766,10.46481 -10.40815,14.51365 -9.51505,9.3724 -23.38911,19.67182 -37.543534,19.69909 m -1.634116,0.65027 c -19.694459,2.78132 -37.381147,12.09155 -53.32404,23.65297 -4.549097,3.2989 -8.764933,7.00295 -13.224168,10.41467 -1.914005,1.46439 -4.227238,3.40901 -6.818833,2.48096 -2.640021,-0.94539 -2.65441,-3.59372 -1.90892,-5.85543 1.520708,-4.61368 3.868347,-9.09635 6.305276,-13.28443 3.558022,1.8525 6.596852,3.53248 10.784446,3.10649 8.044202,-0.8183 14.090613,-9.5768 11.773869,-17.37187 -1.308274,-4.40188 -4.33081,-6.83917 -7.910803,-9.36479 7.196051,-13.84001 15.824789,-28.41806 25.179835,-40.89786 1.946785,-2.59704 6.533064,-11.58062 10.398633,-10.70638 2.006392,0.45376 2.016587,2.3427 0.971558,3.77895 -1.686441,2.31779 -5.010691,3.8615 -6.050456,6.59208 -1.709139,4.48851 4.874434,8.50565 8.629885,8.19781 5.717963,-0.4687 12.970215,-6.26084 13.26327,-12.25137 0.15519,-3.17248 -3.081674,-8.01997 0.326889,-10.39736 2.044887,-1.42627 6.609899,0.67637 8.755214,1.29968 7.801585,2.26668 15.422175,5.26722 23.563465,5.96285 l 0.134,-1.56834 -30.156685,-7.31611 0.0335,-0.39209 c 6.893475,-3.26035 15.519145,-3.52994 22.935245,-5.15941 6.18217,-1.35836 12.67664,-4.15302 18.94876,-4.69005 0.75313,4.10299 2.68726,7.93812 3.12404,12.11538 1.07729,10.30305 -2.45399,24.73839 -10.11077,31.91678 -6.13238,5.74922 -13.21972,12.09689 -20.64592,16.10304 -5.470043,2.95088 -13.983571,6.42743 -14.977291,13.63383 m -67.560935,14.76503 c 3.963815,1.51842 7.075195,3.23421 11.340243,1.22039 8.318437,-3.92773 7.314426,-14.54603 0.02879,-18.81152 1.672584,-3.57554 5.342771,0.12657 6.78872,2.16564 2.577338,3.63453 2.902153,8.68386 1.109831,12.72738 -2.27177,5.12518 -7.542868,7.70606 -12.942245,7.18654 -2.532097,-0.24364 -6.881032,-1.26597 -6.325343,-4.48843 m 0.884062,-1.10931 9.600914,-15.37252 c 12.424034,4.84217 1.91347,23.29175 -9.600914,15.37252 m -2.484676,1.36749 c -5.774678,-5.30696 -3.530057,-15.46653 2.829068,-19.25396 3.193406,-1.90196 6.44495,-1.67576 9.983317,-1.37343 -1.205598,2.65977 -3.655092,1.49111 -6.087765,1.96836 -2.692492,0.52821 -5.146126,2.20163 -6.711448,4.44234 -1.784843,2.55495 -2.338827,5.5776 -1.456483,8.5641 0.60413,2.0448 2.128467,3.47203 1.443311,5.65259 m 1.801625,-2.61069 c -6.364734,-5.94152 0.665483,-16.96257 8.750353,-14.65531 l -8.750353,14.65531"
       id="path3"
       sodipodi:nodetypes="csssssssssssssssssssscsssssssssscccsssscssccsssscsscssssssssccccscsssccscssscccccscssscccc"
       inkscape:export-filename="Sella Mod.svg"
       inkscape:export-xdpi="96"
       inkscape:export-ydpi="96" />
  </g>
</svg>
